<svg width="180" height="180" viewBox="0 0 180 180" fill="none" xmlns="http://www.w3.org/2000/svg">
<path d="M155.143 35.5H24.8571C21.9776 35.5 19.2161 36.6484 17.18 38.6925C15.1439 40.7367 14 43.5091 14 46.4V133.6C14 136.491 15.1439 139.263 17.18 141.307C19.2161 143.352 21.9776 144.5 24.8571 144.5H155.143C158.022 144.5 160.784 143.352 162.82 141.307C164.856 139.263 166 136.491 166 133.6V46.4C166 43.5091 164.856 40.7367 162.82 38.6925C160.784 36.6484 158.022 35.5 155.143 35.5ZM155.143 68.2L90 100.9L24.8571 68.2V46.4L90 79.1L155.143 46.4V68.2Z" fill="#013D6C"/>
</svg>
