<svg width="180" height="180" viewBox="0 0 180 180" fill="none" xmlns="http://www.w3.org/2000/svg">
<path d="M34.359 40V70.3571H32.5641C29.2319 70.3571 26.0362 71.6741 23.6799 74.0183C21.3237 76.3625 20 79.5419 20 82.8571V140C20 146.9 25.6287 152.5 32.5641 152.5H147.436C150.768 152.5 153.964 151.183 156.32 148.839C158.676 146.495 160 143.315 160 140V82.8571C160 79.5419 158.676 76.3625 156.32 74.0183C153.964 71.6741 150.768 70.3571 147.436 70.3571H145.641V40C145.641 36.6848 144.317 33.5054 141.961 31.1612C139.605 28.817 136.409 27.5 133.077 27.5H46.9231C43.5909 27.5 40.3951 28.817 38.0389 31.1612C35.6827 33.5054 34.359 36.6848 34.359 40ZM134.872 70.3571H45.1282V40C45.1282 39.5264 45.3173 39.0722 45.6539 38.7373C45.9905 38.4024 46.447 38.2143 46.9231 38.2143H133.077C133.553 38.2143 134.009 38.4024 134.346 38.7373C134.683 39.0722 134.872 39.5264 134.872 40V70.3571ZM124.103 141.786H81.0256V125.714C81.0256 125.241 81.2147 124.786 81.5513 124.452C81.888 124.117 82.3445 123.929 82.8205 123.929H122.308C122.784 123.929 123.24 124.117 123.577 124.452C123.913 124.786 124.103 125.241 124.103 125.714V141.786ZM41.5385 97.1429C41.5385 95.7221 42.1058 94.3594 43.1156 93.3548C44.1254 92.3501 45.495 91.7857 46.9231 91.7857H61.2821C62.7101 91.7857 64.0797 92.3501 65.0895 93.3548C66.0994 94.3594 66.6667 95.7221 66.6667 97.1429C66.6667 98.5637 66.0994 99.9263 65.0895 100.931C64.0797 101.936 62.7101 102.5 61.2821 102.5H46.9231C45.495 102.5 44.1254 101.936 43.1156 100.931C42.1058 99.9263 41.5385 98.5637 41.5385 97.1429Z" fill="#0B4DA2"/>
</svg>
