<svg width="180" height="180" viewBox="0 0 180 180" fill="none" xmlns="http://www.w3.org/2000/svg">
<path d="M49.2 130.711L33.56 146.41C31.4067 148.572 28.9405 149.056 26.1616 147.864C23.3827 146.672 21.9955 144.538 22 141.462V35.1514C22 31.3973 23.3328 28.1846 25.9984 25.5135C28.664 22.8424 31.8645 21.5046 35.6 21.5H144.4C148.14 21.5 151.343 22.8378 154.008 25.5135C156.674 28.1892 158.005 31.4018 158 35.1514V117.06C158 120.814 156.669 124.029 154.008 126.705C151.347 129.38 148.145 130.716 144.4 130.711H49.2ZM62.8 82.9313C64.7267 82.9313 66.3428 82.2761 67.6484 80.9655C68.954 79.655 69.6045 78.035 69.6 76.1056C69.5955 74.1762 68.9427 72.5563 67.6416 71.2457C66.3405 69.9352 64.7267 69.2799 62.8 69.2799C60.8733 69.2799 59.2595 69.9352 57.9584 71.2457C56.6573 72.5563 56.0045 74.1762 56 76.1056C55.9955 78.035 56.6483 79.6573 57.9584 80.9724C59.2685 82.2874 60.8824 82.9404 62.8 82.9313ZM90 82.9313C91.9267 82.9313 93.5428 82.2761 94.8484 80.9655C96.154 79.655 96.8045 78.035 96.8 76.1056C96.7955 74.1762 96.1427 72.5563 94.8416 71.2457C93.5405 69.9352 91.9267 69.2799 90 69.2799C88.0733 69.2799 86.4595 69.9352 85.1584 71.2457C83.8573 72.5563 83.2045 74.1762 83.2 76.1056C83.1955 78.035 83.8483 79.6573 85.1584 80.9724C86.4685 82.2874 88.0824 82.9404 90 82.9313ZM117.2 82.9313C119.127 82.9313 120.743 82.2761 122.048 80.9655C123.354 79.655 124.005 78.035 124 76.1056C123.995 74.1762 123.343 72.5563 122.042 71.2457C120.741 69.9352 119.127 69.2799 117.2 69.2799C115.273 69.2799 113.659 69.9352 112.358 71.2457C111.057 72.5563 110.405 74.1762 110.4 76.1056C110.395 78.035 111.048 79.6573 112.358 80.9724C113.669 82.2874 115.282 82.9404 117.2 82.9313Z" fill="#FF9800"/>
</svg>
