<svg width="180" height="180" viewBox="0 0 180 180" fill="none" xmlns="http://www.w3.org/2000/svg">
<path d="M90.0001 23.5C127.004 23.5 157 53.272 157 89.9999C157 126.728 127.004 156.5 90.0001 156.5C78.1595 156.52 66.5272 153.41 56.2991 147.489L23.0269 156.5L32.0853 123.463C26.1153 113.308 22.9794 101.757 23.0001 89.9999C23.0001 53.272 52.996 23.5 90.0001 23.5ZM67.1665 58.745L65.8265 58.7982C64.9601 58.8574 64.1136 59.0833 63.3341 59.4632C62.6076 59.8722 61.9442 60.3829 61.3643 60.9794C60.5603 61.7308 60.1047 62.3825 59.6156 63.0143C57.1374 66.2123 55.8031 70.1385 55.8234 74.173C55.8368 77.4315 56.6944 80.6035 58.0344 83.5694C60.7747 89.5677 65.2838 95.9184 71.2334 101.804C72.6672 103.22 74.0742 104.643 75.5884 105.967C82.9814 112.426 91.7908 117.085 101.316 119.572L105.122 120.151C106.361 120.218 107.601 120.124 108.847 120.065C110.798 119.962 112.703 119.438 114.428 118.528C115.305 118.079 116.161 117.59 116.994 117.065C116.994 117.065 117.278 116.875 117.832 116.467C118.736 115.802 119.292 115.33 120.043 114.552C120.606 113.975 121.075 113.306 121.45 112.543C121.972 111.459 122.495 109.391 122.709 107.669C122.87 106.352 122.823 105.634 122.803 105.189C122.776 104.477 122.18 103.739 121.53 103.426L117.631 101.691C117.631 101.691 111.802 99.1703 108.237 97.561C107.864 97.3998 107.465 97.3074 107.058 97.2883C106.6 97.2407 106.136 97.2915 105.699 97.4372C105.262 97.5829 104.862 97.8202 104.526 98.1329C104.492 98.1196 104.043 98.4986 99.1992 104.324C98.9211 104.695 98.5381 104.975 98.099 105.129C97.6599 105.283 97.1846 105.304 96.7336 105.189C96.2969 105.073 95.8692 104.926 95.4538 104.75C94.623 104.404 94.335 104.271 93.7654 104.031C89.9188 102.368 86.3582 100.118 83.213 97.3615C82.3688 96.63 81.5849 95.832 80.7809 95.0606C78.1452 92.5549 75.848 89.7206 73.9469 86.6284L73.5516 85.9967C73.2719 85.5697 73.0426 85.1123 72.8682 84.6334C72.6136 83.6559 73.2769 82.8712 73.2769 82.8712C73.2769 82.8712 74.905 81.1023 75.6621 80.1447C76.3991 79.2137 77.0222 78.3093 77.4242 77.6642C78.2148 76.4007 78.4627 75.104 78.0473 74.0998C76.1713 69.5512 74.2327 65.027 72.2317 60.5272C71.8364 59.6361 70.6639 58.9977 69.5986 58.8713C69.2368 58.827 68.875 58.7915 68.5132 58.7649C67.6136 58.7137 66.7115 58.7226 65.8131 58.7915L67.1665 58.745Z" fill="#52CA70"/>
</svg>
