<svg width="198" height="117" viewBox="0 0 198 117" fill="none" xmlns="http://www.w3.org/2000/svg">
<rect x="24" y="28.8926" width="149.609" height="87.3909" rx="4.10895" fill="url(#paint0_linear_2019_1452)"/>
<mask id="mask0_2019_1452" style="mask-type:alpha" maskUnits="userSpaceOnUse" x="24" y="29" width="150" height="87">
<rect x="24.3906" y="29" width="149.609" height="86.3909" fill="#ED713C"/>
</mask>
<g mask="url(#mask0_2019_1452)">
<path opacity="0.1" d="M106.587 123.619C106.587 159.564 74.323 189.659 33.2856 189.659C-7.75179 189.659 -40.0161 159.564 -40.0161 123.619C-40.0161 87.6749 -7.75179 57.5801 33.2856 57.5801C74.323 57.5801 106.587 87.6749 106.587 123.619Z" fill="#D0CFCF" stroke="black" stroke-width="11.9687"/>
<path opacity="0.08" d="M246.19 32.627C246.19 44.7735 239.123 56.3956 226.428 65.231C213.755 74.0516 195.925 79.6979 175.944 79.6979C155.964 79.6979 138.134 74.0516 125.461 65.231C112.766 56.3956 105.699 44.7735 105.699 32.627C105.699 20.4806 112.766 8.85846 125.461 0.0230985C138.134 -8.79749 155.964 -14.4439 175.944 -14.4439C195.925 -14.4439 213.755 -8.79749 226.428 0.0230985C239.123 8.85846 246.19 20.4806 246.19 32.627Z" fill="#D0CFCF" stroke="black" stroke-width="11.9687"/>
</g>
<path d="M161.755 52.565H146.72C145.272 52.565 144.096 51.389 144.096 49.9408V39.2931C144.096 37.845 145.272 36.6689 146.72 36.6689H163.511C164.96 36.6689 166.136 37.842 166.136 39.2931V49.2334L161.755 52.565Z" fill="url(#paint1_linear_2019_1452)"/>
<g opacity="0.48">
<path d="M155.56 36.6719H146.72C145.272 36.6719 144.096 37.8449 144.096 39.296V48.018L144.193 43.0206L155.56 36.6719Z" fill="url(#paint2_linear_2019_1452)"/>
<path opacity="0.35" d="M166.136 39.2931C166.136 37.845 164.96 36.6689 163.511 36.6689H155.56L144.193 43.0177L144.096 48.015V49.9408C144.096 50.9415 144.659 51.8122 145.484 52.2536L166.133 40.7231V39.2931H166.136Z" fill="white"/>
<path d="M158.449 52.565L166.131 48.2751L166.134 48.2388V43.8188L150.471 52.565H158.449Z" fill="url(#paint3_linear_2019_1452)"/>
<path opacity="0.35" d="M158.449 52.565L166.131 48.2751L166.134 48.2388V43.8188L150.471 52.565H158.449Z" fill="white"/>
</g>
<mask id="mask1_2019_1452" style="mask-type:luminance" maskUnits="userSpaceOnUse" x="144" y="36" width="23" height="17">
<path d="M161.687 52.6628H147.161C147.161 52.6628 144.004 51.4898 144.004 50.0386V39.1974C144.004 37.7493 145.18 36.5732 146.628 36.5732H163.108C164.556 36.5732 166.237 37.7493 166.237 39.1974V49.1589L161.687 52.6628Z" fill="white"/>
</mask>
<g mask="url(#mask1_2019_1452)">
<g style="mix-blend-mode:lighten" opacity="0.41">
<path d="M117.378 62.4992C116.16 60.2862 131.542 49.457 151.74 38.3074C171.935 27.1608 189.297 19.9172 190.516 22.1302C191.734 24.3432 176.352 35.1723 156.154 46.3219C135.959 57.4685 118.599 64.7121 117.378 62.4992Z" fill="url(#paint4_radial_2019_1452)"/>
</g>
</g>
<mask id="mask2_2019_1452" style="mask-type:luminance" maskUnits="userSpaceOnUse" x="144" y="36" width="23" height="17">
<path d="M161.687 52.6628H147.161C147.161 52.6628 144.004 51.4898 144.004 50.0386V39.1974C144.004 37.7493 145.18 36.5732 146.628 36.5732H163.108C164.556 36.5732 166.237 37.7493 166.237 39.1974V49.1589L161.687 52.6628Z" fill="white"/>
</mask>
<g mask="url(#mask2_2019_1452)">
<g style="mix-blend-mode:lighten" opacity="0.41">
<path d="M131.887 65.042C131.256 63.8992 143.512 55.927 159.26 47.2353C175.007 38.5436 188.285 32.4216 188.917 33.5613C189.549 34.7041 177.293 42.6763 161.545 51.368C145.794 60.0628 132.516 66.1818 131.887 65.042Z" fill="url(#paint5_radial_2019_1452)"/>
</g>
</g>
<path opacity="0.61" d="M162.907 36.728H146.99C145.654 36.728 144.656 37.3901 144.193 38.3273L144.051 38.9682C144.227 37.8194 145.478 36.9245 146.99 36.9245H154.336V37.6924C154.306 37.6955 154.279 37.7045 154.249 37.7106C154.14 37.7287 154.031 37.7499 153.925 37.7771C153.871 37.7892 153.819 37.8043 153.768 37.8194C153.671 37.8466 153.574 37.8799 153.481 37.9131C153.441 37.9282 153.399 37.9403 153.36 37.9554C153.236 38.0068 153.115 38.0613 153 38.1217C152.952 38.1459 152.909 38.1731 152.861 38.1973C152.788 38.2396 152.716 38.285 152.643 38.3303C152.607 38.3545 152.565 38.3757 152.528 38.3999C152.45 38.4543 152.374 38.5147 152.302 38.5722L152.268 38.5994C152.199 38.6568 152.132 38.7173 152.057 38.7929L152.042 38.814C151.978 38.8775 151.918 38.944 151.857 39.0136L151.833 39.0438C151.703 39.198 151.588 39.3643 151.491 39.5336C151.479 39.5547 151.467 39.5789 151.455 39.6031L151.434 39.6424C151.41 39.6908 151.383 39.7422 151.361 39.7905C151.346 39.8238 151.331 39.857 151.319 39.8903L151.295 39.9508H144.051V40.1442H151.222C151.213 40.1715 151.21 40.2017 151.204 40.2289C151.177 40.3256 151.153 40.4224 151.135 40.5221C151.129 40.5645 151.12 40.6038 151.117 40.6461C151.098 40.7761 151.086 40.9031 151.086 41.0361C151.086 41.7224 151.322 42.3875 151.767 42.9528C151.821 43.0193 151.86 43.0949 151.909 43.1675H144.051V43.361H152.023C152.078 43.4668 152.126 43.5726 152.166 43.6844C152.178 43.7147 152.184 43.7479 152.196 43.7781C152.226 43.8749 152.25 43.9716 152.268 44.0744C152.274 44.1107 152.28 44.144 152.286 44.1802C152.305 44.3102 152.32 44.4433 152.32 44.5763V45.0691C152.32 45.2081 152.308 45.3442 152.286 45.4772C152.277 45.5256 152.265 45.5739 152.256 45.6253C152.238 45.71 152.22 45.7916 152.196 45.8702C152.178 45.9246 152.156 45.979 152.135 46.0335C152.108 46.106 152.078 46.1756 152.042 46.2451C152.014 46.2995 151.987 46.3509 151.957 46.4023C151.942 46.4295 151.921 46.4567 151.903 46.4839H144.051V46.6774H151.776C151.773 46.6804 151.77 46.6865 151.767 46.6895C151.322 47.2548 151.086 47.9169 151.086 48.6062C151.086 48.7302 151.095 48.8571 151.113 48.9781C151.117 48.9962 151.12 49.0113 151.123 49.0295C151.138 49.1444 151.162 49.2592 151.192 49.3711C151.195 49.3771 151.195 49.3832 151.195 49.3892H144.051V49.5857H151.25C151.262 49.619 151.277 49.6492 151.289 49.6795C151.316 49.749 151.346 49.8185 151.377 49.8881C151.401 49.9425 151.428 49.9969 151.455 50.0483C151.507 50.142 151.561 50.2357 151.621 50.3264C151.658 50.3778 151.697 50.4292 151.736 50.4806C151.776 50.532 151.818 50.5834 151.86 50.6348C151.9 50.6832 151.942 50.7285 151.984 50.7739C152.063 50.8585 152.147 50.9401 152.235 51.0157C152.262 51.0399 152.293 51.0611 152.323 51.0852C152.404 51.1518 152.489 51.2153 152.577 51.2757C152.607 51.2969 152.637 51.318 152.67 51.3392C152.912 51.4964 153.178 51.6294 153.46 51.7322C153.472 51.7352 153.484 51.7413 153.499 51.7473C153.765 51.8441 154.043 51.9166 154.333 51.959V52.5666H154.527V51.7866L154.512 51.7836L154.373 51.7625C154.348 51.7594 154.327 51.7564 154.303 51.7504L154.273 51.7443C154.2 51.7322 154.128 51.7201 154.058 51.705C154.034 51.699 154.007 51.6929 153.983 51.6869C153.68 51.6143 153.393 51.5085 153.127 51.3725C153.109 51.3634 153.091 51.3543 153.076 51.3452C152.97 51.2908 152.87 51.2304 152.773 51.1669C152.746 51.1487 152.716 51.1306 152.689 51.1125C152.586 51.0429 152.486 50.9673 152.392 50.8887C152.356 50.8585 152.32 50.8222 152.286 50.792C152.232 50.7406 152.178 50.6862 152.126 50.6318C152.084 50.5894 152.045 50.5441 152.005 50.5018C151.954 50.4413 151.906 50.3778 151.857 50.3143C151.806 50.2448 151.76 50.1753 151.715 50.1057C151.682 50.0513 151.649 49.9939 151.618 49.9364C151.591 49.885 151.564 49.8336 151.54 49.7822C151.497 49.6915 151.461 49.6009 151.431 49.5071L151.416 49.4588C151.373 49.3257 151.343 49.1927 151.319 49.0567C151.316 49.0385 151.313 49.0234 151.31 49.0053C151.289 48.8723 151.277 48.7392 151.277 48.6062C151.277 47.9623 151.497 47.3425 151.915 46.8135C151.927 46.7983 151.936 46.7802 151.948 46.7651C151.969 46.7349 151.99 46.7076 152.011 46.6774H152.017L152.048 46.6351C152.054 46.626 152.057 46.6169 152.063 46.6079L152.147 46.4839H152.138C152.166 46.4386 152.187 46.3932 152.211 46.3479C152.247 46.2753 152.277 46.1997 152.308 46.1242C152.332 46.0637 152.356 46.0032 152.377 45.9397C152.404 45.8551 152.423 45.7674 152.444 45.6798C152.456 45.6253 152.471 45.5709 152.48 45.5135C152.501 45.3684 152.516 45.2202 152.516 45.0691V44.5763C152.516 44.4342 152.501 44.2951 152.483 44.156C152.477 44.1077 152.465 44.0593 152.456 44.0079C152.438 43.9172 152.416 43.8295 152.389 43.7419C152.374 43.6905 152.359 43.6391 152.341 43.5907C152.311 43.5121 152.277 43.4335 152.241 43.3579H152.253L152.178 43.2219L152.175 43.2128C152.172 43.2098 152.169 43.2068 152.169 43.2007L152.147 43.1614H152.138C152.072 43.0435 151.999 42.9286 151.918 42.8258C151.5 42.2938 151.28 41.674 151.28 41.0331V41.03C151.28 40.888 151.295 40.7459 151.316 40.6068C151.322 40.5735 151.325 40.5403 151.331 40.507C151.355 40.3801 151.389 40.2561 151.431 40.1322C151.661 39.464 152.138 38.8805 152.779 38.4664C152.843 38.424 152.909 38.3847 152.976 38.3454C153.03 38.3152 153.085 38.285 153.139 38.2578C153.239 38.2094 153.339 38.161 153.444 38.1217C153.493 38.1036 153.544 38.0854 153.596 38.0673C153.689 38.034 153.783 38.0038 153.88 37.9796C153.931 37.9645 153.983 37.9524 154.037 37.9403C154.146 37.9161 154.255 37.895 154.363 37.8799C154.391 37.8768 154.415 37.8708 154.442 37.8678L154.527 37.8557V36.9155H155.367V37.8496L155.455 37.8587C155.461 37.8587 155.467 37.8617 155.476 37.8617C155.615 37.8768 155.751 37.9041 155.887 37.9313C155.926 37.9403 155.966 37.9494 156.002 37.9585C156.129 37.9887 156.25 38.025 156.371 38.0673C156.386 38.0733 156.401 38.0764 156.419 38.0824C156.552 38.1308 156.679 38.1882 156.806 38.2517C156.839 38.2699 156.873 38.285 156.906 38.3031C157.015 38.3606 157.121 38.424 157.22 38.4906C157.752 38.8624 158.173 39.3401 158.421 39.8903C158.427 39.8994 158.43 39.9115 158.433 39.9205C158.463 39.987 158.487 40.0566 158.511 40.1261C158.557 40.2531 158.59 40.3861 158.617 40.5161C158.623 40.5463 158.626 40.5796 158.632 40.6098C158.653 40.7519 158.668 40.894 158.668 41.0391C158.668 41.68 158.451 42.2998 158.037 42.8319C157.952 42.9377 157.879 43.0556 157.813 43.1735H157.807L157.786 43.2128C157.786 43.2158 157.783 43.2219 157.78 43.2249L157.701 43.37H157.713C157.677 43.4486 157.641 43.5272 157.613 43.6058C157.598 43.6451 157.589 43.6844 157.577 43.7237C157.547 43.8235 157.52 43.9263 157.502 44.0291C157.495 44.0684 157.486 44.1077 157.48 44.147C157.459 44.2861 157.447 44.4281 157.447 44.5763V45.0932C157.447 45.6525 157.604 46.1907 157.907 46.6472L157.937 46.6895H165.876V49.4043L158.557 49.4043L158.535 49.4739C158.191 50.5653 157.22 51.3997 155.996 51.702C155.821 51.7443 155.639 51.7776 155.455 51.7987L155.367 51.8048V52.5787H155.561V51.9801C155.748 51.9559 155.929 51.9197 156.105 51.8743C157.341 51.5478 158.321 50.7013 158.696 49.6009H165.177H165.32L161.534 52.5817H161.828L166.063 49.3197V39.2524C166.063 37.8587 164.648 36.728 162.907 36.728ZM165.87 46.49L158.037 46.49C157.777 46.0758 157.638 45.5921 157.638 45.0872V44.5702C157.638 44.4372 157.65 44.3042 157.668 44.1742C157.674 44.1409 157.68 44.1077 157.686 44.0714C157.704 43.9686 157.731 43.8688 157.762 43.7691C157.771 43.7419 157.777 43.7116 157.789 43.6844C157.828 43.5756 157.876 43.4698 157.928 43.364H165.87V46.49ZM165.87 43.1735H158.046C158.091 43.0979 158.136 43.0223 158.191 42.9528C158.632 42.3875 158.865 41.7284 158.865 41.0421C158.865 40.9091 158.853 40.7731 158.835 40.6431C158.829 40.6038 158.823 40.5675 158.817 40.5282C158.798 40.4194 158.774 40.3135 158.744 40.2108C158.738 40.1896 158.735 40.1684 158.729 40.1473H165.873V43.1735H165.87ZM165.87 39.9508H158.656C158.656 39.9477 158.656 39.9477 158.653 39.9477L158.626 39.8812C158.626 39.8782 158.623 39.8752 158.623 39.8722C158.617 39.8601 158.611 39.8449 158.605 39.8298C158.599 39.8147 158.593 39.7966 158.584 39.7815C158.56 39.7301 158.532 39.6787 158.502 39.6182L158.484 39.5819C158.475 39.5608 158.463 39.5396 158.451 39.5215C158.402 39.4368 158.351 39.3522 158.294 39.2736L158.257 39.2252C158.209 39.1587 158.161 39.0952 158.106 39.0317L158.055 38.9712C158.003 38.9138 157.952 38.8564 157.898 38.8019L157.846 38.7536C157.798 38.7082 157.749 38.6659 157.698 38.6206C157.695 38.6175 157.689 38.6145 157.686 38.6115C157.68 38.6054 157.674 38.5994 157.665 38.5933L157.613 38.551C157.571 38.5147 157.52 38.4785 157.471 38.4422C157.456 38.4301 157.441 38.418 157.423 38.4059C157.411 38.3968 157.402 38.3908 157.39 38.3817L157.365 38.3666C157.344 38.3515 157.32 38.3424 157.299 38.3273C157.208 38.2668 157.115 38.2124 157.018 38.158C156.985 38.1399 156.951 38.1217 156.918 38.1036C156.794 38.0401 156.667 37.9827 156.534 37.9313C156.507 37.9222 156.48 37.9131 156.452 37.9041C156.341 37.8648 156.226 37.8285 156.111 37.7982C156.072 37.7892 156.035 37.7771 155.996 37.768C155.854 37.7348 155.709 37.7045 155.561 37.6864V36.9245H162.907C164.54 36.9245 165.87 37.9675 165.87 39.2464V39.9508Z" fill="white"/>
<path d="M163.073 36.5713H155.73H155.533H154.699H154.502H147.156C145.415 36.5713 144 37.702 144 39.0896V39.794V39.9905V43.0168V43.2103V46.3332V46.5297V49.2446V49.4381V50.1425C144 51.5301 145.418 52.6608 147.156 52.6608H154.502H154.696H155.53H155.73H161.682L166.232 49.1569V46.5297V46.3332V43.2103V43.0168V39.9905V39.794V39.0896C166.232 37.702 164.814 36.5713 163.073 36.5713ZM144.196 39.0896C144.196 37.8078 145.526 36.7678 147.159 36.7678H154.505V37.5357C154.475 37.5387 154.448 37.5478 154.418 37.5538C154.309 37.572 154.2 37.5931 154.094 37.6203C154.04 37.6324 153.988 37.6476 153.937 37.6627C153.84 37.6899 153.743 37.7231 153.65 37.7564C153.61 37.7715 153.568 37.7836 153.529 37.7987C153.405 37.8471 153.284 37.9045 153.169 37.965C153.121 37.9892 153.078 38.0164 153.03 38.0406C152.957 38.0829 152.885 38.1282 152.812 38.1736C152.776 38.1978 152.737 38.2189 152.697 38.2431C152.619 38.2975 152.543 38.358 152.471 38.4154L152.437 38.4427C152.368 38.5001 152.301 38.5606 152.226 38.6361L152.205 38.6543C152.141 38.7178 152.081 38.7843 152.02 38.8538L151.996 38.881C151.866 39.0352 151.751 39.2015 151.654 39.3708C151.642 39.3919 151.63 39.4161 151.618 39.4403L151.597 39.4796C151.57 39.528 151.546 39.5794 151.521 39.6278C151.506 39.661 151.494 39.6943 151.479 39.7275L151.455 39.788H144.196V39.0896ZM144.196 39.9905H151.391C151.382 40.0178 151.379 40.048 151.373 40.0752C151.346 40.1719 151.322 40.2717 151.304 40.3684C151.298 40.4108 151.289 40.4501 151.286 40.4924C151.267 40.6224 151.255 40.7494 151.255 40.8824V40.8854C151.255 41.5717 151.491 42.2368 151.936 42.8021C151.99 42.8686 152.029 42.9442 152.078 43.0168L144.196 43.0168V39.9905ZM144.196 43.2133H152.193C152.247 43.3191 152.295 43.4249 152.335 43.5368C152.347 43.567 152.353 43.6003 152.365 43.6305C152.395 43.7272 152.419 43.824 152.437 43.9268C152.443 43.963 152.453 43.9963 152.456 44.0326C152.474 44.1626 152.489 44.2956 152.489 44.4286V44.9214C152.489 45.0605 152.477 45.1965 152.456 45.3325C152.45 45.3809 152.434 45.4293 152.425 45.4807C152.407 45.5653 152.389 45.647 152.365 45.7256C152.347 45.78 152.326 45.8344 152.304 45.8888C152.277 45.9614 152.247 46.0309 152.211 46.1005C152.183 46.1518 152.156 46.2063 152.126 46.2546C152.111 46.2818 152.09 46.309 152.072 46.3363H144.196V43.2133ZM144.196 46.5297H151.945C151.939 46.5358 151.936 46.5388 151.933 46.5418C151.488 47.1072 151.252 47.7693 151.252 48.4586C151.252 48.5825 151.261 48.7095 151.28 48.8304C151.283 48.8485 151.286 48.8637 151.289 48.8818C151.307 48.9967 151.328 49.1116 151.358 49.2234C151.361 49.2295 151.361 49.2355 151.361 49.2416H144.196V46.5297ZM154.502 52.4643H147.156C145.523 52.4643 144.193 51.4213 144.193 50.1425V49.4381H151.416C151.428 49.4713 151.443 49.5016 151.455 49.5318C151.482 49.6013 151.512 49.6709 151.543 49.7404C151.567 49.7948 151.591 49.8492 151.621 49.9006C151.673 49.9943 151.727 50.0881 151.787 50.1788C151.824 50.2332 151.863 50.2816 151.902 50.3329C151.942 50.3843 151.984 50.4357 152.026 50.4871C152.066 50.5355 152.108 50.5809 152.15 50.6262C152.229 50.7109 152.313 50.7925 152.401 50.8681C152.428 50.8922 152.459 50.9164 152.489 50.9376C152.57 51.0041 152.655 51.0676 152.743 51.128C152.773 51.1492 152.806 51.1704 152.837 51.1915C153.078 51.3487 153.344 51.4818 153.626 51.5846C153.638 51.5906 153.65 51.5936 153.665 51.5997C153.931 51.6964 154.209 51.769 154.499 51.8113L154.502 52.4643ZM165.489 49.4381L161.643 52.4673H155.73V51.8234C155.917 51.7992 156.099 51.7629 156.274 51.7176C157.51 51.3911 158.49 50.5446 158.865 49.4411H165.347L165.489 49.4381ZM166.036 49.2446H158.723L158.702 49.3111C158.357 50.4025 157.386 51.2369 156.162 51.5422C155.987 51.5846 155.805 51.6178 155.621 51.639L155.533 51.648V52.4673H154.699V51.642L154.684 51.639L154.545 51.6178C154.52 51.6148 154.499 51.6118 154.478 51.6057L154.448 51.5997C154.375 51.5876 154.303 51.5755 154.233 51.5604H154.23C154.206 51.5543 154.182 51.5483 154.158 51.5422C153.855 51.4697 153.568 51.3639 153.302 51.2308C153.284 51.2218 153.266 51.2127 153.248 51.2036C153.142 51.1492 153.042 51.0888 152.945 51.0253C152.918 51.0071 152.888 50.989 152.861 50.9708C152.758 50.9013 152.658 50.8257 152.564 50.7471C152.528 50.7169 152.495 50.6806 152.459 50.6504C152.404 50.599 152.35 50.5446 152.298 50.4902C152.256 50.4478 152.217 50.4025 152.177 50.3602C152.126 50.2997 152.078 50.2362 152.029 50.1727C151.981 50.1032 151.933 50.0336 151.887 49.9641C151.854 49.9097 151.821 49.8523 151.79 49.7948C151.763 49.7434 151.736 49.692 151.712 49.6406C151.67 49.5499 151.633 49.4592 151.603 49.3655L151.588 49.3171C151.546 49.1841 151.515 49.0481 151.491 48.9151C151.488 48.8969 151.485 48.8818 151.482 48.8637C151.461 48.7306 151.449 48.5976 151.449 48.4646C151.449 47.8207 151.67 47.2009 152.087 46.6718C152.099 46.6567 152.108 46.6386 152.117 46.6235C152.138 46.5932 152.159 46.563 152.18 46.5358H152.187L152.217 46.4935C152.223 46.4844 152.226 46.4753 152.232 46.4663L152.317 46.3423H152.304C152.332 46.297 152.353 46.2516 152.377 46.2063C152.413 46.1337 152.443 46.0581 152.474 45.9825C152.498 45.9221 152.522 45.8616 152.543 45.7981C152.57 45.7135 152.589 45.6258 152.61 45.5381C152.622 45.4837 152.637 45.4293 152.646 45.3719C152.67 45.2267 152.682 45.0786 152.682 44.9274V44.4347C152.682 44.2926 152.67 44.1535 152.649 44.0144C152.643 43.9661 152.631 43.9177 152.622 43.8663C152.604 43.7756 152.583 43.6879 152.555 43.6003C152.54 43.5489 152.525 43.4975 152.507 43.4491C152.477 43.3705 152.443 43.2919 152.407 43.2163H152.419L152.344 43.0772L152.341 43.0682C152.338 43.0652 152.335 43.0621 152.335 43.0591L152.313 43.0198H152.307C152.241 42.9019 152.168 42.787 152.087 42.6842C151.67 42.1521 151.449 41.5324 151.449 40.8884C151.449 40.7463 151.464 40.6012 151.485 40.4622C151.491 40.4289 151.494 40.3957 151.5 40.3624C151.524 40.2354 151.558 40.1115 151.6 39.9875C151.83 39.3194 152.307 38.7359 152.948 38.3217C153.012 38.2794 153.078 38.2401 153.145 38.2008C153.199 38.1706 153.254 38.1403 153.308 38.1131C153.408 38.0648 153.508 38.0164 153.613 37.9771C153.662 37.9559 153.713 37.9408 153.765 37.9227C153.858 37.8894 153.952 37.8592 154.049 37.835C154.1 37.8199 154.152 37.8078 154.206 37.7957C154.315 37.7715 154.424 37.7503 154.533 37.7352C154.56 37.7322 154.584 37.7262 154.611 37.7231L154.696 37.7141V36.7738H155.53V37.708L155.618 37.7171C155.624 37.7171 155.63 37.7201 155.639 37.7201C155.778 37.7352 155.914 37.7624 156.05 37.7896C156.089 37.7987 156.129 37.8078 156.165 37.8168C156.292 37.8471 156.413 37.8834 156.534 37.9257C156.549 37.9317 156.564 37.9348 156.579 37.9408C156.712 37.9892 156.839 38.0466 156.966 38.1101C156.999 38.1252 157.033 38.1434 157.066 38.1615C157.175 38.2189 157.278 38.2824 157.38 38.3489C157.916 38.7057 158.336 39.1864 158.584 39.7366C158.587 39.7457 158.593 39.7578 158.596 39.7668C158.626 39.8333 158.65 39.9029 158.674 39.9724C158.72 40.0994 158.753 40.2324 158.78 40.3624C158.786 40.3926 158.789 40.4259 158.795 40.4561C158.816 40.5982 158.832 40.7403 158.832 40.8854C158.832 41.5263 158.611 42.1461 158.2 42.6782C158.115 42.784 158.042 42.9019 157.976 43.0198L157.955 43.0591C157.952 43.0621 157.949 43.0682 157.946 43.0712L157.867 43.2163H157.879C157.843 43.2949 157.807 43.3735 157.779 43.4521C157.764 43.4914 157.755 43.5307 157.743 43.57C157.713 43.6698 157.686 43.7726 157.668 43.8754C157.659 43.9147 157.652 43.954 157.646 43.9933C157.625 44.1323 157.613 44.2744 157.613 44.4226V44.9395C157.613 45.4988 157.77 46.037 158.073 46.4935L158.103 46.5358H166.042V49.2446H166.036ZM166.036 46.3332H158.203C157.943 45.9191 157.804 45.4353 157.804 44.9305V44.4135C157.804 44.2805 157.816 44.1475 157.834 44.0175C157.84 43.9842 157.846 43.9509 157.852 43.9147C157.87 43.8119 157.897 43.7121 157.928 43.6123C157.937 43.5851 157.943 43.5549 157.952 43.5277C157.991 43.4189 158.039 43.313 158.091 43.2072H166.033V46.3332H166.036ZM166.036 43.0168H158.212C158.257 42.9412 158.302 42.8656 158.357 42.7961C158.798 42.2307 159.031 41.5717 159.031 40.8854V40.8824C159.031 40.7494 159.019 40.6164 159.001 40.4864C158.995 40.4471 158.989 40.4077 158.983 40.3715C158.965 40.2626 158.94 40.1568 158.91 40.054C158.904 40.0329 158.901 40.0117 158.895 39.9905H166.036V43.0168ZM158.822 39.794C158.822 39.794 158.822 39.791 158.819 39.791L158.792 39.7245C158.792 39.7215 158.789 39.7185 158.789 39.7185C158.783 39.7033 158.777 39.6912 158.771 39.6761C158.765 39.661 158.759 39.6429 158.75 39.6278C158.726 39.5764 158.699 39.525 158.668 39.4645L158.65 39.4282C158.641 39.4071 158.629 39.3859 158.62 39.3678C158.572 39.2831 158.52 39.1985 158.463 39.1199L158.426 39.0745C158.378 39.008 158.33 38.9445 158.275 38.881L158.224 38.8206C158.172 38.7631 158.121 38.7057 158.067 38.6513L158.012 38.5968C157.964 38.5515 157.916 38.5061 157.864 38.4638C157.861 38.4608 157.858 38.4578 157.852 38.4517C157.846 38.4457 157.84 38.4396 157.831 38.4336L157.779 38.3913C157.734 38.355 157.686 38.3187 157.637 38.2855C157.622 38.2734 157.607 38.2613 157.589 38.2492C157.577 38.2401 157.568 38.2341 157.556 38.225L157.532 38.2099C157.51 38.1948 157.486 38.1857 157.465 38.1706C157.374 38.1101 157.281 38.0557 157.184 38.0013C157.151 37.9831 157.117 37.965 157.084 37.9469C156.96 37.8834 156.833 37.8259 156.7 37.7745C156.673 37.7624 156.646 37.7564 156.619 37.7473C156.507 37.708 156.392 37.6717 156.277 37.6415C156.238 37.6324 156.201 37.6203 156.162 37.6113C156.02 37.578 155.875 37.5478 155.727 37.5297V36.7678H163.073C164.706 36.7678 166.036 37.8108 166.036 39.0896V39.794H158.822Z" fill="#856400"/>
<path d="M163.074 36.5713H147.156C145.415 36.5713 144 37.702 144 39.0896V50.1425C144 51.5301 145.415 52.6608 147.156 52.6608H161.68L166.23 49.1569V39.0896C166.233 37.702 164.815 36.5713 163.074 36.5713ZM166.036 49.2446L165.489 49.4381L161.644 52.4643H155.727V52.428H155.534V52.4643H154.699V52.428H154.503V52.4643H147.156C145.524 52.4643 144.194 51.4213 144.194 50.1425V39.0896C144.194 37.8078 145.524 36.7678 147.156 36.7678H150.119V36.7557H161.039V36.7678H163.071C164.703 36.7678 166.033 37.8108 166.033 39.0896V49.2446H166.036Z" fill="#B3B3B3"/>
<path fill-rule="evenodd" clip-rule="evenodd" d="M43.7579 44.7422L43.7598 44.7447L43.7615 44.7473C43.8614 44.8886 44.085 44.9301 44.2599 44.8066C44.3999 44.7077 44.442 44.4874 44.3228 44.3133C44.1449 44.0866 44.0157 43.8215 43.9309 43.5624C43.8425 43.2926 43.8015 42.9861 43.8031 42.6854C43.8047 42.3848 43.849 42.0787 43.9402 41.8099C44.0278 41.5517 44.1598 41.288 44.3401 41.0632C44.4611 40.8903 44.4214 40.6696 44.2825 40.5692C44.1089 40.4438 43.8848 40.483 43.7835 40.6233L43.7817 40.6258L43.7798 40.6283C43.5554 40.9241 43.3714 41.2529 43.2614 41.5754C43.1457 41.9548 43.0719 42.3218 43.07 42.6815C43.068 43.0601 43.1042 43.4184 43.2431 43.7711C43.3944 44.1552 43.5409 44.4496 43.7579 44.7422ZM42.1356 45.4448L42.1312 45.4386L42.1272 45.4322C41.6299 44.6354 41.343 43.674 41.3484 42.6723C41.3537 41.671 41.6506 40.7129 42.1562 39.9216C42.2657 39.7478 42.2165 39.5424 42.0318 39.409C41.9078 39.3194 41.675 39.3512 41.5368 39.5363C40.9661 40.4419 40.6213 41.5365 40.6153 42.6684C40.6091 43.839 40.9419 44.8981 41.5035 45.8103C41.6334 45.9891 41.8323 46.0392 42.0038 45.9379C42.1897 45.8017 42.2237 45.5696 42.1356 45.4448ZM39.2244 38.346L39.2195 38.3557L39.2138 38.3649C38.4404 39.6258 38.0106 41.0803 38.0022 42.6545C37.9939 44.2281 38.4078 45.6864 39.167 46.955C39.2834 47.1422 39.4799 47.195 39.6792 47.1023C39.8605 46.9841 39.9092 46.7883 39.8145 46.5905C39.1688 45.4437 38.7673 44.0924 38.7749 42.6586C38.7825 41.2313 39.1557 39.8821 39.8577 38.7353C39.9527 38.5395 39.9056 38.3445 39.7265 38.2249C39.5103 38.1217 39.2997 38.1974 39.2244 38.346ZM36.9344 37.146L36.931 37.1526L36.9273 37.159C35.9901 38.7791 35.4395 40.6312 35.4288 42.6408C35.4181 44.6483 35.9479 46.5045 36.866 48.1332C36.9826 48.3183 37.1782 48.3701 37.3765 48.2778C37.5573 48.16 37.6063 47.965 37.5127 47.7679C36.6282 46.2582 36.1519 44.5093 36.1618 42.6447C36.1718 40.7754 36.7086 39.0332 37.5662 37.5385C37.6736 37.3203 37.5979 37.1066 37.4479 37.0306C37.2278 36.919 37.011 36.9947 36.9344 37.146Z" fill="url(#paint6_linear_2019_1452)" fill-opacity="0.7"/>
<path d="M47.0452 73.1452C36.9067 73.1882 28.7228 81.4422 28.7658 91.5807C28.8088 101.719 37.0628 109.903 47.2013 109.86C57.3398 109.817 65.5237 101.563 65.4807 91.4246C65.4374 81.2861 57.1837 73.1022 47.0452 73.1452Z" fill="#F48C0F"/>
<path d="M47.0449 72.2858C46.3123 72.2884 45.5909 72.3356 44.881 72.4222C38.3361 73.2186 32.8617 77.4559 30.309 83.2642V83.2656C29.3062 85.5467 28.7543 88.0697 28.7658 90.7215C28.7684 91.1764 28.7863 91.6263 28.8219 92.0722C29.552 101.577 37.5166 109.042 47.2002 109.002C56.8316 108.961 64.6992 101.51 65.4256 92.0735C65.4639 91.5754 65.483 91.0733 65.4804 90.566C65.4371 80.4275 57.1834 72.2438 47.0449 72.2858Z" fill="#FCDA15"/>
<path d="M44.8971 76.2774C45.7381 78.0539 35.378 86.4569 33.8767 84.6471C32.3767 82.8363 30.3086 83.2657 30.3086 83.2657V83.2644C32.861 77.4561 38.3356 73.219 44.8806 72.4224C44.9239 72.4363 44.9456 72.4441 44.9456 72.4441C44.9456 72.4441 44.0574 74.501 44.8971 76.2774Z" fill="#FFEF33"/>
<path d="M65.4251 92.0736C64.6987 101.51 56.8309 108.961 47.1998 109.002C37.5161 109.042 29.5515 101.578 28.8215 92.0723C31.6708 92.4878 33.0344 94.2411 33.0344 94.2411H61.2185C61.2185 94.2411 62.5794 92.4915 65.4251 92.0736Z" fill="#FEB012"/>
<path d="M47.0605 76.1076C39.0322 76.1417 32.5515 82.6777 32.5856 90.706C32.6197 98.7344 39.1557 105.215 47.1841 105.181C55.2124 105.147 61.6931 98.6109 61.659 90.5825C61.6249 82.5541 55.0889 76.0735 47.0605 76.1076Z" fill="#FCDA15"/>
<path d="M45.4997 78.5378C46.4499 80.0338 44.9688 82.6759 42.1921 84.4393C39.4154 86.2026 36.3943 86.4193 35.4442 84.9233C34.494 83.4272 35.9751 80.7851 38.7518 79.0218C41.5287 77.2585 44.5499 77.0418 45.4997 78.5378Z" fill="#FFEF33"/>
<path d="M61.2101 94.2439C59.6133 100.508 53.9477 105.152 47.1834 105.18H47.1171C40.3376 105.179 34.635 100.533 33.0333 94.2413C34.63 90.4641 40.2956 87.662 47.0599 87.6441C53.8687 87.6263 59.6033 90.4363 61.2101 94.2439Z" fill="#FCA711"/>
<path d="M29.1919 85.5684L24 85.2226L29.1919 84.8769C29.6394 84.847 29.9959 84.4905 30.0258 84.043L30.3715 78.8511L30.7173 84.043C30.7472 84.4905 31.1037 84.847 31.5512 84.8769L36.7431 85.2226L31.5512 85.5684C31.1037 85.5983 30.7472 85.9548 30.7173 86.4023L30.3715 91.5942L30.0258 86.4023C29.9959 85.9548 29.6394 85.5983 29.1919 85.5684Z" fill="white"/>
<path d="M47.0608 76.108C39.0324 76.1411 32.5526 82.6771 32.5869 90.7068C32.5882 90.9744 32.5958 91.2396 32.6124 91.5032C33.0457 83.8956 39.337 77.8438 47.0608 77.8118C54.8227 77.7788 61.1892 83.8329 61.6341 91.489C61.6533 91.1895 61.6609 90.8875 61.6596 90.583C61.6265 82.5536 55.0905 76.0737 47.0608 76.108Z" fill="#FFAE12"/>
<path d="M61.6328 89.7852C61.4237 93.4577 59.85 96.7684 57.407 99.2125C55.3439 101.279 52.6614 102.728 49.6591 103.256C48.8551 103.397 48.028 103.473 47.183 103.476C39.4225 103.509 33.0559 97.4552 32.611 89.7991C32.5919 90.0986 32.5843 90.4006 32.5856 90.7051C32.6186 98.7345 39.1547 105.215 47.183 105.18C48.205 105.176 49.2029 105.067 50.1638 104.862C53.3051 104.193 56.0702 102.51 58.1004 100.173V100.172C60.3304 97.6055 61.6734 94.2491 61.6582 90.5816C61.6569 90.314 61.6493 90.0491 61.6328 89.7852Z" fill="#FFD00D"/>
<path d="M58.101 100.172V100.173C56.0709 102.51 53.3058 104.193 50.1644 104.862C49.2329 104.194 49.5553 103.446 49.6597 103.256C52.662 102.728 55.3445 101.279 57.4077 99.2124C57.4077 99.2124 58.2563 99.3129 58.101 100.172Z" fill="#FFEF33"/>
<path d="M40.3721 75.4262C40.9574 76.3113 40.1001 77.9091 38.4577 78.9951C36.815 80.0814 35.0092 80.2443 34.424 79.3595C33.8387 78.4744 34.696 76.8766 36.3384 75.7906C37.9811 74.7043 39.7869 74.5412 40.3721 75.4262Z" fill="#FCFDAF"/>
<g filter="url(#filter0_d_2019_1452)">
<path d="M47.1348 96.4002L42.7133 99.0638C42.5179 99.1881 42.3137 99.2414 42.1006 99.2236C41.8875 99.2059 41.7011 99.1348 41.5413 99.0105C41.3815 98.8862 41.2572 98.731 41.1684 98.5449C41.0796 98.3589 41.0618 98.15 41.1151 97.9185L42.2871 92.8843L38.3716 89.5015C38.194 89.3417 38.0832 89.1595 38.0392 88.9549C37.9951 88.7504 38.0083 88.5508 38.0786 88.3562C38.1489 88.1615 38.2555 88.0017 38.3982 87.8767C38.541 87.7517 38.7363 87.6718 38.9842 87.637L44.1516 87.1842L46.1493 82.443C46.2381 82.2299 46.3759 82.0701 46.5627 81.9635C46.7495 81.857 46.9402 81.8037 47.1348 81.8037C47.3294 81.8037 47.5202 81.857 47.707 81.9635C47.8938 82.0701 48.0316 82.2299 48.1204 82.443L50.118 87.1842L55.2854 87.637C55.534 87.6725 55.7294 87.7524 55.8714 87.8767C56.0135 88.001 56.12 88.1608 56.191 88.3562C56.2621 88.5515 56.2756 88.7514 56.2315 88.956C56.1875 89.1606 56.0763 89.3424 55.8981 89.5015L51.9826 92.8843L53.1545 97.9185C53.2078 98.1493 53.1901 98.3581 53.1013 98.5449C53.0125 98.7318 52.8882 98.887 52.7284 99.0105C52.5686 99.1341 52.3821 99.2052 52.169 99.2236C51.9559 99.2421 51.7517 99.1888 51.5564 99.0638L47.1348 96.4002Z" fill="#FCF07D"/>
</g>
<circle cx="166" cy="32" r="29.5" fill="white" stroke="#8BBD00" stroke-width="5"/>
<path d="M166 19V32.5M166 45V32.5M166 32.5H179M166 32.5H153" stroke="#8BBD00" stroke-width="5" stroke-linecap="round" stroke-linejoin="round"/>
<defs>
<filter id="filter0_d_2019_1452" x="38.0137" y="81.8037" width="18.8348" height="17.4233" filterUnits="userSpaceOnUse" color-interpolation-filters="sRGB">
<feFlood flood-opacity="0" result="BackgroundImageFix"/>
<feColorMatrix in="SourceAlpha" type="matrix" values="0 0 0 0 0 0 0 0 0 0 0 0 0 0 0 0 0 0 127 0" result="hardAlpha"/>
<feOffset dx="0.591741"/>
<feComposite in2="hardAlpha" operator="out"/>
<feColorMatrix type="matrix" values="0 0 0 0 0.835294 0 0 0 0 0.411765 0 0 0 0 0.129412 0 0 0 1 0"/>
<feBlend mode="normal" in2="BackgroundImageFix" result="effect1_dropShadow_2019_1452"/>
<feBlend mode="normal" in="SourceGraphic" in2="effect1_dropShadow_2019_1452" result="shape"/>
</filter>
<linearGradient id="paint0_linear_2019_1452" x1="50.3106" y1="15.094" x2="66.0386" y2="137.6" gradientUnits="userSpaceOnUse">
<stop stop-color="#C7F03E"/>
<stop offset="1" stop-color="#AFDE2C"/>
</linearGradient>
<linearGradient id="paint1_linear_2019_1452" x1="140.565" y1="48.5245" x2="170.965" y2="39.7172" gradientUnits="userSpaceOnUse">
<stop stop-color="#F7B261"/>
<stop offset="0.244" stop-color="#F9CD63"/>
<stop offset="0.5006" stop-color="#FBE164"/>
<stop offset="0.7543" stop-color="#FCEE65"/>
<stop offset="1" stop-color="#FCF265"/>
</linearGradient>
<linearGradient id="paint2_linear_2019_1452" x1="139.275" y1="44.0663" x2="169.674" y2="35.2594" gradientUnits="userSpaceOnUse">
<stop stop-color="#F7B261"/>
<stop offset="0.244" stop-color="#F9CD63"/>
<stop offset="0.5006" stop-color="#FBE164"/>
<stop offset="0.7543" stop-color="#FCEE65"/>
<stop offset="1" stop-color="#FCF265"/>
</linearGradient>
<linearGradient id="paint3_linear_2019_1452" x1="142.158" y1="54.0246" x2="172.557" y2="45.2177" gradientUnits="userSpaceOnUse">
<stop stop-color="#F7B261"/>
<stop offset="0.244" stop-color="#F9CD63"/>
<stop offset="0.5006" stop-color="#FBE164"/>
<stop offset="0.7543" stop-color="#FCEE65"/>
<stop offset="1" stop-color="#FCF265"/>
</linearGradient>
<radialGradient id="paint4_radial_2019_1452" cx="0" cy="0" r="1" gradientUnits="userSpaceOnUse" gradientTransform="translate(153.964 42.3164) rotate(151.103) scale(41.7782 4.57521)">
<stop offset="0.0074" stop-color="#FFFF00"/>
<stop offset="0.0934" stop-color="#E5E501"/>
<stop offset="0.2774" stop-color="#A2A204"/>
<stop offset="0.5052" stop-color="#484807"/>
<stop offset="0.915" stop-color="#00000A"/>
</radialGradient>
<radialGradient id="paint5_radial_2019_1452" cx="0" cy="0" r="1" gradientUnits="userSpaceOnUse" gradientTransform="translate(160.413 49.2945) rotate(151.101) scale(32.5777 2.36183)">
<stop offset="0.0074" stop-color="#FFFF00"/>
<stop offset="0.0934" stop-color="#E5E501"/>
<stop offset="0.2774" stop-color="#A2A204"/>
<stop offset="0.5052" stop-color="#484807"/>
<stop offset="0.915" stop-color="#00000A"/>
</radialGradient>
<linearGradient id="paint6_linear_2019_1452" x1="39.9457" y1="36.9917" x2="39.8853" y2="48.3368" gradientUnits="userSpaceOnUse">
<stop stop-color="#41463B"/>
</linearGradient>
</defs>
</svg>
