<svg xmlns="http://www.w3.org/2000/svg" width="130" height="129" viewBox="0 0 130 129" fill="none">
  <path d="M65.6384 128.538C62.9582 128.538 64.7254 128.538 64.7254 128.538C64.7254 128.538 64.7254 102.849 64.7254 64.247C64.7254 25.7107 64.7254 0.0216413 64.7254 0.0216413C64.7254 0.0216413 63.1114 0.0214844 65.6384 0.0214844C100.819 0.0214844 128.651 30.3467 128.651 64.1217C128.651 98.9556 100.524 128.538 65.6384 128.538Z" fill="#FF9F00"/>
  <path d="M127.97 64.2817C127.97 99.7832 99.3224 128.563 63.9848 128.563C28.6473 128.563 0 99.7832 0 64.2817C0 28.7802 28.6473 0 63.9848 0C99.3224 0 127.97 28.7802 127.97 64.2817Z" fill="url(#paint0_linear_622_1361)"/>
  <path d="M115.174 64.2818C115.174 92.6834 92.2561 115.707 63.9857 115.707C35.7153 115.707 12.7979 92.6834 12.7979 64.2818C12.7979 35.8802 35.7153 12.8564 63.9857 12.8564C92.2561 12.8564 115.174 35.8802 115.174 64.2818Z" fill="#FFBB00"/>
  <path d="M110.374 64.282C110.374 90.021 89.6053 110.886 63.9852 110.886C38.365 110.886 17.5962 90.021 17.5962 64.282C17.5962 38.5429 38.365 17.6777 63.9852 17.6777C89.6053 17.6777 110.374 38.5429 110.374 64.282Z" fill="url(#paint1_linear_622_1361)"/>
  <path d="M66.3082 34.6997L73.9793 50.3157C74.4739 51.323 75.4305 52.0217 76.5375 52.1831L93.6918 54.6875C95.0854 54.8906 95.6414 56.6108 94.633 57.5982L82.2206 69.7539C81.4201 70.5381 81.0548 71.6675 81.2435 72.7751L84.1734 89.939C84.4114 91.3332 82.9551 92.3965 81.7087 91.7382L66.3658 83.6342C65.3759 83.1116 64.1935 83.1116 63.2037 83.6342L47.8607 91.7382C46.6143 92.3965 45.158 91.3332 45.396 89.939L48.3259 72.7751C48.5147 71.6675 48.1493 70.5381 47.3489 69.7539L34.9364 57.5982C33.928 56.6108 34.4841 54.8906 35.8777 54.6875L53.032 52.1831C54.1389 52.0217 55.0955 51.323 55.5901 50.3157L63.2612 34.6997C63.8845 33.4315 65.685 33.4315 66.3082 34.6997Z" fill="url(#paint2_linear_622_1361)"/>
  <path d="M75.578 51.9223C76.0733 52.9296 77.0299 53.6284 78.1368 53.7897L95.1401 56.2723C95.0902 55.5189 94.5521 54.8131 93.6909 54.6871L76.5372 52.1827C76.1846 52.1312 75.857 52.0085 75.5454 51.8555L75.578 51.9223Z" fill="#E26500"/>
  <path d="M46.9955 91.5447L49.9254 74.3808C50.1141 73.2733 49.7494 72.1438 48.9483 71.3596L47.4978 69.939C48.1824 70.711 48.5011 71.7459 48.3258 72.7738L45.3959 89.9377C45.2129 91.0086 46.0313 91.8757 46.9853 91.9259C46.9789 91.8012 46.9731 91.6765 46.9955 91.5447Z" fill="#E26500"/>
  <path d="M37.4773 56.2945L54.631 53.7901C55.7379 53.6288 56.6945 52.93 57.1897 51.9227L64.8609 36.3068C65.2179 35.5798 65.9601 35.2841 66.6473 35.3901L66.3082 34.6997C65.685 33.4315 63.8845 33.4315 63.2612 34.6997L55.5901 50.3157C55.0949 51.323 54.1383 52.0217 53.0314 52.1831L35.8777 54.6875C34.4841 54.8906 33.928 56.6108 34.9364 57.5982L36.4119 59.0439C35.6032 58.0417 36.1541 56.4874 37.4773 56.2945Z" fill="#E26500"/>
  <mask id="mask0_622_1361" style="mask-type:alpha" maskUnits="userSpaceOnUse" x="0" y="0" width="130" height="129">
    <path d="M64.7871 0C29.2856 0 0.505371 28.7796 0.505371 64.2817C0.505371 99.7832 29.2856 128.563 64.7871 128.563C100.289 128.563 129.069 99.7832 129.069 64.2817C129.069 28.7796 100.289 0 64.7871 0ZM64.7871 115.707C36.3855 115.707 13.3617 92.6833 13.3617 64.2817C13.3617 35.8801 36.3855 12.8563 64.7871 12.8563C93.1887 12.8563 116.212 35.8801 116.212 64.2817C116.212 92.6833 93.1887 115.707 64.7871 115.707Z" fill="#231526"/>
    <path d="M64.7869 17.6777C39.0478 17.6777 18.1826 38.5429 18.1826 64.282C18.1826 90.021 39.0478 110.886 64.7869 110.886C90.5259 110.886 111.391 90.021 111.391 64.282C111.391 38.5429 90.5259 17.6777 64.7869 17.6777Z" fill="#231526"/>
  </mask>
  <g mask="url(#mask0_622_1361)">
    <g opacity="0.5">
      <path d="M66.2168 173.78L33.1612 213.175L-90.9194 109.059L-57.8638 69.6645L66.2168 173.78Z" fill="white"/>
    </g>
  </g>
  <defs>
    <linearGradient id="paint0_linear_622_1361" x1="30.0281" y1="10.26" x2="107.36" y2="112.022" gradientUnits="userSpaceOnUse">
      <stop stop-color="#FFEA00"/>
      <stop offset="0.5" stop-color="#FFC700"/>
      <stop offset="1" stop-color="#FFA500"/>
    </linearGradient>
    <linearGradient id="paint1_linear_622_1361" x1="38.9185" y1="24.7879" x2="96.1571" y2="99.3536" gradientUnits="userSpaceOnUse">
      <stop stop-color="#FFE900"/>
      <stop offset="0.5" stop-color="#FFC700"/>
      <stop offset="1" stop-color="#FFA600"/>
    </linearGradient>
    <linearGradient id="paint2_linear_622_1361" x1="64.6248" y1="33.427" x2="64.6248" y2="91.6167" gradientUnits="userSpaceOnUse">
      <stop stop-color="#FFAD00"/>
      <stop offset="0.5" stop-color="#FF8F00"/>
      <stop offset="1" stop-color="#FF7100"/>
    </linearGradient>
  </defs>
</svg>