<svg width="78" height="67" viewBox="0 0 78 67" fill="none" xmlns="http://www.w3.org/2000/svg">
<g opacity="0.9">
<path d="M69.5846 46.5946L11.0547 15.4736L8.08163 21.0651L8.08447 21.0666C7.08811 22.8713 6.78167 25.046 7.22445 27.4868L7.22565 27.4885C7.69492 30.0813 9.00753 32.9737 11.2289 36.039C11.611 36.565 12.0103 37.0857 12.4319 37.6026C21.374 48.619 38.9152 57.5893 52.6615 57.9592C59.8916 58.1534 64.6957 55.9316 66.6114 52.1865L69.5846 46.5946Z" fill="#FCA711"/>
<path d="M43.6506 32.8087L32.9885 52.8611C32.5704 52.6709 32.1559 52.4738 31.7424 52.2711L42.4344 32.1625L43.6503 32.8091L43.6506 32.8087Z" fill="#F48C0F"/>
<path d="M46.5736 34.363L36.0376 54.1783C35.6414 54.0189 35.2472 53.856 34.8531 53.6889L45.4473 33.7642L46.5736 34.363Z" fill="#F48C0F"/>
<path d="M49.6544 36.0003L39.3417 55.3958C38.9674 55.2714 38.5926 55.14 38.2171 55.0062L48.6162 35.4482L49.6544 36.0003Z" fill="#F48C0F"/>
<path d="M52.7986 37.6725L42.8166 56.4459C42.4642 56.3524 42.1105 56.2534 41.7566 56.1502L51.8496 37.168L52.7986 37.6725Z" fill="#F48C0F"/>
<path d="M55.9218 39.3333L46.3896 57.2608C46.0592 57.1981 45.7262 57.1314 45.3945 57.0592L55.0625 38.8765L55.9218 39.3333Z" fill="#F48C0F"/>
<path d="M58.936 40.9354L49.9763 57.7862C49.668 57.7539 49.3568 57.7185 49.0446 57.6779L58.165 40.5249L58.9362 40.935L58.936 40.9354Z" fill="#F48C0F"/>
<path d="M61.7489 42.4312L53.4857 57.9719C53.2153 57.9727 52.9405 57.9691 52.6618 57.9613C52.6475 57.96 52.6325 57.9608 52.6182 57.9594L61.0674 42.0688L61.7489 42.4312Z" fill="#F48C0F"/>
<path d="M56.8226 57.7799L64.2706 43.7723L63.6768 43.4565L56.0153 57.8657L56.8226 57.7799Z" fill="#F48C0F"/>
<path d="M66.4153 44.9131L59.9021 57.1626C59.6576 57.2347 59.4054 57.3006 59.1484 57.364L65.9111 44.645L66.4153 44.9131Z" fill="#F48C0F"/>
<path d="M68.0922 45.8044L62.6329 56.0719C62.4013 56.1955 62.1611 56.315 61.9131 56.4256L67.6775 45.5844L68.092 45.8048L68.0922 45.8044Z" fill="#F48C0F"/>
<path d="M69.2139 46.4009L64.9602 54.401C64.719 54.6344 64.4612 54.859 64.186 55.0724L68.8887 46.228L69.2139 46.4009Z" fill="#F48C0F"/>
<path d="M40.9706 31.3831L30.2609 51.5252C29.8228 51.3005 29.3881 51.0694 28.9564 50.8336L39.667 30.6899L40.9706 31.3831Z" fill="#F48C0F"/>
<path d="M38.2041 29.9116L27.5121 50.0202C27.1128 49.7907 26.7186 49.5557 26.3262 49.317L36.9883 29.2646L38.2043 29.9112L38.2041 29.9116Z" fill="#F48C0F"/>
<path d="M35.1907 28.3098L24.5974 48.2329C24.2377 48.0012 23.8821 47.7655 23.5285 47.5262L34.0645 27.7109L35.1907 28.3098Z" fill="#F48C0F"/>
<path d="M32.0216 26.6248L21.6233 46.1811C21.3015 45.9462 20.9858 45.7079 20.6706 45.4683L30.9834 26.0728L32.0216 26.6248Z" fill="#F48C0F"/>
<path d="M28.7866 24.9044L18.6944 43.885C18.4113 43.6495 18.1314 43.411 17.8576 43.1696L27.8379 24.3994L28.7868 24.904L28.7866 24.9044Z" fill="#F48C0F"/>
<path d="M25.5749 23.1965L15.9069 41.3793C15.6625 41.1431 15.4212 40.904 15.1853 40.6635L24.7158 22.7393L25.5751 23.1961L25.5749 23.1965Z" fill="#F48C0F"/>
<path d="M22.4743 21.5482L13.3548 38.6996C13.147 38.4617 12.944 38.2237 12.7449 37.9862L21.7029 21.1386L22.4741 21.5486L22.4743 21.5482Z" fill="#F48C0F"/>
<path d="M10.6267 35.1834L18.8896 19.6431L19.5732 20.0065L11.124 35.8971L10.6267 35.1834Z" fill="#F48C0F"/>
<path d="M16.9608 18.616L9.30018 33.0235C9.16684 32.7822 9.03975 32.5446 8.91984 32.3062L16.3672 18.2998L16.961 18.6156L16.9608 18.616Z" fill="#F48C0F"/>
<path d="M7.71046 29.4106L14.2236 17.1611L14.7278 17.4292L7.96588 30.1465L7.71046 29.4106Z" fill="#F48C0F"/>
<path d="M7.08565 26.5346L12.5439 16.269L12.9584 16.4894L7.19405 27.3307L7.08565 26.5346Z" fill="#F48C0F"/>
<path d="M11.7481 15.8453L7.048 24.6848C7.07017 24.339 7.11138 24.0013 7.17002 23.6708L11.4229 15.6724L11.7481 15.8453Z" fill="#F48C0F"/>
<path d="M25.0015 9.71055C23.9606 9.68202 22.9734 9.70539 22.0359 9.77483C13.384 10.4135 9.1167 15.0748 10.3139 21.6773L10.3151 21.679C10.7843 24.2718 12.097 27.1642 14.3183 30.2295C14.7004 30.7555 15.0998 31.2762 15.5214 31.7931C24.4634 42.8095 42.0046 51.7798 55.7509 52.1497C69.4228 52.5174 74.4238 44.2452 67.6116 33.371C67.2516 32.7967 66.8617 32.2173 66.4359 31.6312C57.9445 19.9114 39.3943 10.0983 25.0015 9.71055Z" fill="#FCDA15"/>
<path d="M25.2637 14.2309C27.9377 16.3201 20.181 25.5854 16.5403 23.4293C12.9002 21.2721 10.3141 21.6791 10.3141 21.6791L10.313 21.6775C9.116 15.0746 13.3835 10.4138 22.035 9.77498C22.1082 9.79318 22.1456 9.80272 22.1456 9.80272C22.1456 9.80272 22.5918 12.1417 25.2637 14.2309Z" fill="#FFEF33"/>
<path d="M67.6101 33.3708C74.4223 44.245 69.4213 52.5172 55.7494 52.1495C42.0031 51.7796 24.4623 42.8095 15.5199 31.7929C19.2432 31.2382 24.7743 34.5247 24.7743 34.5247L62.888 35.6782C62.888 35.6782 63.9082 33.7312 67.6101 33.3708Z" fill="#FEB012"/>
<path d="M27.8276 14.8307C16.6392 14.1331 13.187 20.7757 20.1173 29.6679C27.0473 38.5595 41.7355 46.3336 52.9241 47.0308C64.1125 47.7284 67.5647 41.0858 60.6344 32.1936C53.7044 23.302 39.0162 15.5279 27.8276 14.8307Z" fill="#FCDA15"/>
<path d="M23.0965 24.8217C26.6154 25.1062 29.6263 23.3774 29.8217 20.9605C30.0171 18.5436 27.3229 16.3537 23.8041 16.0693C20.2852 15.7848 17.2742 17.5135 17.0789 19.9304C16.8835 22.3473 19.5777 24.5372 23.0965 24.8217Z" fill="#FFEF33"/>
<path d="M27.8276 14.83C16.6382 14.1313 13.1875 20.7742 20.1187 29.6674C20.3497 29.9638 20.5878 30.2578 20.8373 30.5516C14.921 22.1685 18.5235 16.0442 29.288 16.7165C40.1049 17.3907 54.1906 24.6771 61.3757 33.1943C61.1457 32.8647 60.8974 32.5306 60.6346 32.1935C53.7046 23.2999 39.0172 15.5272 27.8276 14.83Z" fill="#FFAE12"/>
<path d="M59.9139 31.3078C62.7703 35.3548 63.4094 38.8758 62.0915 41.3583C60.9809 43.4577 58.4749 44.8163 54.7319 45.1253C53.7296 45.2085 52.6385 45.2159 51.4613 45.1425C40.6461 44.4681 26.5601 37.1821 19.3755 28.6651C19.6055 28.9946 19.8538 29.3288 20.1165 29.6659C27.0463 38.5589 41.7338 46.3315 52.9218 47.0289C54.3463 47.1185 55.6468 47.0886 56.8133 46.9492C60.6286 46.4962 63.0506 44.8873 63.8837 42.4854L63.8825 42.4837C64.7982 39.8464 63.7974 36.2533 60.6323 32.1913C60.4014 31.8955 60.1634 31.6016 59.9139 31.3078Z" fill="#FFD00D"/>
<path d="M63.8828 42.4846L63.884 42.4863C63.0511 44.8878 60.6292 46.4967 56.8136 46.9501C54.9393 46.1256 54.7489 45.3268 54.7319 45.126C58.4748 44.817 60.9808 43.4584 62.0914 41.359C62.0914 41.359 63.3636 41.5479 63.8828 42.4846Z" fill="#FFEF33"/>
<path d="M18.1171 13.0516C19.6856 14.0995 19.7943 15.9094 18.3604 17.0938C16.9258 18.2784 14.4916 18.3889 12.9232 17.3409C11.3548 16.293 11.246 14.4831 12.68 13.2987C14.1139 12.1144 16.5487 12.0036 18.1171 13.0516Z" fill="#FCFDAF"/>
<g filter="url(#filter0_d_1_1963)">
<path d="M40.7224 34.8397L32.6738 33.2263C32.3155 33.1602 31.9727 33.0312 31.6455 32.8394C31.3182 32.6477 31.0549 32.4366 30.8555 32.2061C30.6561 31.9757 30.5253 31.7508 30.4631 31.5314C30.4008 31.3121 30.4596 31.1343 30.6393 30.9981L34.5684 28.0484L29.8232 22.1395C29.6107 21.8665 29.5123 21.6318 29.528 21.4354C29.5437 21.239 29.6471 21.0943 29.8383 21.0011C30.0295 20.908 30.2631 20.8722 30.5392 20.8939C30.8152 20.9155 31.1551 21.0163 31.5589 21.1961L39.8614 25.1574L44.9656 23.1258C45.1935 23.0337 45.4762 23.024 45.8137 23.0969C46.1513 23.1697 46.4729 23.2874 46.7785 23.4499C47.0841 23.6124 47.3615 23.8132 47.6107 24.0523C47.8598 24.2914 48.0099 24.5312 48.0609 24.7716L49.2309 30.1393L57.1577 34.8072C57.5333 35.0425 57.8069 35.268 57.9784 35.4836C58.1499 35.6992 58.2509 35.9129 58.2814 36.1246C58.3119 36.3363 58.2502 36.5036 58.0962 36.6265C57.9421 36.7493 57.6921 36.7984 57.3461 36.7737L49.7939 36.144L49.5456 41.0508C49.5335 41.2754 49.419 41.4235 49.2021 41.4952C48.9851 41.5668 48.7255 41.5841 48.4233 41.5471C48.121 41.5101 47.7988 41.4098 47.4565 41.2463C47.1142 41.0828 46.8156 40.8707 46.5607 40.6101L40.7224 34.8397Z" fill="#FCF07D"/>
</g>
</g>
<defs>
<filter id="filter0_d_1_1963" x="29.5264" y="20.8877" width="30.9229" height="20.6782" filterUnits="userSpaceOnUse" color-interpolation-filters="sRGB">
<feFlood flood-opacity="0" result="BackgroundImageFix"/>
<feColorMatrix in="SourceAlpha" type="matrix" values="0 0 0 0 0 0 0 0 0 0 0 0 0 0 0 0 0 0 127 0" result="hardAlpha"/>
<feOffset dx="2.16019"/>
<feComposite in2="hardAlpha" operator="out"/>
<feColorMatrix type="matrix" values="0 0 0 0 0.835294 0 0 0 0 0.411765 0 0 0 0 0.129412 0 0 0 1 0"/>
<feBlend mode="normal" in2="BackgroundImageFix" result="effect1_dropShadow_1_1963"/>
<feBlend mode="normal" in="SourceGraphic" in2="effect1_dropShadow_1_1963" result="shape"/>
</filter>
</defs>
</svg>
