<svg width="94" height="87" viewBox="0 0 94 87" fill="none" xmlns="http://www.w3.org/2000/svg">
<g opacity="0.9">
<path d="M77.5287 16.3236L11.8594 64.0352L16.4174 70.3087L16.4206 70.3064C17.8719 72.3717 20.1008 73.8763 23.0248 74.6992L23.0273 74.6988C26.1328 75.5741 30.0208 75.6821 34.5867 74.8827C35.3707 74.7445 36.1582 74.5845 36.9534 74.398C53.8778 70.47 73.1663 55.9797 80.9523 41.0493C85.0471 33.1962 85.1806 26.7163 82.0871 22.5976L77.5287 16.3236Z" fill="#FCA711"/>
<path d="M48.4356 37.4648L64.7816 59.9632C64.3479 60.3213 63.9085 60.6716 63.4634 61.0179L47.0716 38.4565L48.4359 37.4653L48.4356 37.4648Z" fill="#F48C0F"/>
<path d="M51.7149 35.0824L67.8676 57.3147C67.4795 57.6651 67.0886 58.0115 66.6931 58.3556L50.4512 36.0005L51.7149 35.0824Z" fill="#F48C0F"/>
<path d="M55.1698 32.5716L70.9803 54.333C70.6425 54.6782 70.2967 55.0201 69.9478 55.3615L54.0049 33.418L55.1698 32.5716Z" fill="#F48C0F"/>
<path d="M58.6985 30.0082L74.0019 51.0715C73.7098 51.4091 73.4111 51.7453 73.1075 52.0794L57.6338 30.7817L58.6985 30.0082Z" fill="#F48C0F"/>
<path d="M62.2033 27.4621L76.8172 47.5764C76.5708 47.9064 76.3187 48.237 76.0612 48.5633L61.2393 28.1626L62.2033 27.4621Z" fill="#F48C0F"/>
<path d="M65.5843 25.0046L79.3206 43.9109C79.1196 44.2328 78.9135 44.5564 78.7013 44.8781L64.7188 25.6328L65.584 25.0042L65.5843 25.0046Z" fill="#F48C0F"/>
<path d="M68.7402 22.7125L81.4085 40.1489C81.2642 40.4469 81.1128 40.7474 80.9545 41.0501C80.9453 41.0651 80.9382 41.082 80.929 41.097L67.9756 23.2681L68.7402 22.7125Z" fill="#F48C0F"/>
<path d="M82.9881 36.3733L71.5696 20.657L70.9033 21.1411L82.6492 37.3079L82.9881 36.3733Z" fill="#F48C0F"/>
<path d="M73.9768 18.9079L83.9622 32.6515C83.9102 32.9594 83.8474 33.2723 83.7792 33.5892L73.4111 19.3188L73.9768 18.9079Z" fill="#F48C0F"/>
<path d="M75.8586 17.5405L84.2284 29.0605C84.2401 29.3817 84.2426 29.7102 84.2313 30.0425L75.3939 17.8789L75.8589 17.541L75.8586 17.5405Z" fill="#F48C0F"/>
<path d="M77.1168 16.6265L83.6382 25.6024C83.7656 25.9932 83.8744 26.3975 83.9616 26.8148L76.752 16.8916L77.1168 16.6265Z" fill="#F48C0F"/>
<path d="M45.4275 39.6502L61.8466 62.2492C61.3642 62.6108 60.8765 62.9651 60.3853 63.3137L43.9648 40.7129L45.4275 39.6502Z" fill="#F48C0F"/>
<path d="M42.3227 41.9052L58.7144 64.4666C58.2476 64.7829 57.7773 65.0907 57.304 65.3944L40.958 42.896L42.3223 41.9048L42.3227 41.9052Z" fill="#F48C0F"/>
<path d="M38.9424 44.3622L55.183 66.7155C54.7349 66.987 54.2846 67.2518 53.8314 67.5126L37.6787 45.2803L38.9424 44.3622Z" fill="#F48C0F"/>
<path d="M35.3865 46.9452L51.3282 68.8869C50.897 69.1151 50.4651 69.3346 50.0322 69.5529L34.2217 47.7915L35.3865 46.9452Z" fill="#F48C0F"/>
<path d="M31.7574 49.5814L47.2298 70.8773C46.8186 71.0624 46.4058 71.2425 45.9932 71.4142L30.6924 50.3545L31.7571 49.5809L31.7574 49.5814Z" fill="#F48C0F"/>
<path d="M28.1539 52.1999L42.9758 72.6006C42.5847 72.7428 42.192 72.88 41.8007 73.0105L27.1895 52.8999L28.1535 52.1995L28.1539 52.1999Z" fill="#F48C0F"/>
<path d="M24.6748 54.7278L38.6561 73.9713C38.2827 74.0722 37.9118 74.1679 37.5435 74.2596L23.8099 55.3569L24.6752 54.7282L24.6748 54.7278Z" fill="#F48C0F"/>
<path d="M33.3222 75.0853L20.6543 57.6494L21.4212 57.0922L34.3747 74.9211L33.3222 75.0853Z" fill="#F48C0F"/>
<path d="M18.4879 59.2219L30.2325 75.3869C29.8952 75.4041 29.5656 75.4165 29.2388 75.4205L17.8213 59.7056L18.4876 59.2215L18.4879 59.2219Z" fill="#F48C0F"/>
<path d="M25.4024 75.1978L15.417 61.4541L15.9827 61.0431L26.3494 75.3117L25.4024 75.1978Z" fill="#F48C0F"/>
<path d="M21.9023 74.34L13.5342 62.8223L13.9992 62.4844L22.8366 74.648L21.9023 74.34Z" fill="#F48C0F"/>
<path d="M12.6412 63.4707L19.8469 73.3885C19.4783 73.1785 19.1287 72.9518 18.7964 72.7099L12.2764 63.7358L12.6412 63.4707Z" fill="#F48C0F"/>
<path d="M13.003 45.592C12.4129 46.7223 11.9087 47.8213 11.4819 48.8904C7.54049 58.7553 10.38 65.954 18.2893 68.1805L18.2917 68.1801C21.3972 69.0554 25.2852 69.1634 29.8512 68.364C30.6352 68.2259 31.4226 68.0658 32.2178 67.8793C49.1423 63.9514 68.4307 49.461 76.2167 34.5307C83.9603 19.681 77.5406 9.73658 61.9159 11.3968C61.0906 11.4847 60.2436 11.6028 59.3701 11.7569C41.9133 14.8112 21.1557 29.9597 13.003 45.592Z" fill="#FCDA15"/>
<path d="M18.1191 47.7305C21.8539 45.909 27.8873 59.4194 23.5601 62.2689C19.232 65.1171 18.2917 68.1818 18.2917 68.1818L18.2893 68.1822C10.3797 65.9552 7.54093 58.7567 11.4819 48.8921C11.5412 48.8213 11.5718 48.7852 11.5718 48.7852C11.5718 48.7852 14.3856 49.5497 18.1191 47.7305Z" fill="#FFEF33"/>
<path d="M61.9148 11.3991C77.5395 9.73892 83.9592 19.6834 76.2157 34.533C68.4297 49.4634 49.1417 63.9534 32.2168 67.8817C33.6049 63.486 40.191 59.1629 40.191 59.1629L61.9195 17.8347C61.9195 17.8347 60.3244 15.6668 61.9148 11.3991Z" fill="#FEB012"/>
<path d="M20.1545 45.2308C13.3809 57.1701 18.8385 64.5351 32.3452 61.681C45.851 58.8269 62.2916 46.8344 69.0648 34.8946C75.8384 22.9554 70.3807 15.5903 56.8741 18.4444C43.3682 21.2986 26.9277 33.2911 20.1545 45.2308Z" fill="#FCDA15"/>
<path d="M28.6111 55.8007C30.813 52.0806 30.5267 47.8388 27.9715 46.3264C25.4164 44.814 21.56 46.6037 19.3581 50.3238C17.1561 54.0438 17.4424 58.2856 19.9976 59.798C22.5527 61.3104 26.4091 59.5208 28.6111 55.8007Z" fill="#FFEF33"/>
<path d="M62.6382 17.8336C71.7958 18.023 74.7703 24.8355 69.0625 34.8951L69.006 34.9937C63.2356 45.0863 50.5842 55.1978 38.6599 59.7789C33.6778 58.7207 33.7945 51.2654 39.5197 41.2021C45.283 31.0731 54.879 21.5555 62.6382 17.8336Z" fill="#FCA711"/>
<path d="M20.1543 45.2302C13.379 57.17 18.8377 64.5336 32.346 61.679C32.7963 61.5839 33.2476 61.4796 33.7049 61.3628C21.3028 63.3742 16.4963 56.1219 23.0145 44.6355C29.5628 33.0926 45.1432 21.5013 58.374 18.1656C57.8878 18.2418 57.3868 18.3357 56.8747 18.4439C43.3666 21.2969 26.9281 33.2894 20.1543 45.2302Z" fill="#FFAE12"/>
<path d="M55.5138 18.7609C61.5012 17.7896 65.7194 18.9763 67.7441 21.7593C69.4586 24.1086 69.6086 27.5958 67.9395 31.8811C67.493 33.029 66.9155 34.2339 66.2027 35.4899C59.6551 47.031 44.075 58.6227 30.8447 61.9581C31.3309 61.8819 31.8319 61.788 32.344 61.6798C45.8513 58.8266 62.2898 46.8342 69.0629 34.8953C69.9261 33.3754 70.5914 31.9281 71.0641 30.5695C72.6136 26.1272 72.1429 22.598 69.9466 20.3918L69.9441 20.3923C67.533 17.9688 63.0414 17.1415 56.8719 18.4446C56.4224 18.5398 55.9711 18.644 55.5138 18.7609Z" fill="#FFD00D"/>
<path d="M69.9452 20.3924L69.9477 20.392C72.1437 22.5977 72.6143 26.127 71.0652 30.5697C69.1516 32.1899 68.1703 31.9707 67.9402 31.8817C69.6092 27.5963 69.4592 24.1091 67.7448 21.7598C67.7448 21.7598 68.6356 20.461 69.9452 20.3924Z" fill="#FFEF33"/>
<path d="M12.9852 54.9629C14.9804 53.7993 17.0307 54.6511 17.5645 56.8651C18.0981 59.0798 16.9132 61.8182 14.9179 62.9818C12.9226 64.1454 10.8723 63.2937 10.3386 61.0797C9.80479 58.8657 10.9899 56.1266 12.9852 54.9629Z" fill="#FCFDAF"/>
<g filter="url(#filter0_d_1_1920)">
<path d="M49.0993 41.7795L43.0032 49.7715C42.7381 50.1304 42.4122 50.4385 42.0254 50.6957C41.6387 50.9529 41.265 51.1294 40.9044 51.2252C40.5437 51.3209 40.226 51.3442 39.9512 51.2949C39.6764 51.2456 39.5122 51.0855 39.4588 50.8146L38.3216 44.9069L29.2711 46.9576C28.8566 47.045 28.5455 47.0273 28.3377 46.9046C28.13 46.7818 28.0262 46.5903 28.0263 46.3299C28.0264 46.0695 28.1125 45.7932 28.2845 45.501C28.4566 45.2088 28.7499 44.8888 29.1645 44.541L37.981 37.5297L38.4849 30.8216C38.5058 30.5214 38.6469 30.205 38.9083 29.8726C39.1697 29.5402 39.4718 29.2495 39.8147 29.0003C40.1576 28.7512 40.5275 28.5537 40.9244 28.4078C41.3213 28.262 41.6658 28.2255 41.9578 28.2984L48.4933 29.892L57.8858 23.6737C58.3464 23.3865 58.7414 23.2065 59.0708 23.1334C59.4001 23.0604 59.6895 23.0639 59.9389 23.144C60.1883 23.2241 60.3393 23.3819 60.3918 23.6174C60.4443 23.8528 60.3641 24.1543 60.1512 24.5218L55.4042 32.4957L60.6713 35.4028C60.912 35.5367 61.0135 35.7423 60.9759 36.0195C60.9383 36.2967 60.818 36.5917 60.6151 36.9045C60.4121 37.2173 60.1288 37.5181 59.7651 37.8071C59.4014 38.096 59.0077 38.3108 58.584 38.4514L49.0993 41.7795Z" fill="#FCF07D"/>
</g>
</g>
<defs>
<filter id="filter0_d_1_1920" x="28.0264" y="23.0811" width="35.1172" height="28.2388" filterUnits="userSpaceOnUse" color-interpolation-filters="sRGB">
<feFlood flood-opacity="0" result="BackgroundImageFix"/>
<feColorMatrix in="SourceAlpha" type="matrix" values="0 0 0 0 0 0 0 0 0 0 0 0 0 0 0 0 0 0 127 0" result="hardAlpha"/>
<feOffset dx="2.16019"/>
<feComposite in2="hardAlpha" operator="out"/>
<feColorMatrix type="matrix" values="0 0 0 0 0.835294 0 0 0 0 0.411765 0 0 0 0 0.129412 0 0 0 1 0"/>
<feBlend mode="normal" in2="BackgroundImageFix" result="effect1_dropShadow_1_1920"/>
<feBlend mode="normal" in="SourceGraphic" in2="effect1_dropShadow_1_1920" result="shape"/>
</filter>
</defs>
</svg>
