<svg width="130" height="112" viewBox="0 0 130 112" fill="none" xmlns="http://www.w3.org/2000/svg">
<g opacity="0.9">
<path d="M116.846 77.0629L18.0801 24.5483L13.0632 33.9836L13.068 33.9862C11.3867 37.0315 10.8696 40.701 11.6168 44.8198L11.6188 44.8226C12.4107 49.1978 14.6256 54.0786 18.3741 59.2511C19.0188 60.1386 19.6927 61.0173 20.4041 61.8896C35.4932 80.4791 65.0929 95.6158 88.2889 96.2401C100.489 96.5678 108.596 92.8186 111.828 86.4989L116.846 77.0629Z" fill="#FCA711"/>
<path d="M73.0851 53.8005L55.0936 87.6376C54.3881 87.3167 53.6887 86.9842 52.9909 86.6421L71.0328 52.7102L73.0847 53.8012L73.0851 53.8005Z" fill="#F48C0F"/>
<path d="M78.0168 56.4231L60.238 89.8601C59.5695 89.5912 58.9043 89.3162 58.2392 89.0343L76.1162 55.4126L78.0168 56.4231Z" fill="#F48C0F"/>
<path d="M83.2148 59.1859L65.8127 91.9146C65.1811 91.7047 64.5487 91.483 63.915 91.2571L81.4629 58.2544L83.2148 59.1859Z" fill="#F48C0F"/>
<path d="M88.5212 62.0077L71.6772 93.6866C71.0826 93.5287 70.4859 93.3618 69.8886 93.1876L86.9199 61.1562L88.5212 62.0077Z" fill="#F48C0F"/>
<path d="M93.7908 64.8105L77.7058 95.062C77.1483 94.9561 76.5863 94.8436 76.0268 94.7218L92.3408 64.0396L93.7908 64.8105Z" fill="#F48C0F"/>
<path d="M98.8781 67.5134L83.7591 95.9482C83.2389 95.8937 82.7137 95.8339 82.187 95.7654L97.5771 66.8208L98.8785 67.5127L98.8781 67.5134Z" fill="#F48C0F"/>
<path d="M103.624 70.0382L89.6801 96.2622C89.2238 96.2636 88.7601 96.2575 88.2897 96.2443C88.2656 96.242 88.2403 96.2434 88.2162 96.2411L102.474 69.4268L103.624 70.0382Z" fill="#F48C0F"/>
<path d="M95.311 95.9374L107.879 72.3004L106.877 71.7676L93.9487 96.0822L95.311 95.9374Z" fill="#F48C0F"/>
<path d="M111.499 74.2258L100.509 94.8961C100.096 95.0177 99.6704 95.1289 99.2367 95.2358L110.648 73.7734L111.499 74.2258Z" fill="#F48C0F"/>
<path d="M114.328 75.7298L105.116 93.0557C104.725 93.2642 104.32 93.4657 103.902 93.6525L113.629 75.3586L114.328 75.7305L114.328 75.7298Z" fill="#F48C0F"/>
<path d="M116.222 76.7366L109.044 90.2362C108.637 90.6301 108.202 91.0091 107.737 91.3691L115.673 76.4448L116.222 76.7366Z" fill="#F48C0F"/>
<path d="M68.5621 51.3952L50.4901 85.3837C49.7508 85.0046 49.0173 84.6146 48.2889 84.2168L66.3623 50.2256L68.5621 51.3952Z" fill="#F48C0F"/>
<path d="M63.8924 48.912L45.8504 82.8439C45.1766 82.4568 44.5113 82.0602 43.8493 81.6574L61.8408 47.8203L63.8927 48.9113L63.8924 48.912Z" fill="#F48C0F"/>
<path d="M58.8078 46.2098L40.9322 79.8288C40.3252 79.4378 39.7252 79.0401 39.1285 78.6362L56.9072 45.1992L58.8078 46.2098Z" fill="#F48C0F"/>
<path d="M53.4599 43.3661L35.9135 76.3661C35.3705 75.9698 34.8376 75.5676 34.3058 75.1633L51.708 42.4346L53.4599 43.3661Z" fill="#F48C0F"/>
<path d="M48.0023 40.4625L30.9724 72.4911C30.4946 72.0937 30.0222 71.6912 29.5603 71.2838L46.4014 39.6104L48.0027 40.4618L48.0023 40.4625Z" fill="#F48C0F"/>
<path d="M42.5814 37.5812L26.2674 68.2635C25.8549 67.8649 25.4478 67.4614 25.0497 67.0556L41.1318 36.8096L42.5818 37.5805L42.5814 37.5812Z" fill="#F48C0F"/>
<path d="M37.3502 34.7998L21.9615 63.7418C21.611 63.3403 21.2684 62.9386 20.9324 62.5379L36.0485 34.1086L37.3498 34.8005L37.3502 34.7998Z" fill="#F48C0F"/>
<path d="M17.3586 57.8078L31.3018 31.5845L32.4552 32.1978L18.1977 59.0121L17.3586 57.8078Z" fill="#F48C0F"/>
<path d="M28.0466 29.8519L15.1198 54.1637C14.8948 53.7564 14.6803 53.3556 14.478 52.9533L27.0449 29.3184L28.047 29.8512L28.0466 29.8519Z" fill="#F48C0F"/>
<path d="M12.4362 48.0667L23.4268 27.3965L24.2775 27.8488L12.8672 49.3085L12.4362 48.0667Z" fill="#F48C0F"/>
<path d="M11.3832 43.2136L20.5938 25.8911L21.2932 26.263L11.5661 44.5569L11.3832 43.2136Z" fill="#F48C0F"/>
<path d="M19.2509 25.1765L11.3199 40.0927C11.3573 39.5092 11.4268 38.9393 11.5258 38.3816L18.7021 24.8848L19.2509 25.1765Z" fill="#F48C0F"/>
<path d="M41.6142 14.8239C39.8577 14.7757 38.192 14.8152 36.61 14.9324C22.0105 16.01 14.8097 23.8757 16.8298 35.017L16.8318 35.0199C17.6237 39.395 19.8387 44.2759 23.5871 49.4483C24.2318 50.3359 24.9057 51.2145 25.6171 52.0868C40.7063 70.6763 70.3059 85.8131 93.5019 86.4373C116.572 87.0577 125.011 73.099 113.516 54.7494C112.909 53.7802 112.251 52.8025 111.532 51.8137C97.2035 32.0371 65.9012 15.4782 41.6142 14.8239Z" fill="#FCDA15"/>
<path d="M42.0556 22.4513C46.5679 25.9767 33.4788 41.6112 27.3354 37.9731C21.1931 34.3329 16.8292 35.0197 16.8292 35.0197L16.8272 35.0169C14.8074 23.8749 22.0085 16.0102 36.6073 14.9322C36.7309 14.9629 36.794 14.979 36.794 14.979C36.794 14.979 37.5469 18.9259 42.0556 22.4513Z" fill="#FFEF33"/>
<path d="M113.513 54.7487C125.008 73.0982 116.569 87.057 93.499 86.4366C70.303 85.8124 40.7041 70.6759 25.6143 52.0861C31.8971 51.15 41.2304 56.6958 41.2304 56.6958L105.545 58.6422C105.545 58.6422 107.266 55.3569 113.513 54.7487Z" fill="#FEB012"/>
<path d="M46.3821 23.4632C27.5025 22.286 21.6772 33.495 33.3715 48.5C45.0655 63.5039 69.851 76.6222 88.731 77.7987C107.611 78.9759 113.436 67.7669 101.742 52.7619C90.0476 37.758 65.2622 24.6397 46.3821 23.4632Z" fill="#FCDA15"/>
<path d="M38.3993 40.3224C44.3371 40.8024 49.4179 37.8853 49.7476 33.8069C50.0773 29.7285 45.531 26.0332 39.5932 25.5532C33.6554 25.0732 28.5745 27.9903 28.2448 32.0687C27.9152 36.1471 32.4615 39.8424 38.3993 40.3224Z" fill="#FFEF33"/>
<path d="M105.979 59.5326C111.277 70.9894 104.636 78.789 88.728 77.7965L88.5718 77.786C72.5854 76.7359 52.4188 67.1744 39.5413 55.1726C37.8423 48.3625 47.1467 44.0033 63.0695 45.0153C79.0968 46.0346 96.6821 52.1706 105.979 59.5326Z" fill="#FCA711"/>
<path d="M46.3822 23.4624C27.5008 22.2835 21.6779 33.4929 33.3739 48.4996C33.7638 48.9998 34.1655 49.4959 34.5865 49.9917C24.6031 35.8457 30.6821 25.5114 48.8465 26.6458C67.0993 27.7834 90.8682 40.0787 102.992 54.4511C102.604 53.8949 102.185 53.3311 101.742 52.7622C90.0481 37.7548 65.264 24.639 46.3822 23.4624Z" fill="#FFAE12"/>
<path d="M100.526 51.2681C105.346 58.0973 106.425 64.0387 104.201 68.2278C102.327 71.7704 98.098 74.0628 91.782 74.5843C90.0906 74.7247 88.2493 74.7373 86.263 74.6132C68.013 73.4753 44.2438 61.1807 32.1202 46.8087C32.5083 47.3648 32.9273 47.9286 33.3707 48.4975C45.0643 63.5039 69.8484 76.6198 88.7274 77.7966C91.1313 77.9476 93.3258 77.8973 95.2942 77.662C101.732 76.8976 105.819 74.1827 107.225 70.1296L107.223 70.1267C108.768 65.6765 107.079 59.6134 101.738 52.7591C101.349 52.2599 100.947 51.7639 100.526 51.2681Z" fill="#FFD00D"/>
<path d="M107.224 70.1277L107.226 70.1305C105.82 74.183 101.733 76.8979 95.2948 77.6629C92.1321 76.2716 91.8108 74.9238 91.782 74.5849C98.098 74.0634 102.327 71.771 104.201 68.2283C104.201 68.2283 106.348 68.547 107.224 70.1277Z" fill="#FFEF33"/>
<path d="M29.9962 20.4618C32.6428 22.2301 32.8264 25.2842 30.4067 27.2827C27.9859 29.2816 23.8783 29.4682 21.2317 27.6998C18.5851 25.9314 18.4016 22.8774 20.8213 20.8788C23.2411 18.8803 27.3496 18.6934 29.9962 20.4618Z" fill="#FCFDAF"/>
<g filter="url(#filter0_d_1_2005)">
<path d="M68.141 57.2277L54.5595 54.5051C53.9549 54.3936 53.3765 54.176 52.8242 53.8524C52.272 53.5288 51.8277 53.1725 51.4912 52.7837C51.1547 52.3948 50.934 52.0153 50.829 51.6452C50.724 51.2751 50.8232 50.9751 51.1265 50.7452L57.7566 45.7679L49.7493 35.7969C49.3907 35.3362 49.2246 34.9402 49.2511 34.6088C49.2777 34.2774 49.4522 34.0331 49.7748 33.8759C50.0974 33.7187 50.4916 33.6584 50.9575 33.695C51.4233 33.7315 51.9969 33.9015 52.6781 34.205L66.6881 40.8894L75.3012 37.4612C75.6856 37.3058 76.1627 37.2895 76.7323 37.4124C77.3019 37.5353 77.8446 37.7339 78.3603 38.0081C78.876 38.2823 79.3441 38.6211 79.7645 39.0246C80.1849 39.4281 80.4382 39.8327 80.5243 40.2384L82.4985 49.296L95.8745 57.1729C96.5084 57.5699 96.9701 57.9504 97.2595 58.3142C97.5489 58.678 97.7193 59.0386 97.7708 59.3958C97.8222 59.7531 97.718 60.0354 97.4581 60.2427C97.1982 60.45 96.7763 60.5328 96.1925 60.4911L83.4486 59.4285L83.0297 67.7085C83.0092 68.0875 82.8159 68.3374 82.4499 68.4583C82.0838 68.5792 81.6458 68.6084 81.1358 68.546C80.6257 68.4835 80.0819 68.3144 79.5043 68.0384C78.9268 67.7625 78.4229 67.4047 77.9928 66.9648L68.141 57.2277Z" fill="#FCF07D"/>
</g>
</g>
<defs>
<filter id="filter0_d_1_2005" x="49.248" y="33.6846" width="50.6953" height="34.8931" filterUnits="userSpaceOnUse" color-interpolation-filters="sRGB">
<feFlood flood-opacity="0" result="BackgroundImageFix"/>
<feColorMatrix in="SourceAlpha" type="matrix" values="0 0 0 0 0 0 0 0 0 0 0 0 0 0 0 0 0 0 127 0" result="hardAlpha"/>
<feOffset dx="2.16019"/>
<feComposite in2="hardAlpha" operator="out"/>
<feColorMatrix type="matrix" values="0 0 0 0 0.835294 0 0 0 0 0.411765 0 0 0 0 0.129412 0 0 0 1 0"/>
<feBlend mode="normal" in2="BackgroundImageFix" result="effect1_dropShadow_1_2005"/>
<feBlend mode="normal" in="SourceGraphic" in2="effect1_dropShadow_1_2005" result="shape"/>
</filter>
</defs>
</svg>
