<svg width="126" height="150" viewBox="0 0 126 150" fill="none" xmlns="http://www.w3.org/2000/svg">
<g opacity="0.9">
<path d="M39.9874 135.659L96.6396 19.5044L85.5432 14.0923L85.5404 14.0979C81.9565 12.2794 77.6987 11.8303 72.9732 12.8591L72.97 12.8616C67.9503 13.9523 62.4041 16.7065 56.583 21.243C55.5842 22.0232 54.5969 22.8368 53.6184 23.6934C32.763 41.8651 16.4792 76.6518 16.6937 103.46C16.8072 117.56 21.4629 126.769 28.8902 130.246L39.9874 135.659Z" fill="#FCA711"/>
<path d="M65.0838 84.1939L25.2893 64.7848C25.6314 63.9573 25.9871 63.1364 26.354 62.3169L66.2599 81.7804L65.083 84.1935L65.0838 84.1939Z" fill="#F48C0F"/>
<path d="M62.2555 89.9935L22.9317 70.8139C23.2151 70.0312 23.5059 69.2521 23.8046 68.4728L63.3457 87.7583L62.2555 89.9935Z" fill="#F48C0F"/>
<path d="M59.2734 96.1068L20.7825 77.3335C20.9994 76.5958 21.2299 75.8567 21.4651 75.1159L60.2783 94.0464L59.2734 96.1068Z" fill="#F48C0F"/>
<path d="M56.2299 102.347L18.9736 84.176C19.132 83.4831 19.3006 82.7873 19.4777 82.0906L57.1484 100.464L56.2299 102.347Z" fill="#F48C0F"/>
<path d="M53.2074 108.545L17.6299 91.1928C17.7296 90.5447 17.8368 89.8914 17.9549 89.2404L54.0391 106.84L53.2074 108.545Z" fill="#F48C0F"/>
<path d="M50.2908 114.527L16.8499 98.2169C16.8918 97.6141 16.9397 97.0053 16.9975 96.3944L51.0381 112.997L50.2916 114.528L50.2908 114.527Z" fill="#F48C0F"/>
<path d="M47.5669 120.108L16.7259 105.066C16.706 104.539 16.6943 104.004 16.6905 103.46C16.6922 103.432 16.6896 103.403 16.6913 103.375L48.2266 118.756L47.5669 120.108Z" fill="#F48C0F"/>
<path d="M17.3279 111.555L45.1264 125.113L45.7012 123.935L17.1058 109.988L17.3279 111.555Z" fill="#F48C0F"/>
<path d="M43.0491 129.371L18.7397 117.515C18.5826 117.043 18.437 116.556 18.296 116.06L43.5371 128.371L43.0491 129.371Z" fill="#F48C0F"/>
<path d="M41.4269 132.699L21.0507 122.761C20.7942 122.318 20.5451 121.858 20.3126 121.383L41.8273 131.876L41.4261 132.699L41.4269 132.699Z" fill="#F48C0F"/>
<path d="M40.3405 134.925L24.4642 127.182C23.993 126.728 23.5378 126.241 23.1034 125.719L40.6553 134.28L40.3405 134.925Z" fill="#F48C0F"/>
<path d="M67.6796 78.8737L27.7071 59.3778C28.115 58.5089 28.5357 57.6463 28.9657 56.7892L68.9414 76.2866L67.6796 78.8737Z" fill="#F48C0F"/>
<path d="M70.3584 73.383L30.4524 53.9195C30.8722 53.1259 31.3033 52.3418 31.7416 51.5611L71.5361 70.9702L70.3592 73.3834L70.3584 73.383Z" fill="#F48C0F"/>
<path d="M73.2741 67.4026L33.7362 48.1187C34.1631 47.402 34.5981 46.6932 35.0404 45.9879L74.3643 65.1675L73.2741 67.4026Z" fill="#F48C0F"/>
<path d="M76.3418 61.1136L37.5318 42.1847C37.9674 41.5417 38.4104 40.9103 38.8558 40.2799L77.3467 59.0532L76.3418 61.1136Z" fill="#F48C0F"/>
<path d="M79.4733 54.6943L41.8057 36.3226C42.2453 35.755 42.6909 35.1933 43.1427 34.6435L80.3926 52.8115L79.4741 54.6947L79.4733 54.6943Z" fill="#F48C0F"/>
<path d="M82.5825 48.3196L46.4983 30.7201C46.9419 30.2279 47.3915 29.7415 47.8439 29.2656L83.415 46.6147L82.5833 48.32L82.5825 48.3196Z" fill="#F48C0F"/>
<path d="M85.5826 42.1672L51.5452 25.566C51.9947 25.1451 52.4446 24.7334 52.8938 24.3292L86.3283 40.6363L85.5818 42.1668L85.5826 42.1672Z" fill="#F48C0F"/>
<path d="M58.2116 20.0124L89.0518 35.0542L88.3902 36.4107L56.8549 21.0299L58.2116 20.0124Z" fill="#F48C0F"/>
<path d="M90.9205 31.2245L62.3283 17.2792C62.7895 17.0029 63.2437 16.7392 63.7 16.4893L91.4961 30.0464L90.9213 31.2249L90.9205 31.2245Z" fill="#F48C0F"/>
<path d="M69.2599 13.934L93.5693 25.7905L93.0813 26.7911L67.8435 14.4817L69.2599 13.934Z" fill="#F48C0F"/>
<path d="M74.8211 12.5242L95.1934 22.4604L94.7922 23.283L73.2775 12.7896L74.8211 12.5242Z" fill="#F48C0F"/>
<path d="M95.9636 20.8817L78.4213 12.3258C79.0965 12.3454 79.7573 12.4028 80.4052 12.4945L96.2783 20.2363L95.9636 20.8817Z" fill="#F48C0F"/>
<path d="M108.818 46.2851C108.802 44.2552 108.69 42.3335 108.491 40.5115C106.658 23.6981 97.2853 15.701 84.5028 18.4828L84.4996 18.4852C79.4799 19.5759 73.9337 22.3302 68.1126 26.8667C67.1138 27.6469 66.1265 28.4605 65.148 29.317C44.2926 47.4888 28.0088 82.2755 28.2233 109.083C28.4372 135.746 44.8945 144.927 65.6178 130.914C66.7123 130.174 67.8147 129.375 68.9275 128.505C91.1841 111.164 109.041 74.3538 108.818 46.2851Z" fill="#FCDA15"/>
<path d="M100.028 47.1025C96.139 52.4545 77.5593 37.972 81.5123 30.732C85.4677 23.4932 84.4987 18.4822 84.4987 18.4822L84.5019 18.4798C97.2852 15.6985 106.656 23.6959 108.49 40.5085C108.459 40.6525 108.443 40.726 108.443 40.726C108.443 40.726 103.916 41.7544 100.028 47.1025Z" fill="#FFEF33"/>
<path d="M65.618 130.91C44.8947 144.923 28.4374 135.742 28.2235 109.079C28.009 82.2714 44.2924 47.4856 65.1482 29.313C66.4824 36.5296 60.4554 47.5296 60.4554 47.5296L60.8011 121.867C60.8011 121.867 64.6639 123.722 65.618 130.91Z" fill="#FEB012"/>
<path d="M99.0348 52.1377C99.6327 30.2913 86.4557 24.0173 69.6022 38.1248C52.7498 52.2319 38.6025 81.3787 38.0053 103.225C37.4074 125.072 50.5844 131.346 67.4379 117.238C84.2903 103.131 98.4376 73.9844 99.0348 52.1377Z" fill="#FCDA15"/>
<path d="M79.247 43.6009C78.9322 50.4762 82.5052 56.225 87.2275 56.4412C91.9498 56.6574 96.0332 51.2592 96.348 44.3839C96.6628 37.5086 93.0898 31.7598 88.3675 31.5436C83.6452 31.3273 79.5618 36.7256 79.247 43.6009Z" fill="#FFEF33"/>
<path d="M59.7911 122.406C46.7764 128.984 37.503 121.631 38.0076 103.224L38.0134 103.043C38.5813 84.5421 48.8082 60.8719 62.1465 45.5193C69.941 43.283 75.3493 53.8503 74.823 72.276C74.2922 90.8225 67.9166 111.374 59.7911 122.406Z" fill="#FCA711"/>
<path d="M99.0353 52.1387C99.6353 30.2904 86.4579 24.0191 69.6023 38.1287C69.0405 38.599 68.484 39.0828 67.9285 39.5889C83.8592 27.4915 96.0365 34.0937 95.4592 55.1125C94.8816 76.2334 81.6435 104.173 65.5377 118.752C66.1642 118.281 66.7983 117.775 67.4373 117.24C84.2936 103.133 98.4382 73.9875 99.0353 52.1387Z" fill="#FFAE12"/>
<path d="M69.1137 115.777C61.423 121.618 54.6064 123.102 49.6799 120.703C45.5139 118.682 42.6965 113.892 41.8397 106.621C41.6095 104.673 41.5207 102.548 41.5838 100.25C42.1618 79.1319 55.3991 51.1917 71.5044 36.6141C70.878 37.0846 70.2439 37.5911 69.6049 38.126C52.7497 52.2327 38.6052 81.3778 38.0076 103.223C37.9301 106.005 38.0768 108.537 38.4278 110.8C39.57 118.203 42.8695 122.812 47.606 124.272L47.6091 124.269C52.8098 125.874 59.7423 123.68 67.4411 117.237C68.0017 116.767 68.5582 116.283 69.1137 115.777Z" fill="#FFD00D"/>
<path d="M47.6078 124.27L47.6046 124.272C42.8689 122.813 39.5694 118.203 38.4265 110.8C39.9054 107.092 41.4487 106.667 41.8388 106.62C42.6956 113.892 45.513 118.682 49.679 120.703C49.679 120.703 49.3975 123.194 47.6078 124.27Z" fill="#FFEF33"/>
<path d="M101.839 33.0984C99.9043 36.2255 96.3855 36.5606 93.9803 33.8473C91.5747 31.1327 91.1937 26.3976 93.1288 23.2705C95.0639 20.1434 98.5827 19.8083 100.988 22.5216C103.393 25.2349 103.774 29.9712 101.839 33.0984Z" fill="#FCFDAF"/>
<g filter="url(#filter0_d_1_2090)">
<path d="M60.9272 78.6239L63.5232 62.8326C63.6276 62.13 63.8555 61.4534 64.2069 60.8027C64.5582 60.1521 64.9516 59.6246 65.387 59.2205C65.8225 58.8163 66.2517 58.5461 66.6749 58.41C67.098 58.2739 67.4484 58.3762 67.726 58.7171L73.7403 66.1718L84.9302 56.5244C85.4475 56.0917 85.8981 55.884 86.2818 55.9012C86.6655 55.9185 86.9546 56.1102 87.1491 56.4763C87.3436 56.8425 87.4292 57.2952 87.4057 57.8346C87.3823 58.3739 87.2092 59.043 86.8863 59.8418L79.7332 76.2876L84.0387 86.0942C84.2337 86.5318 84.2718 87.082 84.1528 87.7446C84.0338 88.4072 83.8265 89.0418 83.5306 89.6483C83.2348 90.2549 82.8624 90.809 82.4135 91.3107C81.9646 91.8124 81.5076 92.1211 81.0427 92.2369L70.6642 94.8816L62.1087 110.643C61.6759 111.391 61.2552 111.94 60.8468 112.288C60.4384 112.637 60.029 112.849 59.6185 112.922C59.2081 112.996 58.8779 112.887 58.6281 112.596C58.3782 112.304 58.2656 111.82 58.2902 111.144L59.0033 96.3871L49.4262 96.2372C48.9877 96.2289 48.6914 96.0158 48.537 95.598C48.3827 95.1803 48.3313 94.6757 48.3828 94.0843C48.4344 93.4929 48.6078 92.8582 48.9031 92.1801C49.1984 91.5021 49.5913 90.9059 50.0817 90.3916L60.9272 78.6239Z" fill="#FCF07D"/>
</g>
</g>
<defs>
<filter id="filter0_d_1_2090" x="48.3633" y="55.9004" width="41.2061" height="57.0444" filterUnits="userSpaceOnUse" color-interpolation-filters="sRGB">
<feFlood flood-opacity="0" result="BackgroundImageFix"/>
<feColorMatrix in="SourceAlpha" type="matrix" values="0 0 0 0 0 0 0 0 0 0 0 0 0 0 0 0 0 0 127 0" result="hardAlpha"/>
<feOffset dx="2.16019"/>
<feComposite in2="hardAlpha" operator="out"/>
<feColorMatrix type="matrix" values="0 0 0 0 0.835294 0 0 0 0 0.411765 0 0 0 0 0.129412 0 0 0 1 0"/>
<feBlend mode="normal" in2="BackgroundImageFix" result="effect1_dropShadow_1_2090"/>
<feBlend mode="normal" in="SourceGraphic" in2="effect1_dropShadow_1_2090" result="shape"/>
</filter>
</defs>
</svg>
