<svg width="118" height="76" viewBox="0 0 118 76" fill="none" xmlns="http://www.w3.org/2000/svg">
<g opacity="0.9">
<path d="M3.35968 48.1115L114.793 38.3623L113.862 27.7168L113.856 27.7173C113.608 24.2476 112.043 20.8884 109.173 17.8411L109.17 17.8398C106.123 14.6018 101.607 11.7147 95.6459 9.41824C94.6219 9.025 93.5781 8.65517 92.5064 8.31105C69.727 0.938727 36.6586 4.36507 16.8648 16.475C6.45412 22.845 1.69737 30.4045 2.42825 37.4652L3.35968 48.1115Z" fill="#FCA711"/>
<path d="M52.7298 43.788L49.3898 5.61089C50.1563 5.49578 50.9239 5.39373 51.6954 5.30066L55.0449 43.5847L52.7298 43.7872L52.7298 43.788Z" fill="#F48C0F"/>
<path d="M47.1653 44.2745L43.8647 6.5489C44.5718 6.41031 45.2795 6.27865 45.9908 6.15287L49.3096 44.0869L47.1653 44.2745Z" fill="#F48C0F"/>
<path d="M41.3007 44.7882L38.07 7.86167C38.7141 7.69372 39.3652 7.53522 40.0196 7.37954L43.2773 44.6152L41.3007 44.7882Z" fill="#F48C0F"/>
<path d="M35.3134 45.3119L32.1864 9.56981C32.7711 9.37838 33.3625 9.19334 33.9583 9.01411L37.1201 45.1538L35.3134 45.3119Z" fill="#F48C0F"/>
<path d="M29.368 45.8316L26.3818 11.7001C26.9071 11.4852 27.4396 11.2735 27.9753 11.0709L31.0039 45.6885L29.368 45.8316Z" fill="#F48C0F"/>
<path d="M23.6284 46.3352L20.8216 14.2534C21.2875 14.0158 21.7605 13.7799 22.2396 13.5504L25.0967 46.2075L23.6284 46.336L23.6284 46.3352Z" fill="#F48C0F"/>
<path d="M18.2738 46.8025L15.6852 17.215C16.0672 16.9653 16.4594 16.7179 16.8611 16.4727C16.8826 16.4615 16.9029 16.4466 16.9244 16.4354L19.5713 46.689L18.2738 46.8025Z" fill="#F48C0F"/>
<path d="M11.1397 20.5538L13.4729 47.2225L14.6035 47.1235L12.2034 19.6903L11.1397 20.5538Z" fill="#F48C0F"/>
<path d="M9.38875 47.5796L7.34839 24.2582C7.62826 23.9314 7.92456 23.6063 8.23008 23.2804L10.3486 47.4956L9.38875 47.5796Z" fill="#F48C0F"/>
<path d="M6.19623 47.8591L4.48599 28.311C4.70008 27.9233 4.93026 27.5335 5.17949 27.149L6.98528 47.7893L6.19616 47.8583L6.19623 47.8591Z" fill="#F48C0F"/>
<path d="M4.06052 48.0459L2.72798 32.8149C2.85484 32.2628 3.01324 31.708 3.20651 31.1532L4.67969 47.9917L4.06052 48.0459Z" fill="#F48C0F"/>
<path d="M57.8335 43.3412L54.4785 4.99331C55.305 4.9086 56.1325 4.83619 56.9602 4.77309L60.3154 43.124L57.8335 43.3412Z" fill="#F48C0F"/>
<path d="M63.1028 42.8805L59.7534 4.59646C60.5294 4.55415 61.3033 4.52442 62.0779 4.50161L65.418 42.6787L63.1029 42.8813L63.1028 42.8805Z" fill="#F48C0F"/>
<path d="M68.8381 42.378L65.5196 4.44706C66.2416 4.44434 66.9614 4.45111 67.6819 4.46481L70.9824 42.1904L68.8381 42.378Z" fill="#F48C0F"/>
<path d="M74.872 41.8502L71.6146 4.61756C72.2858 4.65415 72.9518 4.7013 73.618 4.75074L76.8486 41.6772L74.872 41.8502Z" fill="#F48C0F"/>
<path d="M81.0311 41.3126L77.8696 5.17593C78.4867 5.24905 79.1021 5.32929 79.7114 5.41936L82.8379 41.1553L81.0312 41.3133L81.0311 41.3126Z" fill="#F48C0F"/>
<path d="M87.1472 40.7766L84.1186 6.15903C84.6815 6.26865 85.2428 6.3854 85.7976 6.5089L88.7832 40.6343L87.1473 40.7774L87.1472 40.7766Z" fill="#F48C0F"/>
<path d="M93.0493 40.2603L90.1925 7.60628C90.7051 7.75208 91.2112 7.90234 91.7113 8.05544L94.5175 40.1311L93.0493 40.2595L93.0493 40.2603Z" fill="#F48C0F"/>
<path d="M97.2836 10.0764L99.8721 39.6631L98.5707 39.7769L95.9239 9.52338L97.2836 10.0764Z" fill="#F48C0F"/>
<path d="M103.547 39.3428L101.147 11.9127C101.558 12.1317 101.956 12.3511 102.345 12.5783L104.678 39.2446L103.547 39.3435L103.547 39.3428Z" fill="#F48C0F"/>
<path d="M106.718 15.5643L108.759 38.8857L107.799 38.9697L105.681 14.7576L106.718 15.5643Z" fill="#F48C0F"/>
<path d="M110.244 19.0612L111.954 38.6055L111.165 38.6745L109.359 18.0342L110.244 19.0612Z" fill="#F48C0F"/>
<path d="M113.47 38.4736L111.997 21.6443C112.284 22.154 112.536 22.6699 112.757 23.1915L114.089 38.4194L113.47 38.4736Z" fill="#F48C0F"/>
<path d="M100.352 59.3351C101.852 58.4189 103.227 57.4786 104.49 56.5187C116.147 47.6634 117.902 37.1448 110.14 28.9012L110.137 28.8999C107.09 25.6619 102.574 22.7748 96.6133 20.4784C95.5892 20.0851 94.5454 19.7153 93.4737 19.3712C70.6943 11.9989 37.6259 15.4252 17.8321 27.5351C-1.85426 39.5799 -1.32928 55.8828 18.3053 65.0113C19.3426 65.4933 20.4269 65.9549 21.5681 66.3929C44.3561 75.175 79.6271 72.014 100.352 59.3351Z" fill="#FCDA15"/>
<path d="M95.8277 53.1788C90.1233 52.6797 92.5855 32.4387 99.7193 32.144C106.853 31.8515 110.139 28.8988 110.139 28.8988L110.142 28.9001C117.905 37.1444 116.149 47.6623 104.492 56.5175C104.372 56.5591 104.31 56.58 104.31 56.58C104.31 56.58 101.529 53.6798 95.8277 53.1788Z" fill="#FFEF33"/>
<path d="M18.3081 65.0103C-1.32646 55.8818 -1.85145 39.5788 17.8349 27.5341C37.6287 15.4242 70.6963 11.9979 93.4765 19.3702C88.7171 23.5772 77.869 24.0093 77.869 24.0093L22.8702 57.4051C22.8702 57.4051 23.2158 61.098 18.3081 65.0103Z" fill="#FEB012"/>
<path d="M91.6481 54.6868C108.123 45.3915 106.904 32.8182 88.9237 26.6031C70.9445 20.3887 43.013 22.8859 26.5381 32.182C10.0631 41.4774 11.2825 54.0507 29.2625 60.2658C47.2416 66.4801 75.1732 63.983 91.6481 54.6868Z" fill="#FCDA15"/>
<path d="M89.1605 36.1994C83.9192 39.0308 81.2469 44.2445 83.1916 47.8445C85.1364 51.4445 90.9618 52.0675 96.2031 49.2361C101.444 46.4047 104.117 41.191 102.172 37.591C100.227 33.991 94.4018 33.368 89.1605 36.1994Z" fill="#FFEF33"/>
<path d="M91.6484 54.6873C108.126 45.3925 106.904 32.8202 88.9218 26.6045C88.3224 26.3973 87.7153 26.2001 87.0922 26.0136C103.169 32.4401 103.7 44.418 87.8478 53.3597C71.9202 62.3468 45.2894 64.9805 27.2934 59.5302C27.9217 59.7853 28.5802 60.0299 29.2619 60.2655C47.2429 66.4828 75.172 63.9843 91.6484 54.6873Z" fill="#FFAE12"/>
<path d="M31.095 60.8567C23.3331 57.7545 19.1928 53.3589 18.7764 48.6345C18.4186 44.6427 20.7165 40.417 25.7295 36.5397C27.0716 35.5008 28.609 34.4874 30.3424 33.5096C46.2679 24.5243 72.8986 21.8898 90.8938 27.3401C90.2654 27.0851 89.607 26.8405 88.9253 26.6048C70.9451 20.3882 43.016 22.8867 26.5418 32.182C24.4435 33.3646 22.6305 34.602 21.1078 35.8714C16.1246 40.0189 14.1757 44.5217 15.2043 48.6866L15.2075 48.6879C16.3354 53.2617 21.0538 57.4269 29.2663 60.2665C29.8648 60.473 30.4719 60.6702 31.095 60.8567Z" fill="#FFD00D"/>
<path d="M15.2064 48.6869L15.2031 48.6857C14.1747 44.5216 16.1236 40.0187 21.1067 35.8705C24.517 35.3148 25.5205 36.2702 25.7292 36.5387C20.7162 40.416 18.4183 44.6417 18.776 48.6335C18.776 48.6335 16.8019 49.5355 15.2064 48.6869Z" fill="#FFEF33"/>
<path d="M107.025 48.2796C103.842 48.238 102.025 45.7767 102.966 42.7826C103.907 39.7877 107.251 37.3942 110.433 37.4358C113.616 37.4774 115.434 39.9388 114.493 42.9328C113.552 45.9269 110.208 48.3213 107.025 48.2796Z" fill="#FCFDAF"/>
<g filter="url(#filter0_d_1_2048)">
<path d="M55.0097 38.2201L67.8829 33.1064C68.4508 32.8707 69.0544 32.7381 69.6938 32.7088C70.3332 32.6794 70.8998 32.7362 71.3938 32.879C71.8878 33.0219 72.2796 33.2199 72.5692 33.4732C72.8589 33.7264 72.9391 34.032 72.8099 34.39L69.9603 42.1754L82.1063 46.1767C82.658 46.3677 83.013 46.6094 83.1712 46.9017C83.3295 47.1941 83.3161 47.4941 83.1312 47.8016C82.9463 48.1091 82.6485 48.3744 82.2379 48.5975C81.8273 48.8205 81.2537 48.9903 80.5171 49.1069L65.1267 51.1312L59.7703 58.6974C59.5325 59.0372 59.1413 59.3106 58.5967 59.5178C58.052 59.7249 57.4887 59.8539 56.9069 59.9048C56.325 59.9558 55.7479 59.9265 55.1755 59.8171C54.6032 59.7077 54.1704 59.5063 53.8773 59.2129L47.2884 52.6919L31.7803 53.3708C31.0324 53.3831 30.4381 53.3155 29.9972 53.1679C29.5563 53.0204 29.217 52.8109 28.9792 52.5393C28.7415 52.2677 28.6752 51.9742 28.7802 51.6587C28.8853 51.3433 29.194 51.0441 29.7064 50.7611L40.9731 44.7114L36.8148 37.5391C36.6255 37.2101 36.6515 36.8952 36.8926 36.5945C37.1338 36.2937 37.4853 36.0307 37.947 35.8052C38.4088 35.5798 38.957 35.4255 39.5917 35.3424C40.2263 35.2592 40.8438 35.2849 41.444 35.4195L55.0097 38.2201Z" fill="#FCF07D"/>
</g>
</g>
<defs>
<filter id="filter0_d_1_2048" x="28.7314" y="32.7012" width="56.709" height="27.228" filterUnits="userSpaceOnUse" color-interpolation-filters="sRGB">
<feFlood flood-opacity="0" result="BackgroundImageFix"/>
<feColorMatrix in="SourceAlpha" type="matrix" values="0 0 0 0 0 0 0 0 0 0 0 0 0 0 0 0 0 0 127 0" result="hardAlpha"/>
<feOffset dx="2.16019"/>
<feComposite in2="hardAlpha" operator="out"/>
<feColorMatrix type="matrix" values="0 0 0 0 0.835294 0 0 0 0 0.411765 0 0 0 0 0.129412 0 0 0 1 0"/>
<feBlend mode="normal" in2="BackgroundImageFix" result="effect1_dropShadow_1_2048"/>
<feBlend mode="normal" in="SourceGraphic" in2="effect1_dropShadow_1_2048" result="shape"/>
</filter>
</defs>
</svg>
