<svg width="295" height="233" viewBox="0 0 295 233" fill="none" xmlns="http://www.w3.org/2000/svg">
<path d="M164.135 147.092H10.0195V161.815H10.027C9.9515 166.608 11.696 171.405 15.269 175.933L15.2733 175.935C19.0676 180.745 24.9181 185.25 32.8236 189.117C34.182 189.78 35.5702 190.413 36.9998 191.014C67.3797 203.868 113.178 203.136 141.8 188.892C156.854 181.4 164.29 171.595 164.135 161.816V147.092Z" fill="#FCA711"/>
<path d="M95.8542 147.092V199.892C94.7883 199.958 93.7224 200.006 92.6523 200.041V147.093H95.8542V147.092Z" fill="#F48C0F"/>
<path d="M103.548 147.092V199.267C102.561 199.372 101.573 199.468 100.582 199.556V147.092H103.548Z" fill="#F48C0F"/>
<path d="M111.661 147.092V198.162C110.757 198.315 109.845 198.455 108.928 198.59V147.092H111.661Z" fill="#F48C0F"/>
<path d="M119.94 147.093V196.525C119.115 196.718 118.281 196.901 117.441 197.075V147.092H119.94V147.093Z" fill="#F48C0F"/>
<path d="M128.163 147.092V194.297C127.416 194.529 126.661 194.755 125.9 194.969V147.092H128.163Z" fill="#F48C0F"/>
<path d="M136.105 147.093V191.463C135.437 191.734 134.759 192 134.074 192.257V147.092H136.105V147.093Z" fill="#F48C0F"/>
<path d="M143.505 147.092V188.012C142.95 188.309 142.383 188.601 141.802 188.89C141.772 188.903 141.741 188.921 141.711 188.933V147.092H143.505Z" fill="#F48C0F"/>
<path d="M150.148 183.976V147.092H148.584V185.033L150.148 183.976Z" fill="#F48C0F"/>
<path d="M155.794 147.092V179.347C155.371 179.762 154.925 180.173 154.467 180.583V147.093H155.794V147.092Z" fill="#F48C0F"/>
<path d="M160.211 147.092V174.127C159.87 174.634 159.507 175.141 159.119 175.639V147.093H160.211V147.092Z" fill="#F48C0F"/>
<path d="M163.163 147.092V168.157C162.923 168.899 162.639 169.642 162.307 170.38V147.092H163.163Z" fill="#F48C0F"/>
<path d="M88.7979 147.092V200.128C87.6533 200.145 86.5098 200.145 85.3652 200.132V147.092H88.7979Z" fill="#F48C0F"/>
<path d="M81.5123 147.093V200.041C80.4422 200.006 79.3764 199.954 78.3105 199.892V147.092H81.5123V147.093Z" fill="#F48C0F"/>
<path d="M73.577 147.092V199.551C72.5856 199.468 71.5985 199.373 70.6113 199.267V147.092H73.577Z" fill="#F48C0F"/>
<path d="M65.2376 147.092V198.586C64.3207 198.455 63.4123 198.31 62.5039 198.162V147.092H65.2376Z" fill="#F48C0F"/>
<path d="M56.7174 147.092V197.07C55.8792 196.895 55.0441 196.711 54.2188 196.516V147.092H56.7174Z" fill="#F48C0F"/>
<path d="M48.2567 147.093V194.97C47.4961 194.752 46.7409 194.524 45.9941 194.288V147.092H48.2567V147.093Z" fill="#F48C0F"/>
<path d="M40.0931 147.092V192.252C39.407 191.99 38.7305 191.723 38.0625 191.453V147.092H40.0931Z" fill="#F48C0F"/>
<path d="M30.6562 188.011V147.092H32.4551V188.933L30.6562 188.011Z" fill="#F48C0F"/>
<path d="M25.5754 147.093V185.029C25.0382 184.681 24.5181 184.331 24.0117 183.972V147.092H25.5754V147.093Z" fill="#F48C0F"/>
<path d="M18.3652 179.346V147.092H19.6938V180.578L18.3652 179.346Z" fill="#F48C0F"/>
<path d="M13.9512 174.123V147.092H15.0436V175.638L13.9512 174.123Z" fill="#F48C0F"/>
<path d="M11.8524 147.092V170.367C11.5205 169.633 11.2365 168.895 10.9961 168.152V147.092H11.8524Z" fill="#F48C0F"/>
<path d="M32.3596 120.039C30.1917 121.117 28.1908 122.242 26.3421 123.409C9.27998 134.163 5.60693 148.388 15.2708 160.636L15.2751 160.638C19.0683 165.448 24.9199 169.953 32.8255 173.821C34.1839 174.484 35.572 175.117 37.0017 175.718C67.3816 188.572 113.18 187.84 141.802 173.594C170.268 159.427 171.505 136.987 145.652 122.101C144.287 121.315 142.854 120.551 141.34 119.813C111.118 105.024 62.3278 105.126 32.3596 120.039Z" fill="#FCDA15"/>
<path d="M37.8315 129.03C45.601 130.4 39.7909 157.885 29.9642 157.434C20.1375 156.979 15.2731 160.637 15.2731 160.637L15.2689 160.635C5.60497 148.388 9.278 134.162 26.3401 123.408C26.5103 123.365 26.5975 123.344 26.5975 123.344C26.5975 123.344 30.0663 127.658 37.8315 129.03Z" fill="#FFEF33"/>
<path d="M145.647 122.102C171.5 136.988 170.263 159.428 141.796 173.595C113.175 187.84 67.3771 188.571 36.9961 175.719C44.0337 170.516 58.9748 171.225 58.9748 171.225L138.472 131.992C138.472 131.992 138.441 126.882 145.647 122.102Z" fill="#FEB012"/>
<path d="M43.7482 127.466C20.0197 138.246 20.1835 155.649 44.1152 166.339C68.0468 177.027 106.682 176.954 130.411 166.174C154.139 155.394 153.975 137.991 130.044 127.301C106.112 116.612 67.4767 116.685 43.7482 127.466Z" fill="#FCDA15"/>
<path d="M44.943 153.135C52.4768 149.878 56.7708 143.043 54.5338 137.869C52.2969 132.694 44.3762 131.139 36.8423 134.396C29.3085 137.653 25.0146 144.488 27.2515 149.662C29.4884 154.837 37.4092 156.392 44.943 153.135Z" fill="#FFEF33"/>
<path d="M139.583 132.794C153.438 143.305 150.404 157.089 130.41 166.171L130.213 166.259C110.087 175.322 79.3695 176.735 55.941 170.464C49.4693 163.279 57.9685 151.957 77.993 142.889C98.1495 133.762 123.511 129.852 139.583 132.794Z" fill="#FCA711"/>
<path d="M43.7471 127.464C20.0154 138.243 20.1824 155.645 44.1172 166.334C44.915 166.691 45.7245 167.034 46.5564 167.365C25.2617 156.614 25.9723 140.11 48.803 129.741C71.7432 119.319 108.611 118.902 132.656 128.544C131.824 128.118 130.95 127.703 130.043 127.298C106.112 116.606 67.4787 116.682 43.7471 127.464Z" fill="#FFAE12"/>
<path d="M127.602 126.266C137.883 131.456 143.038 137.986 143.042 144.52C143.053 150.042 139.392 155.566 132.046 160.286C130.079 161.55 127.848 162.757 125.351 163.891C102.414 174.311 65.5463 174.729 41.502 165.086C42.3338 165.513 43.2082 165.927 44.1155 166.332C68.0472 177.023 106.681 176.948 130.408 166.168C133.43 164.797 136.067 163.316 138.309 161.757C145.647 156.663 148.862 150.716 147.951 144.877L147.947 144.874C146.948 138.461 140.972 132.178 130.041 127.294C129.243 126.94 128.434 126.596 127.602 126.266Z" fill="#FFD00D"/>
<path d="M113.102 162.724L80.2256 160.992C79.8309 160.971 79.4437 160.877 79.0831 160.715L71.6499 157.367C70.5064 156.852 69.7692 155.713 69.7692 154.458C69.7692 154.263 69.7873 154.073 69.8213 153.885L65.9419 155.633C65.525 155.821 65.0771 155.915 64.6314 155.915C64.1846 155.915 63.7368 155.821 63.3209 155.633L56.2461 152.446C55.46 152.092 54.8654 151.443 54.5718 150.662C54.2059 150.802 53.8219 150.871 53.4379 150.871C52.9911 150.871 52.5443 150.777 52.1274 150.589L45.0525 147.402C43.908 146.887 43.1719 145.747 43.1719 144.493C43.1719 143.238 43.9069 142.098 45.0525 141.584L80.6085 125.567C81.0255 125.379 81.4733 125.285 81.919 125.285C82.3658 125.285 82.8136 125.379 83.2295 125.567L90.3044 128.754C91.0905 129.108 91.6851 129.757 91.9787 130.537C92.3446 130.397 92.7286 130.328 93.1126 130.328C93.5594 130.328 94.0072 130.422 94.4231 130.61L101.498 133.798C102.643 134.314 103.379 135.453 103.379 136.707C103.379 137.964 102.642 139.102 101.497 139.617L97.7238 141.317C99.0014 142.984 99.3992 144.609 99.446 145.898C99.4885 147.072 99.2641 148.532 98.3993 150.134L124.188 151.509C125.658 151.588 126.884 152.662 127.155 154.109C127.425 155.556 126.671 157.001 125.329 157.605L114.581 162.447C114.168 162.634 113.72 162.729 113.27 162.729C113.214 162.728 113.157 162.727 113.102 162.724Z" fill="#FCA711"/>
<path d="M81.9169 128.476L88.9917 131.663L78.0641 136.586L78.2449 136.666C79.3192 136.666 81.4691 136.988 84.0667 137.593L93.1126 133.518L100.188 136.705L91.7701 140.497C98.5727 144.269 97.0526 149.111 91.1883 152.943L124.019 154.695L113.271 159.536L80.3947 157.804L72.9614 154.455L79.4097 151.55C84.3358 149.331 86.2164 146.951 82.8125 144.531L64.6314 152.72L57.5566 149.534L75.1101 141.626C74.1825 141.486 73.255 141.421 72.3285 141.421C68.6916 141.421 65.0654 142.439 61.4966 144.047L53.4357 147.677L46.3609 144.49L81.9169 128.476ZM81.9169 122.094C81.0234 122.094 80.1287 122.282 79.2958 122.656L43.7399 138.673C41.4507 139.704 39.9785 141.981 39.9785 144.493C39.9785 147.003 41.4507 149.28 43.7399 150.312L50.8147 153.499C51.5263 153.819 52.2816 154.003 53.0442 154.05C53.5804 154.586 54.2175 155.032 54.9345 155.355L62.0093 158.542C62.8432 158.918 63.7368 159.105 64.6303 159.105C65.5238 159.105 66.4184 158.917 67.2513 158.542L67.8438 158.275C68.4789 159.126 69.3288 159.823 70.3372 160.277L77.7705 163.626C78.4917 163.95 79.2661 164.138 80.0564 164.18L112.933 165.912C113.045 165.918 113.157 165.92 113.269 165.92C114.172 165.92 115.065 165.729 115.89 165.358L126.638 160.516C129.323 159.307 130.832 156.418 130.29 153.524C129.748 150.629 127.296 148.48 124.356 148.324L102.597 147.164C102.64 146.679 102.65 146.217 102.634 145.784C102.602 144.896 102.457 143.896 102.115 142.84L102.807 142.528C105.096 141.497 106.569 139.22 106.569 136.708C106.569 134.198 105.096 131.92 102.807 130.889L95.7325 127.702C95.0209 127.382 94.2656 127.198 93.503 127.151C92.9668 126.615 92.3297 126.169 91.6127 125.846L84.5368 122.659C83.7039 122.282 82.8104 122.094 81.9169 122.094Z" fill="#FCDA15"/>
<path d="M124.016 154.702L119.488 156.74L91.1855 155.231V152.949L124.016 154.702Z" fill="#F48C0F"/>
<path d="M96.1047 147.33C95.6728 145.738 94.2921 144.187 91.7637 142.782L91.7647 140.504C92.4891 140.904 93.1742 141.351 93.8071 141.862C95.9346 143.587 96.5898 145.465 96.1047 147.33Z" fill="#F48C0F"/>
<path d="M79.4012 153.838L75.4836 155.604L72.9551 154.466L79.4012 151.558C81.817 150.471 83.4976 149.343 84.188 148.191C84.3997 147.849 84.5178 147.483 84.5337 147.092C84.5337 147.092 84.5326 149.113 84.5326 149.318C84.5369 150.871 82.619 152.39 79.4012 153.838Z" fill="#F48C0F"/>
<path d="M75.1043 143.91L60.0792 150.679L57.5508 149.537L75.1054 141.629L75.1043 143.91Z" fill="#F48C0F"/>
<path d="M100.184 136.709L97.6554 137.847L93.109 135.798L84.0631 139.875C81.4645 139.269 79.3157 138.948 78.2414 138.948L78.0627 138.866L78.0605 136.586L78.2414 136.666C79.2679 136.694 80.5071 136.861 81.9059 137.134C82.5739 137.264 83.2994 137.417 84.0631 137.595L93.109 133.518L100.184 136.709Z" fill="#F48C0F"/>
<path d="M88.9904 131.662L86.4609 132.8L81.9145 130.751L48.887 145.634L46.3574 144.496L81.9145 128.471L88.9904 131.662Z" fill="#F48C0F"/>
<path d="M147.947 144.879L147.952 144.881C148.863 150.72 145.648 156.666 138.31 161.762C133.563 162.114 132.3 160.683 132.047 160.289C139.392 155.57 143.054 150.046 143.043 144.524C143.043 144.524 145.859 143.523 147.947 144.879Z" fill="#FFEF33"/>
<path d="M21.8759 134.413C26.2393 134.853 28.438 138.449 26.7871 142.446C25.1362 146.443 20.259 149.327 15.8957 148.887C11.5323 148.448 9.33355 144.852 10.9844 140.855C12.6364 136.859 17.5125 133.974 21.8759 134.413Z" fill="#FCFDAF"/>
<path d="M154.463 125.146H0.347656V139.869H0.355123C0.279598 144.662 2.02408 149.46 5.59713 153.987L5.60141 153.989C9.39465 158.799 15.2462 163.304 23.1518 167.172C24.5101 167.835 25.8983 168.468 27.3279 169.069C57.7079 181.923 103.506 181.191 132.128 166.947C147.182 159.454 154.618 149.649 154.463 139.871V125.146Z" fill="#FCA711"/>
<path d="M86.1823 125.148V177.948C85.1164 178.014 84.0506 178.062 82.9805 178.097V125.15H86.1823V125.148Z" fill="#F48C0F"/>
<path d="M93.8758 125.15V177.326C92.8887 177.431 91.9015 177.527 90.9102 177.614V125.15H93.8758Z" fill="#F48C0F"/>
<path d="M101.986 125.15V176.221C101.082 176.374 100.169 176.513 99.252 176.648V125.15H101.986Z" fill="#F48C0F"/>
<path d="M110.268 125.15V174.583C109.443 174.775 108.609 174.958 107.77 175.133V125.15H110.268Z" fill="#F48C0F"/>
<path d="M118.491 125.15V172.355C117.744 172.587 116.988 172.814 116.229 173.028V125.15H118.491Z" fill="#F48C0F"/>
<path d="M126.427 125.15V169.52C125.759 169.79 125.082 170.057 124.396 170.314V125.148H126.427V125.15Z" fill="#F48C0F"/>
<path d="M133.834 125.15V166.071C133.279 166.368 132.711 166.66 132.131 166.948C132.1 166.961 132.07 166.979 132.039 166.992V125.15H133.834Z" fill="#F48C0F"/>
<path d="M140.476 162.034V125.15H138.912V163.091L140.476 162.034Z" fill="#F48C0F"/>
<path d="M146.122 125.15V157.405C145.699 157.819 145.253 158.23 144.795 158.641V125.15H146.122Z" fill="#F48C0F"/>
<path d="M150.539 125.15V152.186C150.198 152.692 149.836 153.2 149.447 153.698V125.151L150.539 125.15Z" fill="#F48C0F"/>
<path d="M153.491 125.15V146.215C153.251 146.958 152.967 147.7 152.635 148.438V125.15H153.491Z" fill="#F48C0F"/>
<path d="M79.1279 125.15V178.187C77.9834 178.204 76.8388 178.204 75.6953 178.191V125.15H79.1279Z" fill="#F48C0F"/>
<path d="M71.8405 125.15V178.097C70.7704 178.062 69.7045 178.01 68.6387 177.948V125.148H71.8405V125.15Z" fill="#F48C0F"/>
<path d="M63.9071 125.15V177.61C62.9157 177.527 61.9285 177.431 60.9414 177.326V125.15H63.9071Z" fill="#F48C0F"/>
<path d="M55.5638 125.15V176.644C54.6469 176.513 53.7385 176.369 52.8301 176.221V125.15H55.5638Z" fill="#F48C0F"/>
<path d="M47.0456 125.15V175.127C46.2073 174.953 45.3723 174.769 44.5469 174.572V125.148H47.0456V125.15Z" fill="#F48C0F"/>
<path d="M38.5867 125.15V173.027C37.8272 172.809 37.071 172.581 36.3242 172.345V125.148H38.5867V125.15Z" fill="#F48C0F"/>
<path d="M30.4232 125.15V170.312C29.7371 170.05 29.0606 169.783 28.3926 169.513V125.151L30.4232 125.15Z" fill="#F48C0F"/>
<path d="M20.9863 166.07V125.15H22.7861V166.992L20.9863 166.07Z" fill="#F48C0F"/>
<path d="M15.9055 125.15V163.086C15.3683 162.736 14.8481 162.387 14.3418 162.029V125.148H15.9055V125.15Z" fill="#F48C0F"/>
<path d="M8.69531 157.405V125.15H10.0228V158.636L8.69531 157.405Z" fill="#F48C0F"/>
<path d="M4.28125 152.181V125.15H5.37263V153.696L4.28125 152.181Z" fill="#F48C0F"/>
<path d="M2.18246 125.148V148.424C1.85058 147.69 1.56657 146.952 1.32617 146.209V125.148H2.18246Z" fill="#F48C0F"/>
<path d="M22.686 98.0942C20.5181 99.1717 18.5173 100.297 16.6685 101.463C-0.39465 112.217 -4.06664 126.443 5.59728 138.69L5.60157 138.692C9.3948 143.502 15.2463 148.007 23.1519 151.875C24.5103 152.538 25.8985 153.171 27.3281 153.772C57.708 166.626 103.507 165.894 132.128 151.649C160.595 137.482 161.832 115.043 135.979 100.156C134.613 99.3696 133.18 98.6059 131.667 97.8676C101.444 83.0776 52.6543 83.1808 22.686 98.0942Z" fill="#FCDA15"/>
<path d="M28.1596 107.085C35.9291 108.455 30.119 135.941 20.2924 135.489C10.4657 135.033 5.60127 138.692 5.60127 138.692L5.59702 138.689C-4.0669 126.442 -0.393875 112.216 16.6682 101.462C16.8384 101.42 16.9257 101.398 16.9257 101.398C16.9257 101.398 20.3945 105.713 28.1596 107.085Z" fill="#FFEF33"/>
<path d="M135.977 100.156C161.83 115.043 160.593 137.482 132.126 151.65C103.505 165.894 57.7072 166.626 27.3262 153.772C34.3638 148.569 49.3048 149.279 49.3048 149.279L128.802 110.047C128.802 110.047 128.771 104.937 135.977 100.156Z" fill="#FEB012"/>
<path d="M34.0783 105.521C10.3498 116.301 10.5136 133.704 34.4453 144.394C58.3758 155.082 97.0124 155.008 120.741 144.228C144.469 133.448 144.306 116.044 120.374 105.355C96.4433 94.6666 57.8067 94.74 34.0783 105.521Z" fill="#FCDA15"/>
<path d="M35.2692 131.193C42.803 127.937 47.097 121.102 44.86 115.927C42.6231 110.752 34.7023 109.198 27.1685 112.455C19.6347 115.711 15.3407 122.546 17.5777 127.721C19.8146 132.896 27.7354 134.45 35.2692 131.193Z" fill="#FFEF33"/>
<path d="M129.911 110.849C143.766 121.36 140.732 135.143 120.738 144.226L120.541 144.314C100.415 153.377 69.6976 154.789 46.2691 148.519C39.7974 141.333 48.2966 130.012 68.3212 120.944C88.4777 111.817 113.839 107.907 129.911 110.849Z" fill="#FCA711"/>
<path d="M34.0791 105.518C10.3474 116.297 10.5144 133.7 34.4493 144.39C35.247 144.746 36.0565 145.09 36.8894 145.421C15.5948 134.67 16.3053 118.166 39.136 107.797C62.0763 97.3746 98.9439 96.9576 122.989 106.599C122.157 106.174 121.283 105.759 120.376 105.354C96.4431 94.661 57.8097 94.7365 34.0791 105.518Z" fill="#FFAE12"/>
<path d="M117.928 104.32C128.209 109.51 133.364 116.04 133.368 122.575C133.38 128.097 129.718 133.621 122.372 138.34C120.405 139.605 118.174 140.811 115.677 141.945C92.7401 152.365 55.8725 152.784 31.8281 143.142C32.66 143.567 33.5343 143.982 34.4417 144.388C58.3733 155.079 97.0067 155.004 120.734 144.224C123.756 142.853 126.393 141.372 128.635 139.812C135.973 134.718 139.189 128.772 138.277 122.932L138.273 122.93C137.274 116.517 131.298 110.234 120.367 105.35C119.57 104.995 118.761 104.651 117.928 104.32Z" fill="#FFD00D"/>
<path d="M138.275 122.934L138.279 122.936C139.191 128.775 135.975 134.721 128.637 139.816C123.89 140.169 122.627 138.738 122.373 138.344C129.719 133.624 133.38 128.1 133.369 122.579C133.369 122.579 136.187 121.578 138.275 122.934Z" fill="#FFEF33"/>
<path d="M12.206 112.468C16.5694 112.907 18.7681 116.504 17.1172 120.5C15.4652 124.498 10.5891 127.381 6.22573 126.942C1.86234 126.503 -0.336384 122.906 1.31452 118.91C2.96541 114.914 7.8426 112.029 12.206 112.468Z" fill="#FCFDAF"/>
<g filter="url(#filter0_d_622_1610)">
<path d="M74.8593 132.737L56.9297 137.982C56.1376 138.227 55.3096 138.332 54.4455 138.297C53.5814 138.262 52.8254 138.122 52.1773 137.877C51.5292 137.633 51.0252 137.327 50.6652 136.961C50.3051 136.594 50.2331 136.183 50.4491 135.727L55.2016 125.814L39.3242 119.153C38.6041 118.839 38.1548 118.48 37.9762 118.077C37.7976 117.674 37.8509 117.281 38.1361 116.898C38.4212 116.515 38.8532 116.2 39.4322 115.954C40.0111 115.708 40.8032 115.551 41.8084 115.482L62.7622 114.591L70.8629 105.255C71.223 104.835 71.7817 104.521 72.5393 104.311C73.2968 104.101 74.0701 103.996 74.8593 103.996C75.6485 103.996 76.4218 104.101 77.1793 104.311C77.9369 104.521 78.4956 104.835 78.8557 105.255L86.9564 114.591L107.91 115.482C108.918 115.552 109.71 115.709 110.286 115.954C110.862 116.199 111.295 116.514 111.583 116.898C111.871 117.283 111.925 117.677 111.747 118.079C111.568 118.482 111.117 118.84 110.394 119.153L94.517 125.814L99.2695 135.727C99.4855 136.181 99.4135 136.593 99.0534 136.961C98.6934 137.328 98.1894 137.634 97.5413 137.877C96.8932 138.121 96.1372 138.261 95.2731 138.297C94.409 138.333 93.581 138.228 92.7889 137.982L74.8593 132.737Z" fill="#FCF07D"/>
</g>
<path d="M294.912 132.645H140.797V147.368H140.804C140.729 152.16 142.473 156.958 146.046 161.485L146.051 161.487C149.844 166.298 155.695 170.802 163.601 174.67C164.959 175.333 166.348 175.966 167.777 176.567C198.157 189.421 243.956 188.689 272.577 174.445C287.631 166.952 295.068 157.147 294.912 147.369V132.645Z" fill="#FCA711"/>
<path d="M226.63 132.643V185.443C225.564 185.509 224.498 185.556 223.428 185.592V132.644L226.63 132.643Z" fill="#F48C0F"/>
<path d="M234.323 132.645V184.82C233.336 184.925 232.349 185.021 231.357 185.108V132.645H234.323Z" fill="#F48C0F"/>
<path d="M242.433 132.645V183.715C241.529 183.868 240.616 184.007 239.699 184.143V132.645H242.433Z" fill="#F48C0F"/>
<path d="M250.715 132.645V182.077C249.89 182.269 249.056 182.452 248.217 182.627V132.645H250.715Z" fill="#F48C0F"/>
<path d="M258.94 132.645V179.849C258.194 180.081 257.437 180.308 256.678 180.522V132.645H258.94Z" fill="#F48C0F"/>
<path d="M266.874 132.644V177.014C266.206 177.284 265.529 177.551 264.844 177.808V132.643L266.874 132.644Z" fill="#F48C0F"/>
<path d="M274.281 132.645V173.565C273.727 173.862 273.159 174.154 272.578 174.442C272.547 174.455 272.517 174.473 272.486 174.486V132.645H274.281Z" fill="#F48C0F"/>
<path d="M280.923 169.528V132.645H279.359V170.585L280.923 169.528Z" fill="#F48C0F"/>
<path d="M286.57 132.645V164.899C286.146 165.314 285.701 165.724 285.242 166.135V132.645H286.57Z" fill="#F48C0F"/>
<path d="M290.986 132.645V159.68C290.646 160.186 290.283 160.694 289.895 161.192V132.646L290.986 132.645Z" fill="#F48C0F"/>
<path d="M293.94 132.645V153.709C293.7 154.452 293.416 155.194 293.084 155.933V132.645H293.94Z" fill="#F48C0F"/>
<path d="M219.569 132.645V185.681C218.425 185.698 217.28 185.698 216.137 185.685V132.645H219.569Z" fill="#F48C0F"/>
<path d="M212.286 132.644V185.592C211.216 185.556 210.15 185.504 209.084 185.443V132.643L212.286 132.644Z" fill="#F48C0F"/>
<path d="M204.348 132.645V185.104C203.357 185.021 202.37 184.925 201.383 184.82V132.645H204.348Z" fill="#F48C0F"/>
<path d="M196.007 132.645V184.138C195.09 184.007 194.182 183.863 193.273 183.715V132.645H196.007Z" fill="#F48C0F"/>
<path d="M187.491 132.644V182.622C186.653 182.447 185.818 182.263 184.992 182.066V132.643L187.491 132.644Z" fill="#F48C0F"/>
<path d="M179.028 132.644V180.521C178.269 180.303 177.512 180.075 176.766 179.839V132.643L179.028 132.644Z" fill="#F48C0F"/>
<path d="M170.867 132.645V177.806C170.18 177.544 169.504 177.277 168.836 177.007V132.646L170.867 132.645Z" fill="#F48C0F"/>
<path d="M161.43 173.564V132.645H163.229V174.486L161.43 173.564Z" fill="#F48C0F"/>
<path d="M156.349 132.644V170.58C155.812 170.23 155.291 169.881 154.785 169.523V132.643L156.349 132.644Z" fill="#F48C0F"/>
<path d="M149.139 164.899V132.645H150.466V166.131L149.139 164.899Z" fill="#F48C0F"/>
<path d="M144.725 159.675V132.645H145.816V161.191L144.725 159.675Z" fill="#F48C0F"/>
<path d="M142.626 132.643V155.918C142.294 155.184 142.01 154.446 141.77 153.703V132.643H142.626Z" fill="#F48C0F"/>
<path d="M163.137 105.596C160.969 106.674 158.968 107.799 157.12 108.965C140.057 119.719 136.385 133.945 146.048 146.192L146.053 146.194C149.846 151.004 155.698 155.509 163.603 159.377C164.961 160.04 166.35 160.673 167.779 161.274C198.159 174.128 243.958 173.396 272.579 159.151C301.046 144.984 302.283 122.544 276.43 107.658C275.064 106.872 273.631 106.108 272.118 105.37C241.895 90.5796 193.105 90.6827 163.137 105.596Z" fill="#FCDA15"/>
<path d="M168.609 114.587C176.378 115.957 170.568 143.443 160.742 142.991C150.915 142.535 146.05 146.193 146.05 146.193L146.046 146.191C136.382 133.944 140.055 119.718 157.117 108.964C157.288 108.922 157.375 108.9 157.375 108.9C157.375 108.9 160.844 113.215 168.609 114.587Z" fill="#FFEF33"/>
<path d="M276.426 107.654C302.279 122.541 301.042 144.98 272.576 159.148C243.954 173.392 198.156 174.124 167.775 161.27C174.813 156.068 189.754 156.777 189.754 156.777L269.251 117.545C269.251 117.545 269.221 112.435 276.426 107.654Z" fill="#FEB012"/>
<path d="M174.526 113.023C150.797 123.803 150.961 141.206 174.893 151.896C198.823 162.584 237.46 162.51 261.188 151.73C284.917 140.95 284.753 123.546 260.821 112.857C236.891 102.169 198.254 102.242 174.526 113.023Z" fill="#FCDA15"/>
<path d="M175.718 138.695C183.252 135.439 187.546 128.604 185.309 123.429C183.072 118.254 175.152 116.7 167.618 119.957C160.084 123.213 155.79 130.048 158.027 135.223C160.264 140.398 168.185 141.952 175.718 138.695Z" fill="#FFEF33"/>
<path d="M270.358 118.349C284.213 128.86 281.179 142.643 261.186 151.726L260.989 151.814C240.862 160.877 210.145 162.289 186.716 156.019C180.245 148.833 188.744 137.512 208.768 128.444C228.925 119.317 254.286 115.407 270.358 118.349Z" fill="#FCA711"/>
<path d="M174.526 113.02C150.795 123.799 150.962 141.202 174.897 151.892C175.694 152.248 176.504 152.592 177.337 152.923C156.042 142.172 156.753 125.668 179.583 115.299C202.524 104.877 239.391 104.46 263.437 114.101C262.605 113.676 261.73 113.261 260.823 112.855C236.89 102.163 198.257 102.238 174.526 113.02Z" fill="#FFAE12"/>
<path d="M258.377 111.822C268.658 117.012 273.813 123.542 273.817 130.077C273.829 135.599 270.168 141.123 262.821 145.842C260.855 147.107 258.623 148.313 256.126 149.447C233.189 159.867 196.322 160.285 172.277 150.644C173.109 151.069 173.984 151.484 174.891 151.89C198.823 162.581 237.456 162.505 261.183 151.726C264.205 150.355 266.842 148.874 269.085 147.314C276.422 142.22 279.638 136.274 278.726 130.434L278.722 130.432C277.723 124.019 271.747 117.735 260.816 112.852C260.02 112.497 259.21 112.153 258.377 111.822Z" fill="#FFD00D"/>
<path d="M278.724 130.436L278.728 130.438C279.64 136.277 276.424 142.223 269.087 147.318C264.339 147.671 263.076 146.24 262.822 145.846C270.168 141.126 273.83 135.602 273.818 130.081C273.818 130.081 276.636 129.08 278.724 130.436Z" fill="#FFEF33"/>
<path d="M152.653 119.968C157.017 120.407 159.215 124.004 157.564 128C155.913 131.998 151.036 134.881 146.673 134.442C142.31 134.003 140.111 130.406 141.762 126.41C143.413 122.414 148.29 119.529 152.653 119.968Z" fill="#FCFDAF"/>
<g filter="url(#filter1_d_622_1610)">
<path d="M220.443 140.191L202.514 145.435C201.722 145.68 200.894 145.785 200.029 145.75C199.165 145.715 198.409 145.575 197.761 145.33C197.113 145.086 196.609 144.78 196.249 144.414C195.889 144.047 195.817 143.636 196.033 143.18L200.786 133.267L184.908 126.607C184.188 126.292 183.739 125.933 183.56 125.53C183.382 125.128 183.435 124.735 183.72 124.351C184.005 123.968 184.437 123.653 185.016 123.407C185.595 123.161 186.387 123.004 187.392 122.935L208.346 122.044L216.447 112.708C216.807 112.288 217.366 111.974 218.123 111.764C218.881 111.554 219.654 111.449 220.443 111.449C221.232 111.449 222.006 111.554 222.763 111.764C223.521 111.974 224.08 112.288 224.44 112.708L232.54 122.044L253.494 122.935C254.502 123.005 255.294 123.163 255.87 123.407C256.446 123.652 256.879 123.967 257.167 124.351C257.455 124.736 257.509 125.13 257.331 125.532C257.152 125.935 256.701 126.293 255.978 126.607L240.101 133.267L244.853 143.18C245.069 143.635 244.997 144.046 244.637 144.414C244.277 144.781 243.773 145.087 243.125 145.33C242.477 145.574 241.721 145.714 240.857 145.75C239.993 145.786 239.165 145.681 238.373 145.435L220.443 140.191Z" fill="#FCF07D"/>
</g>
<g filter="url(#filter2_d_622_1610)">
<path d="M243.475 155.666H89.3594V170.389H89.3668C89.2913 175.182 91.0358 179.98 94.6089 184.507L94.6131 184.509C98.4074 189.319 104.258 193.824 112.163 197.692C113.522 198.354 114.91 198.987 116.34 199.588C146.72 212.442 192.518 211.71 221.14 197.466C236.194 189.974 243.63 180.169 243.475 170.39V155.666Z" fill="#FCA711"/>
<path d="M175.192 155.662V208.462C174.126 208.528 173.06 208.576 171.99 208.611V155.663L175.192 155.662Z" fill="#F48C0F"/>
<path d="M182.886 155.662V207.838C181.898 207.942 180.911 208.039 179.92 208.126V155.662H182.886Z" fill="#F48C0F"/>
<path d="M190.999 155.662V206.732C190.095 206.886 189.183 207.025 188.266 207.16V155.662H190.999Z" fill="#F48C0F"/>
<path d="M199.278 155.663V205.095C198.453 205.288 197.619 205.471 196.779 205.645V155.662L199.278 155.663Z" fill="#F48C0F"/>
<path d="M207.501 155.662V202.867C206.754 203.099 205.999 203.325 205.238 203.539V155.662H207.501Z" fill="#F48C0F"/>
<path d="M215.443 155.663V200.033C214.775 200.304 214.097 200.57 213.412 200.828V155.662L215.443 155.663Z" fill="#F48C0F"/>
<path d="M222.843 155.662V196.582C222.288 196.879 221.721 197.172 221.14 197.46C221.109 197.473 221.079 197.491 221.049 197.504V155.662H222.843Z" fill="#F48C0F"/>
<path d="M229.486 192.547V155.662H227.922V193.603L229.486 192.547Z" fill="#F48C0F"/>
<path d="M235.132 155.662V187.917C234.709 188.332 234.263 188.743 233.805 189.153V155.663L235.132 155.662Z" fill="#F48C0F"/>
<path d="M239.548 155.662V182.698C239.208 183.204 238.845 183.711 238.457 184.209V155.663L239.548 155.662Z" fill="#F48C0F"/>
<path d="M242.501 155.662V176.727C242.26 177.469 241.976 178.212 241.645 178.95V155.662H242.501Z" fill="#F48C0F"/>
<path d="M168.134 155.662V208.698C166.989 208.715 165.846 208.715 164.701 208.703V155.662H168.134Z" fill="#F48C0F"/>
<path d="M160.848 155.663V208.611C159.778 208.576 158.712 208.524 157.646 208.462V155.662L160.848 155.663Z" fill="#F48C0F"/>
<path d="M152.913 155.662V208.122C151.922 208.039 150.934 207.943 149.947 207.838V155.662H152.913Z" fill="#F48C0F"/>
<path d="M144.574 155.662V207.156C143.657 207.025 142.748 206.88 141.84 206.733V155.662H144.574Z" fill="#F48C0F"/>
<path d="M136.053 155.662V205.64C135.215 205.466 134.38 205.282 133.555 205.086V155.662H136.053Z" fill="#F48C0F"/>
<path d="M127.593 155.663V203.54C126.832 203.322 126.077 203.095 125.33 202.858V155.662L127.593 155.663Z" fill="#F48C0F"/>
<path d="M119.429 155.662V200.822C118.743 200.561 118.066 200.294 117.398 200.024V155.662H119.429Z" fill="#F48C0F"/>
<path d="M109.992 196.581V155.662H111.791V197.504L109.992 196.581Z" fill="#F48C0F"/>
<path d="M104.911 155.663V193.6C104.374 193.251 103.854 192.901 103.348 192.542V155.662L104.911 155.663Z" fill="#F48C0F"/>
<path d="M97.7012 187.916V155.662H99.0298V189.148L97.7012 187.916Z" fill="#F48C0F"/>
<path d="M93.2871 182.693V155.662H94.3795V184.208L93.2871 182.693Z" fill="#F48C0F"/>
<path d="M91.1883 155.662V178.937C90.8564 178.203 90.5724 177.465 90.332 176.723V155.662H91.1883Z" fill="#F48C0F"/>
<path d="M111.699 128.613C109.532 129.691 107.531 130.816 105.682 131.983C88.6198 142.737 84.9468 156.963 94.6107 169.21L94.6149 169.212C98.4082 174.023 104.26 178.527 112.165 182.395C113.524 183.058 114.912 183.691 116.342 184.292C146.721 197.146 192.52 196.414 221.142 182.169C249.608 168.001 250.845 145.562 224.992 130.675C223.626 129.889 222.194 129.125 220.68 128.387C190.457 113.598 141.668 113.7 111.699 128.613Z" fill="#FCDA15"/>
<path d="M117.171 137.605C124.941 138.975 119.131 166.459 109.304 166.008C99.4774 165.553 94.613 169.211 94.613 169.211L94.6087 169.209C84.9448 156.962 88.6178 142.736 105.68 131.982C105.85 131.939 105.937 131.918 105.937 131.918C105.937 131.918 109.406 136.232 117.171 137.605Z" fill="#FFEF33"/>
<path d="M224.987 130.676C250.839 145.563 249.602 168.002 221.136 182.17C192.514 196.414 146.717 197.146 116.336 184.293C123.374 179.09 138.315 179.8 138.315 179.8L217.812 140.566C217.812 140.566 217.781 135.456 224.987 130.676Z" fill="#FEB012"/>
<path d="M123.088 136.04C99.3596 146.82 99.5234 164.224 123.455 174.913C147.387 185.601 186.022 185.528 209.751 174.748C233.479 163.968 233.315 146.565 209.384 135.875C185.452 125.186 146.817 125.259 123.088 136.04Z" fill="#FCDA15"/>
<path d="M124.283 161.709C131.817 158.452 136.111 151.617 133.874 146.443C131.637 141.268 123.716 139.713 116.182 142.97C108.648 146.227 104.354 153.062 106.591 158.237C108.828 163.411 116.749 164.966 124.283 161.709Z" fill="#FFEF33"/>
<path d="M218.922 141.369C232.777 151.879 229.744 165.663 209.75 174.745L209.553 174.833C189.426 183.896 158.709 185.309 135.281 179.038C128.809 171.853 137.308 160.532 157.333 151.463C177.489 142.337 202.851 138.426 218.922 141.369Z" fill="#FCA711"/>
<path d="M123.087 136.038C99.3552 146.817 99.5222 164.219 123.457 174.909C124.255 175.265 125.064 175.609 125.896 175.939C104.602 165.188 105.312 148.685 128.143 138.316C151.083 127.893 187.951 127.476 211.996 137.118C211.164 136.692 210.29 136.277 209.382 135.872C185.452 125.181 146.819 125.256 123.087 136.038Z" fill="#FFAE12"/>
<path d="M206.942 134.84C217.223 140.03 222.377 146.56 222.382 153.094C222.393 158.616 218.732 164.14 211.386 168.86C209.419 170.125 207.187 171.331 204.691 172.465C181.754 182.885 144.886 183.303 120.842 173.66C121.674 174.087 122.548 174.501 123.455 174.906C147.387 185.598 186.02 185.522 209.748 174.742C212.77 173.371 215.407 171.89 217.649 170.331C224.987 165.237 228.202 159.291 227.291 153.451L227.286 153.449C226.288 147.035 220.312 140.752 209.381 135.868C208.583 135.514 207.774 135.171 206.942 134.84Z" fill="#FFD00D"/>
<path d="M192.442 171.296L159.565 169.564C159.171 169.543 158.784 169.45 158.423 169.287L150.99 165.939C149.846 165.424 149.109 164.285 149.109 163.03C149.109 162.835 149.127 162.645 149.161 162.458L145.282 164.205C144.865 164.394 144.417 164.487 143.971 164.487C143.524 164.487 143.077 164.394 142.661 164.205L135.586 161.019C134.8 160.664 134.205 160.015 133.912 159.235C133.546 159.374 133.162 159.443 132.778 159.443C132.331 159.443 131.884 159.35 131.467 159.161L124.392 155.974C123.248 155.459 122.512 154.319 122.512 153.065C122.512 151.81 123.247 150.671 124.392 150.156L159.948 134.139C160.365 133.951 160.813 133.857 161.259 133.857C161.706 133.857 162.153 133.951 162.569 134.139L169.644 137.326C170.43 137.68 171.025 138.329 171.319 139.109C171.684 138.97 172.068 138.901 172.452 138.901C172.899 138.901 173.347 138.994 173.763 139.182L180.838 142.37C181.982 142.886 182.718 144.026 182.718 145.28C182.718 146.536 181.982 147.674 180.837 148.189L177.064 149.889C178.341 151.557 178.739 153.181 178.786 154.47C178.828 155.645 178.604 157.104 177.739 158.706L203.528 160.081C204.998 160.16 206.224 161.234 206.495 162.681C206.765 164.128 206.011 165.573 204.668 166.178L193.92 171.02C193.508 171.206 193.06 171.302 192.61 171.302C192.554 171.3 192.497 171.299 192.442 171.296Z" fill="#FCA711"/>
<path d="M161.257 137.048L168.332 140.235L157.404 145.158L157.585 145.238C158.659 145.238 160.809 145.56 163.407 146.166L172.452 142.09L179.528 145.277L171.11 149.07C177.913 152.841 176.392 157.684 170.528 161.515L203.359 163.267L192.611 168.108L159.735 166.376L152.301 163.028L158.75 160.123C163.676 157.904 165.556 155.523 162.152 153.103L143.971 161.293L136.896 158.106L154.45 150.198C153.522 150.059 152.595 149.993 151.668 149.993C148.031 149.993 144.405 151.011 140.836 152.619L132.776 156.25L125.701 153.063L161.257 137.048ZM161.257 130.666C160.363 130.666 159.469 130.854 158.636 131.229L123.08 147.245C120.791 148.276 119.318 150.553 119.318 153.065C119.318 155.575 120.791 157.853 123.08 158.884L130.155 162.071C130.866 162.392 131.621 162.576 132.384 162.622C132.92 163.159 133.557 163.604 134.274 163.928L141.349 167.115C142.183 167.49 143.077 167.677 143.97 167.677C144.864 167.677 145.758 167.489 146.591 167.115L147.184 166.847C147.819 167.698 148.669 168.395 149.677 168.849L157.11 172.198C157.832 172.522 158.606 172.711 159.396 172.752L192.273 174.484C192.384 174.49 192.497 174.492 192.609 174.492C193.512 174.492 194.404 174.301 195.23 173.93L205.978 169.089C208.663 167.879 210.172 164.99 209.63 162.096C209.088 159.201 206.636 157.053 203.696 156.896L181.937 155.736C181.98 155.251 181.99 154.789 181.974 154.356C181.942 153.468 181.797 152.468 181.455 151.412L182.147 151.1C184.436 150.069 185.908 147.792 185.908 145.281C185.908 142.77 184.436 140.493 182.147 139.461L175.072 136.274C174.361 135.954 173.605 135.77 172.843 135.723C172.307 135.187 171.67 134.741 170.953 134.418L163.877 131.231C163.044 130.854 162.15 130.666 161.257 130.666Z" fill="#FCDA15"/>
<path d="M203.354 163.278L198.826 165.316L170.523 163.807V161.525L203.354 163.278Z" fill="#F48C0F"/>
<path d="M175.443 155.904C175.011 154.313 173.63 152.761 171.102 151.357L171.103 149.078C171.827 149.478 172.512 149.925 173.145 150.437C175.272 152.161 175.928 154.039 175.443 155.904Z" fill="#F48C0F"/>
<path d="M158.741 162.412L154.823 164.178L152.295 163.04L158.741 160.133C161.157 159.045 162.837 157.917 163.528 156.765C163.74 156.423 163.858 156.057 163.874 155.666C163.874 155.666 163.872 157.687 163.872 157.892C163.877 159.445 161.959 160.964 158.741 162.412Z" fill="#F48C0F"/>
<path d="M154.444 152.484L139.419 159.253L136.891 158.111L154.445 150.203L154.444 152.484Z" fill="#F48C0F"/>
<path d="M179.522 145.285L176.993 146.423L172.447 144.374L163.401 148.452C160.802 147.845 158.654 147.524 157.579 147.524L157.401 147.442L157.398 145.163L157.579 145.242C158.606 145.27 159.845 145.437 161.244 145.71C161.912 145.84 162.637 145.993 163.401 146.171L172.447 142.094L179.522 145.285Z" fill="#F48C0F"/>
<path d="M168.328 140.238L165.799 141.376L161.252 139.328L128.225 154.21L125.695 153.072L161.252 137.047L168.328 140.238Z" fill="#F48C0F"/>
<path d="M227.287 153.454L227.292 153.456C228.203 159.294 224.987 165.241 217.65 170.336C212.903 170.688 211.64 169.257 211.387 168.864C218.732 164.144 222.394 158.62 222.382 153.098C222.382 153.098 225.199 152.097 227.287 153.454Z" fill="#FFEF33"/>
<path d="M101.216 142.988C105.579 143.427 107.778 147.023 106.127 151.02C104.476 155.017 99.5989 157.901 95.2355 157.462C90.8721 157.022 88.6734 153.426 90.3243 149.429C91.9762 145.433 96.8524 142.548 101.216 142.988Z" fill="#FCFDAF"/>
<path d="M233.803 133.717H79.6875V148.44H79.695C79.6194 153.232 81.3639 158.03 84.937 162.558L84.9413 162.56C88.7345 167.37 94.586 171.875 102.492 175.742C103.85 176.405 105.238 177.038 106.668 177.639C137.048 190.493 182.846 189.761 211.468 175.517C226.522 168.024 233.958 158.22 233.803 148.441V133.717Z" fill="#FCA711"/>
<path d="M165.52 133.717V186.517C164.454 186.583 163.388 186.631 162.318 186.666V133.718H165.52V133.717Z" fill="#F48C0F"/>
<path d="M173.214 133.719V185.894C172.227 186 171.239 186.095 170.248 186.183V133.719H173.214Z" fill="#F48C0F"/>
<path d="M181.324 133.719V184.789C180.419 184.942 179.507 185.082 178.59 185.217V133.719H181.324Z" fill="#F48C0F"/>
<path d="M189.606 133.719V183.151C188.781 183.344 187.947 183.527 187.107 183.701V133.719H189.606Z" fill="#F48C0F"/>
<path d="M197.829 133.719V180.924C197.082 181.155 196.326 181.382 195.566 181.596V133.719H197.829Z" fill="#F48C0F"/>
<path d="M205.765 133.718V178.088C205.097 178.358 204.419 178.625 203.734 178.882V133.717H205.765V133.718Z" fill="#F48C0F"/>
<path d="M213.171 133.719V174.639C212.617 174.936 212.049 175.228 211.468 175.517C211.438 175.529 211.408 175.548 211.377 175.56V133.719H213.171Z" fill="#F48C0F"/>
<path d="M219.814 170.602V133.719H218.25V171.66L219.814 170.602Z" fill="#F48C0F"/>
<path d="M225.46 133.719V165.973C225.037 166.388 224.591 166.798 224.133 167.209V133.719H225.46Z" fill="#F48C0F"/>
<path d="M229.877 133.719V160.754C229.536 161.261 229.173 161.768 228.785 162.266V133.72H229.877V133.719Z" fill="#F48C0F"/>
<path d="M232.829 133.719V154.784C232.589 155.526 232.305 156.269 231.973 157.007V133.719H232.829Z" fill="#F48C0F"/>
<path d="M158.466 133.719V186.755C157.321 186.772 156.177 186.772 155.033 186.759V133.719H158.466Z" fill="#F48C0F"/>
<path d="M151.178 133.718V186.666C150.108 186.631 149.042 186.579 147.977 186.517V133.717H151.178V133.718Z" fill="#F48C0F"/>
<path d="M143.245 133.719V186.178C142.254 186.095 141.266 186 140.279 185.894V133.719H143.245Z" fill="#F48C0F"/>
<path d="M134.902 133.719V185.213C133.985 185.082 133.076 184.937 132.168 184.789V133.719H134.902Z" fill="#F48C0F"/>
<path d="M126.381 133.718V183.696C125.543 183.521 124.708 183.337 123.883 183.141V133.717H126.381V133.718Z" fill="#F48C0F"/>
<path d="M117.925 133.718V181.595C117.165 181.377 116.409 181.149 115.662 180.913V133.717H117.925V133.718Z" fill="#F48C0F"/>
<path d="M109.761 133.719V178.88C109.075 178.618 108.398 178.351 107.73 178.081V133.72H109.761V133.719Z" fill="#F48C0F"/>
<path d="M100.324 174.638V133.719H102.124V175.56L100.324 174.638Z" fill="#F48C0F"/>
<path d="M95.2434 133.718V171.654C94.7062 171.305 94.186 170.956 93.6797 170.597V133.717H95.2434V133.718Z" fill="#F48C0F"/>
<path d="M88.0332 165.973V133.719H89.3607V167.205L88.0332 165.973Z" fill="#F48C0F"/>
<path d="M83.6191 160.749V133.719H84.7105V162.265L83.6191 160.749Z" fill="#F48C0F"/>
<path d="M81.5204 133.717V156.992C81.1885 156.258 80.9045 155.52 80.6641 154.777V133.717H81.5204Z" fill="#F48C0F"/>
<path d="M102.026 106.666C99.858 107.744 97.8571 108.869 96.0084 110.035C78.9452 120.789 75.2732 135.016 84.9371 147.262L84.9414 147.265C88.7346 152.075 94.5862 156.58 102.492 160.447C103.85 161.11 105.238 161.743 106.668 162.344C137.048 175.198 182.846 174.466 211.468 160.222C239.934 146.054 241.171 123.615 215.319 108.728C213.953 107.942 212.52 107.178 211.006 106.44C180.784 91.6499 131.994 91.7531 102.026 106.666Z" fill="#FCDA15"/>
<path d="M107.499 115.657C115.269 117.027 109.459 144.513 99.6322 144.061C89.8055 143.606 84.9411 147.264 84.9411 147.264L84.9369 147.262C75.2729 135.014 78.946 120.789 96.0081 110.035C96.1783 109.992 96.2655 109.971 96.2655 109.971C96.2655 109.971 99.7343 114.285 107.499 115.657Z" fill="#FFEF33"/>
<path d="M215.317 108.729C241.17 123.615 239.932 146.055 211.466 160.222C182.845 174.467 137.047 175.198 106.666 162.344C113.704 157.142 128.645 157.851 128.645 157.851L208.142 118.619C208.142 118.619 208.111 113.509 215.317 108.729Z" fill="#FEB012"/>
<path d="M113.416 114.093C89.6877 124.873 89.8515 142.276 113.783 152.966C137.714 163.654 176.35 163.581 200.079 152.8C223.807 142.02 223.643 124.617 199.712 113.927C175.781 103.239 137.145 103.312 113.416 114.093Z" fill="#FCDA15"/>
<path d="M114.609 139.766C122.143 136.509 126.437 129.674 124.2 124.499C121.963 119.325 114.042 117.77 106.508 121.027C98.9746 124.284 94.6806 131.119 96.9175 136.293C99.1544 141.468 107.075 143.023 114.609 139.766Z" fill="#FFEF33"/>
<path d="M209.251 119.421C223.106 129.932 220.072 143.716 200.078 152.798L199.881 152.886C179.755 161.949 149.037 163.362 125.609 157.091C119.137 149.906 127.636 138.584 147.661 129.516C167.818 120.389 193.179 116.479 209.251 119.421Z" fill="#FCA711"/>
<path d="M113.417 114.091C89.6853 124.869 89.8523 142.272 113.787 152.962C114.585 153.319 115.394 153.662 116.227 153.993C94.9327 143.242 95.6432 126.738 118.474 116.369C141.414 105.947 178.282 105.53 202.327 115.171C201.495 114.746 200.621 114.331 199.714 113.926C175.781 103.233 137.148 103.309 113.417 114.091Z" fill="#FFAE12"/>
<path d="M197.268 112.893C207.549 118.082 212.704 124.613 212.708 131.147C212.719 136.669 209.058 142.193 201.712 146.913C199.745 148.177 197.514 149.384 195.017 150.518C172.08 160.938 135.212 161.356 111.168 151.714C112 152.14 112.874 152.555 113.782 152.96C137.713 163.651 176.347 163.576 200.074 152.796C203.096 151.425 205.733 149.944 207.975 148.385C215.313 143.291 218.528 137.344 217.617 131.505L217.613 131.502C216.614 125.089 210.638 118.806 199.707 113.922C198.91 113.567 198.101 113.223 197.268 112.893Z" fill="#FFD00D"/>
<path d="M217.614 131.506L217.619 131.508C218.53 137.347 215.315 143.293 207.977 148.389C203.23 148.742 201.967 147.31 201.713 146.916C209.059 142.197 212.72 136.673 212.709 131.151C212.709 131.151 215.526 130.15 217.614 131.506Z" fill="#FFEF33"/>
<path d="M91.5439 121.04C95.9073 121.48 98.106 125.076 96.4551 129.072C94.8031 133.07 89.927 135.954 85.5636 135.514C81.2002 135.075 79.0015 131.479 80.6524 127.482C82.3033 123.486 87.1805 120.601 91.5439 121.04Z" fill="#FCFDAF"/>
</g>
<g filter="url(#filter3_d_622_1610)">
<path d="M156.34 141.314L138.41 146.558C137.618 146.803 136.79 146.908 135.926 146.873C135.062 146.838 134.306 146.698 133.658 146.453C133.01 146.209 132.506 145.903 132.146 145.537C131.786 145.17 131.714 144.759 131.93 144.303L136.682 134.391L120.805 127.73C120.085 127.415 119.635 127.056 119.457 126.653C119.278 126.251 119.331 125.858 119.617 125.474C119.902 125.091 120.334 124.776 120.913 124.53C121.492 124.284 122.284 124.127 123.289 124.058L144.243 123.167L152.343 113.831C152.703 113.411 153.262 113.097 154.02 112.887C154.777 112.677 155.551 112.572 156.34 112.572C157.129 112.572 157.902 112.677 158.66 112.887C159.417 113.097 159.976 113.411 160.336 113.831L168.437 123.167L189.391 124.058C190.399 124.128 191.191 124.286 191.767 124.53C192.343 124.775 192.775 125.09 193.063 125.474C193.351 125.859 193.406 126.253 193.227 126.656C193.049 127.058 192.598 127.416 191.875 127.73L175.998 134.391L180.75 144.303C180.966 144.758 180.894 145.169 180.534 145.537C180.174 145.905 179.67 146.21 179.022 146.453C178.374 146.697 177.618 146.837 176.754 146.873C175.889 146.909 175.061 146.805 174.269 146.558L156.34 141.314Z" fill="#FCF07D"/>
</g>
<defs>
<filter id="filter0_d_622_1610" x="37.873" y="103.996" width="73.9761" height="35.3802" filterUnits="userSpaceOnUse" color-interpolation-filters="sRGB">
<feFlood flood-opacity="0" result="BackgroundImageFix"/>
<feColorMatrix in="SourceAlpha" type="matrix" values="0 0 0 0 0 0 0 0 0 0 0 0 0 0 0 0 0 0 127 0" result="hardAlpha"/>
<feOffset dy="1.07212"/>
<feComposite in2="hardAlpha" operator="out"/>
<feColorMatrix type="matrix" values="0 0 0 0 0.835294 0 0 0 0 0.411765 0 0 0 0 0.129412 0 0 0 1 0"/>
<feBlend mode="normal" in2="BackgroundImageFix" result="effect1_dropShadow_622_1610"/>
<feBlend mode="normal" in="SourceGraphic" in2="effect1_dropShadow_622_1610" result="shape"/>
</filter>
<filter id="filter1_d_622_1610" x="183.457" y="111.449" width="76.1363" height="34.3081" filterUnits="userSpaceOnUse" color-interpolation-filters="sRGB">
<feFlood flood-opacity="0" result="BackgroundImageFix"/>
<feColorMatrix in="SourceAlpha" type="matrix" values="0 0 0 0 0 0 0 0 0 0 0 0 0 0 0 0 0 0 127 0" result="hardAlpha"/>
<feOffset dx="2.16019"/>
<feComposite in2="hardAlpha" operator="out"/>
<feColorMatrix type="matrix" values="0 0 0 0 0.835294 0 0 0 0 0.411765 0 0 0 0 0.129412 0 0 0 1 0"/>
<feBlend mode="normal" in2="BackgroundImageFix" result="effect1_dropShadow_622_1610"/>
<feBlend mode="normal" in="SourceGraphic" in2="effect1_dropShadow_622_1610" result="shape"/>
</filter>
<filter id="filter2_d_622_1610" x="42.1331" y="44.002" width="238.903" height="188.412" filterUnits="userSpaceOnUse" color-interpolation-filters="sRGB">
<feFlood flood-opacity="0" result="BackgroundImageFix"/>
<feColorMatrix in="SourceAlpha" type="matrix" values="0 0 0 0 0 0 0 0 0 0 0 0 0 0 0 0 0 0 127 0" result="hardAlpha"/>
<feOffset dy="-13.8577"/>
<feGaussianBlur stdDeviation="18.7772"/>
<feComposite in2="hardAlpha" operator="out"/>
<feColorMatrix type="matrix" values="0 0 0 0 0 0 0 0 0 0 0 0 0 0 0 0 0 0 0.1 0"/>
<feBlend mode="normal" in2="BackgroundImageFix" result="effect1_dropShadow_622_1610"/>
<feBlend mode="normal" in="SourceGraphic" in2="effect1_dropShadow_622_1610" result="shape"/>
</filter>
<filter id="filter3_d_622_1610" x="119.354" y="112.572" width="73.9761" height="35.3802" filterUnits="userSpaceOnUse" color-interpolation-filters="sRGB">
<feFlood flood-opacity="0" result="BackgroundImageFix"/>
<feColorMatrix in="SourceAlpha" type="matrix" values="0 0 0 0 0 0 0 0 0 0 0 0 0 0 0 0 0 0 127 0" result="hardAlpha"/>
<feOffset dy="1.07212"/>
<feComposite in2="hardAlpha" operator="out"/>
<feColorMatrix type="matrix" values="0 0 0 0 0.835294 0 0 0 0 0.411765 0 0 0 0 0.129412 0 0 0 1 0"/>
<feBlend mode="normal" in2="BackgroundImageFix" result="effect1_dropShadow_622_1610"/>
<feBlend mode="normal" in="SourceGraphic" in2="effect1_dropShadow_622_1610" result="shape"/>
</filter>
</defs>
</svg>
