<svg width="201" height="161" viewBox="0 0 201 161" fill="none" xmlns="http://www.w3.org/2000/svg">
<g clip-path="url(#clip0_622_1947)">
<path d="M200.21 115.746H70.9766V128.092H70.9828C70.9195 132.11 72.3823 136.134 75.3785 139.93L75.3821 139.932C78.5629 143.966 83.4697 147.743 90.0989 150.987C91.238 151.542 92.402 152.073 93.6009 152.577C119.076 163.356 157.48 162.742 181.481 150.798C194.104 144.514 200.34 136.293 200.21 128.093V115.746Z" fill="#FCA711"/>
<path d="M142.952 115.75V160.025C142.059 160.081 141.165 160.121 140.268 160.15V115.751L142.952 115.75Z" fill="#F48C0F"/>
<path d="M149.405 115.75V159.502C148.577 159.59 147.749 159.67 146.918 159.744V115.75H149.405Z" fill="#F48C0F"/>
<path d="M156.206 115.75V158.575C155.448 158.703 154.683 158.82 153.914 158.934V115.75H156.206Z" fill="#F48C0F"/>
<path d="M163.15 115.75V157.201C162.458 157.363 161.758 157.516 161.055 157.663V115.75H163.15Z" fill="#F48C0F"/>
<path d="M170.046 115.75V155.334C169.42 155.528 168.785 155.718 168.148 155.897V115.75H170.046Z" fill="#F48C0F"/>
<path d="M176.701 115.749V152.955C176.141 153.182 175.572 153.406 174.998 153.622V115.748L176.701 115.749Z" fill="#F48C0F"/>
<path d="M182.911 115.75V150.064C182.446 150.313 181.97 150.558 181.483 150.8C181.457 150.81 181.432 150.826 181.406 150.836V115.75H182.911Z" fill="#F48C0F"/>
<path d="M188.479 146.679V115.75H187.168V147.565L188.479 146.679Z" fill="#F48C0F"/>
<path d="M193.217 115.75V142.797C192.862 143.145 192.488 143.489 192.104 143.833V115.75H193.217Z" fill="#F48C0F"/>
<path d="M196.919 115.75V138.421C196.634 138.845 196.329 139.271 196.004 139.688V115.751L196.919 115.75Z" fill="#F48C0F"/>
<path d="M199.396 115.75V133.414C199.194 134.037 198.956 134.659 198.678 135.278V115.75H199.396Z" fill="#F48C0F"/>
<path d="M137.033 115.75V160.223C136.073 160.238 135.113 160.238 134.154 160.227V115.75H137.033Z" fill="#F48C0F"/>
<path d="M130.923 115.749V160.148C130.026 160.119 129.132 160.075 128.238 160.023V115.748L130.923 115.749Z" fill="#F48C0F"/>
<path d="M124.27 115.75V159.74C123.439 159.67 122.611 159.59 121.783 159.502V115.75H124.27Z" fill="#F48C0F"/>
<path d="M117.273 115.75V158.93C116.504 158.82 115.742 158.699 114.98 158.575V115.75H117.273Z" fill="#F48C0F"/>
<path d="M110.13 115.749V157.658C109.428 157.512 108.727 157.357 108.035 157.192V115.748L110.13 115.749Z" fill="#F48C0F"/>
<path d="M103.038 115.749V155.896C102.401 155.713 101.767 155.523 101.141 155.325V115.748L103.038 115.749Z" fill="#F48C0F"/>
<path d="M96.193 115.75V153.62C95.6177 153.401 95.0504 153.177 94.4902 152.95V115.751L96.193 115.75Z" fill="#F48C0F"/>
<path d="M88.2793 150.063V115.75H89.7885V150.836L88.2793 150.063Z" fill="#F48C0F"/>
<path d="M84.0182 115.749V147.561C83.5678 147.267 83.1316 146.975 82.707 146.674V115.748L84.0182 115.749Z" fill="#F48C0F"/>
<path d="M77.9727 142.797V115.75H79.0858V143.83L77.9727 142.797Z" fill="#F48C0F"/>
<path d="M74.2676 138.416V115.75H75.1828V139.687L74.2676 138.416Z" fill="#F48C0F"/>
<path d="M72.511 115.75V135.268C72.2327 134.652 71.9946 134.033 71.793 133.41V115.75H72.511Z" fill="#F48C0F"/>
<path d="M89.7084 93.0607C87.8905 93.9643 86.2127 94.908 84.6624 95.8856C70.3541 104.904 67.275 116.833 75.3786 127.102L75.3822 127.104C78.563 131.138 83.4698 134.915 90.0991 138.159C91.2381 138.714 92.4022 139.245 93.601 139.749C119.076 150.528 157.48 149.914 181.481 137.969C205.352 126.089 206.389 107.273 184.71 94.7894C183.565 94.1302 182.363 93.4898 181.094 92.8707C155.751 80.4686 114.838 80.5551 89.7084 93.0607Z" fill="#FCDA15"/>
<path d="M94.2963 100.603C100.811 101.751 95.9394 124.799 87.6992 124.42C79.4591 124.039 75.38 127.106 75.38 127.106L75.3765 127.104C67.2728 116.834 70.3528 104.905 84.6602 95.8875C84.8029 95.8518 84.8761 95.834 84.8761 95.834C84.8761 95.834 87.7849 99.4519 94.2963 100.603Z" fill="#FFEF33"/>
<path d="M184.707 94.791C206.386 107.274 205.348 126.091 181.478 137.971C157.477 149.916 119.074 150.529 93.5977 139.751C99.499 135.388 112.028 135.983 112.028 135.983L178.69 103.085C178.69 103.085 178.664 98.7996 184.707 94.791Z" fill="#FEB012"/>
<path d="M99.2574 99.2877C79.3599 108.327 79.4973 122.921 99.5652 131.884C119.632 140.847 152.031 140.785 171.928 131.745C191.826 122.706 191.688 108.112 171.621 99.1485C151.554 90.1859 119.155 90.2474 99.2574 99.2877Z" fill="#FCDA15"/>
<path d="M100.259 120.815C106.576 118.084 110.177 112.353 108.301 108.014C106.426 103.675 99.7838 102.371 93.4663 105.102C87.1489 107.833 83.5482 113.564 85.4239 117.904C87.2997 122.243 93.9417 123.546 100.259 120.815Z" fill="#FFEF33"/>
<path d="M179.617 103.756C191.235 112.57 188.691 124.128 171.925 131.744L171.76 131.818C154.883 139.417 129.125 140.602 109.479 135.344C104.052 129.318 111.179 119.825 127.971 112.221C144.873 104.568 166.14 101.289 179.617 103.756Z" fill="#FCA711"/>
<path d="M99.2581 99.287C79.3579 108.325 79.498 122.918 99.5685 131.883C100.238 132.182 100.916 132.47 101.615 132.747C83.7581 123.732 84.354 109.893 103.499 101.198C122.735 92.4579 153.65 92.1083 173.814 100.193C173.116 99.8364 172.383 99.4885 171.622 99.1487C151.553 90.1825 119.157 90.2458 99.2581 99.287Z" fill="#FFAE12"/>
<path d="M169.572 98.2832C178.193 102.635 182.516 108.111 182.519 113.591C182.529 118.221 179.459 122.853 173.299 126.811C171.649 127.871 169.778 128.883 167.685 129.834C148.451 138.571 117.535 138.922 97.373 130.837C98.0706 131.194 98.8038 131.542 99.5647 131.882C119.633 140.847 152.028 140.784 171.925 131.744C174.459 130.594 176.67 129.353 178.551 128.045C184.704 123.773 187.4 118.787 186.636 113.89L186.632 113.888C185.795 108.511 180.783 103.242 171.617 99.1466C170.949 98.8487 170.27 98.5606 169.572 98.2832Z" fill="#FFD00D"/>
<path d="M186.633 113.889L186.637 113.891C187.401 118.787 184.705 123.774 178.552 128.046C174.571 128.342 173.512 127.142 173.299 126.812C179.459 122.854 182.529 118.222 182.519 113.592C182.519 113.592 184.882 112.752 186.633 113.889Z" fill="#FFEF33"/>
<path d="M80.9156 105.113C84.5745 105.482 86.4182 108.497 85.0339 111.849C83.6486 115.201 79.5598 117.619 75.9008 117.25C72.2419 116.882 70.3982 113.866 71.7825 110.515C73.1669 107.164 77.2567 104.745 80.9156 105.113Z" fill="#FCFDAF"/>
<g filter="url(#filter0_d_622_1947)">
<path d="M139.769 121.928L124.437 126.517C123.76 126.731 123.052 126.823 122.313 126.792C121.574 126.762 120.928 126.64 120.374 126.425C119.82 126.211 119.389 125.944 119.081 125.623C118.773 125.303 118.711 124.943 118.896 124.544L122.96 115.87L109.383 110.042C108.768 109.767 108.383 109.453 108.231 109.1C108.078 108.748 108.124 108.404 108.367 108.069C108.611 107.733 108.981 107.458 109.476 107.243C109.971 107.027 110.648 106.89 111.508 106.83L129.425 106.049L136.351 97.8807C136.659 97.5136 137.137 97.2382 137.785 97.0546C138.432 96.8711 139.094 96.7793 139.769 96.7793C140.443 96.7793 141.105 96.8711 141.752 97.0546C142.4 97.2382 142.878 97.5136 143.186 97.8807L150.112 106.049L168.029 106.83C168.891 106.891 169.569 107.028 170.061 107.243C170.554 107.457 170.923 107.732 171.17 108.069C171.416 108.405 171.463 108.75 171.31 109.102C171.157 109.455 170.772 109.768 170.154 110.042L156.577 115.87L160.641 124.544C160.826 124.942 160.764 125.301 160.456 125.623C160.148 125.945 159.717 126.212 159.163 126.425C158.609 126.638 157.963 126.761 157.224 126.792C156.485 126.824 155.777 126.733 155.1 126.517L139.769 121.928Z" fill="#FCF07D"/>
</g>
<path d="M129.321 115.746H0.0878906V128.092H0.0941515C0.0308206 132.11 1.49366 136.134 4.48983 139.93L4.49342 139.932C7.67424 143.966 12.581 147.743 19.2103 150.987C20.3493 151.542 21.5134 152.073 22.7122 152.577C48.1873 163.356 86.5917 162.742 110.592 150.798C123.216 144.514 129.452 136.293 129.321 128.093V115.746Z" fill="#FCA711"/>
<path d="M72.0638 115.75V160.025C71.17 160.081 70.2762 160.121 69.3789 160.15V115.751L72.0638 115.75Z" fill="#F48C0F"/>
<path d="M78.5161 115.75V159.502C77.6884 159.59 76.8606 159.67 76.0293 159.744V115.75H78.5161Z" fill="#F48C0F"/>
<path d="M85.3178 115.75V158.575C84.5596 158.703 83.7943 158.82 83.0254 158.934V115.75H85.3178Z" fill="#F48C0F"/>
<path d="M92.2613 115.75V157.201C91.5691 157.363 90.8698 157.516 90.166 157.663V115.75H92.2613Z" fill="#F48C0F"/>
<path d="M99.157 115.75V155.334C98.5309 155.528 97.8966 155.718 97.2598 155.897V115.75H99.157Z" fill="#F48C0F"/>
<path d="M105.812 115.749V152.955C105.252 153.182 104.684 153.406 104.109 153.622V115.748L105.812 115.749Z" fill="#F48C0F"/>
<path d="M112.022 115.75V150.064C111.558 150.313 111.081 150.558 110.594 150.8C110.568 150.81 110.543 150.826 110.518 150.836V115.75H112.022Z" fill="#F48C0F"/>
<path d="M117.591 146.679V115.75H116.279V147.565L117.591 146.679Z" fill="#F48C0F"/>
<path d="M122.328 115.75V142.797C121.973 143.145 121.599 143.489 121.215 143.833V115.75H122.328Z" fill="#F48C0F"/>
<path d="M126.03 115.75V138.421C125.745 138.845 125.441 139.271 125.115 139.688V115.751L126.03 115.75Z" fill="#F48C0F"/>
<path d="M128.507 115.75V133.414C128.306 134.037 128.067 134.659 127.789 135.278V115.75H128.507Z" fill="#F48C0F"/>
<path d="M66.1441 115.75V160.223C65.1843 160.238 64.2245 160.238 63.2656 160.227V115.75H66.1441Z" fill="#F48C0F"/>
<path d="M60.0345 115.749V160.148C59.1372 160.119 58.2434 160.075 57.3496 160.023V115.748L60.0345 115.749Z" fill="#F48C0F"/>
<path d="M53.3814 115.75V159.74C52.55 159.67 51.7223 159.59 50.8945 159.502V115.75H53.3814Z" fill="#F48C0F"/>
<path d="M46.3842 115.75V158.93C45.6153 158.82 44.8536 158.699 44.0918 158.575V115.75H46.3842Z" fill="#F48C0F"/>
<path d="M39.2418 115.749V157.658C38.5389 157.512 37.8387 157.357 37.1465 157.192V115.748L39.2418 115.749Z" fill="#F48C0F"/>
<path d="M32.1492 115.749V155.896C31.5123 155.713 30.8781 155.523 30.252 155.325V115.748L32.1492 115.749Z" fill="#F48C0F"/>
<path d="M25.3044 115.75V153.62C24.729 153.401 24.1617 153.177 23.6016 152.95V115.751L25.3044 115.75Z" fill="#F48C0F"/>
<path d="M17.3906 150.063V115.75H18.8999V150.836L17.3906 150.063Z" fill="#F48C0F"/>
<path d="M13.1296 115.749V147.561C12.6791 147.267 12.2429 146.975 11.8184 146.674V115.748L13.1296 115.749Z" fill="#F48C0F"/>
<path d="M7.08398 142.797V115.75H8.19717V143.83L7.08398 142.797Z" fill="#F48C0F"/>
<path d="M3.37891 138.416V115.75H4.29408V139.687L3.37891 138.416Z" fill="#F48C0F"/>
<path d="M1.62234 115.75V135.268C1.34404 134.652 1.10589 134.033 0.904297 133.41V115.75H1.62234Z" fill="#F48C0F"/>
<path d="M18.8216 93.0607C17.0038 93.9643 15.326 94.908 13.7757 95.8856C-0.532616 104.904 -3.61177 116.833 4.49191 127.102L4.49551 127.104C7.67632 131.138 12.5831 134.915 19.2124 138.159C20.3514 138.714 21.5155 139.245 22.7143 139.749C48.1894 150.528 86.5938 149.914 110.594 137.969C134.465 126.089 135.502 107.273 113.823 94.7894C112.678 94.1302 111.477 93.4898 110.207 92.8707C84.8642 80.4686 43.9515 80.5551 18.8216 93.0607Z" fill="#FCDA15"/>
<path d="M23.4096 100.601C29.9247 101.749 25.0527 124.797 16.8125 124.418C8.57236 124.037 4.49331 127.104 4.49331 127.104L4.48974 127.102C-3.61393 116.832 -0.533921 104.904 13.7735 95.8855C13.9162 95.8499 13.9894 95.832 13.9894 95.832C13.9894 95.832 16.8981 99.4499 23.4096 100.601Z" fill="#FFEF33"/>
<path d="M113.822 94.791C135.501 107.274 134.463 126.091 110.593 137.971C86.5924 149.916 48.1889 150.529 22.7129 139.751C28.6143 135.388 41.1431 135.983 41.1431 135.983L107.806 103.085C107.806 103.085 107.78 98.7996 113.822 94.791Z" fill="#FEB012"/>
<path d="M28.3727 99.2857C8.47517 108.325 8.61254 122.919 28.6804 131.882C48.7474 140.845 81.1461 140.784 101.044 131.743C120.941 122.704 120.804 108.11 100.736 99.1466C80.6688 90.1839 48.2702 90.2455 28.3727 99.2857Z" fill="#FCDA15"/>
<path d="M29.3724 120.815C35.6899 118.084 39.2906 112.353 37.4148 108.014C35.539 103.675 28.8971 102.371 22.5796 105.102C16.2622 107.833 12.6614 113.564 14.5372 117.904C16.413 122.243 23.055 123.546 29.3724 120.815Z" fill="#FFEF33"/>
<path d="M108.732 103.754C120.35 112.568 117.806 124.126 101.041 131.742L100.876 131.816C83.9983 139.415 58.2404 140.6 38.5945 135.342C33.1676 129.316 40.2946 119.823 57.0862 112.219C73.9884 104.566 95.2551 101.287 108.732 103.754Z" fill="#FCA711"/>
<path d="M28.3734 99.285C8.47317 108.323 8.61321 122.916 28.6838 131.881C29.3527 132.18 30.0316 132.468 30.73 132.745C12.8733 123.73 13.4692 109.891 32.6138 101.196C51.8504 92.456 82.7657 92.1063 102.929 100.191C102.231 99.8345 101.498 99.4866 100.737 99.1467C80.6686 90.1805 48.2726 90.2438 28.3734 99.285Z" fill="#FFAE12"/>
<path d="M98.6873 98.2832C107.308 102.635 111.631 108.111 111.634 113.591C111.644 118.221 108.574 122.853 102.414 126.811C100.765 127.871 98.8933 128.883 96.7999 129.834C77.566 138.571 46.6507 138.922 26.4883 130.837C27.1858 131.194 27.919 131.542 28.6799 131.882C48.7478 140.847 81.1437 140.784 101.04 131.744C103.574 130.594 105.786 129.353 107.666 128.045C113.819 123.773 116.515 118.787 115.751 113.89L115.747 113.888C114.91 108.511 109.899 103.242 100.733 99.1466C100.065 98.8487 99.3857 98.5606 98.6873 98.2832Z" fill="#FFD00D"/>
<path d="M115.746 113.889L115.75 113.891C116.514 118.787 113.818 123.774 107.665 128.046C103.684 128.342 102.625 127.142 102.412 126.812C108.572 122.854 111.642 118.222 111.633 113.592C111.633 113.592 113.995 112.752 115.746 113.889Z" fill="#FFEF33"/>
<path d="M10.0289 105.113C13.6878 105.482 15.5315 108.497 14.1472 111.849C12.7619 115.201 8.67304 117.619 5.01412 117.25C1.3552 116.882 -0.488542 113.866 0.895819 110.515C2.28018 107.164 6.36994 104.745 10.0289 105.113Z" fill="#FCFDAF"/>
<g filter="url(#filter1_d_622_1947)">
<path d="M63.6494 121.928L48.3183 126.517C47.641 126.731 46.9329 126.823 46.1941 126.792C45.4552 126.762 44.8087 126.64 44.2546 126.425C43.7005 126.211 43.2695 125.944 42.9616 125.623C42.6538 125.303 42.5922 124.943 42.7769 124.544L46.8406 115.87L33.2642 110.042C32.6485 109.767 32.2643 109.453 32.1116 109.1C31.9589 108.748 32.0045 108.404 32.2483 108.069C32.4921 107.733 32.8616 107.458 33.3566 107.243C33.8516 107.027 34.5289 106.89 35.3884 106.83L53.3055 106.049L60.2322 97.8807C60.54 97.5136 61.0178 97.2382 61.6656 97.0546C62.3133 96.8711 62.9746 96.7793 63.6494 96.7793C64.3242 96.7793 64.9855 96.8711 65.6332 97.0546C66.2809 97.2382 66.7587 97.5136 67.0665 97.8807L73.9932 106.049L91.9103 106.83C92.7723 106.891 93.4496 107.028 93.9421 107.243C94.4347 107.457 94.8041 107.732 95.0504 108.069C95.2967 108.405 95.3435 108.75 95.1908 109.102C95.0381 109.455 94.6527 109.768 94.0345 110.042L80.4582 115.87L84.5218 124.544C84.7065 124.942 84.645 125.301 84.3371 125.623C84.0293 125.945 83.5983 126.212 83.0441 126.425C82.49 126.638 81.8435 126.761 81.1047 126.792C80.3658 126.824 79.6577 126.733 78.9805 126.517L63.6494 121.928Z" fill="#FCF07D"/>
</g>
<path d="M101.638 128.538C98.9582 128.538 100.725 128.538 100.725 128.538C100.725 128.538 100.725 102.849 100.725 64.247C100.725 25.7107 100.725 0.0216413 100.725 0.0216413C100.725 0.0216413 99.1114 0.0214844 101.638 0.0214844C136.819 0.0214844 164.651 30.3467 164.651 64.1217C164.651 98.9556 136.524 128.538 101.638 128.538Z" fill="#FF9F00"/>
<path d="M163.97 64.2817C163.97 99.7832 135.322 128.563 99.9848 128.563C64.6473 128.563 36 99.7832 36 64.2817C36 28.7802 64.6473 0 99.9848 0C135.322 0 163.97 28.7802 163.97 64.2817Z" fill="url(#paint0_linear_622_1947)"/>
<path d="M151.174 64.2818C151.174 92.6834 128.256 115.707 99.9857 115.707C71.7153 115.707 48.7979 92.6834 48.7979 64.2818C48.7979 35.8802 71.7153 12.8564 99.9857 12.8564C128.256 12.8564 151.174 35.8802 151.174 64.2818Z" fill="#FFBB00"/>
<path d="M146.374 64.282C146.374 90.021 125.605 110.886 99.9852 110.886C74.365 110.886 53.5962 90.021 53.5962 64.282C53.5962 38.5429 74.365 17.6777 99.9852 17.6777C125.605 17.6777 146.374 38.5429 146.374 64.282Z" fill="url(#paint1_linear_622_1947)"/>
<path d="M102.308 34.6997L109.979 50.3157C110.474 51.323 111.431 52.0217 112.537 52.1831L129.692 54.6875C131.085 54.8906 131.641 56.6108 130.633 57.5982L118.221 69.7539C117.42 70.5381 117.055 71.6675 117.244 72.7751L120.173 89.939C120.411 91.3332 118.955 92.3965 117.709 91.7382L102.366 83.6342C101.376 83.1116 100.194 83.1116 99.2037 83.6342L83.8607 91.7382C82.6143 92.3965 81.158 91.3332 81.396 89.939L84.3259 72.7751C84.5147 71.6675 84.1493 70.5381 83.3489 69.7539L70.9364 57.5982C69.928 56.6108 70.4841 54.8906 71.8777 54.6875L89.032 52.1831C90.1389 52.0217 91.0955 51.323 91.5901 50.3157L99.2612 34.6997C99.8845 33.4315 101.685 33.4315 102.308 34.6997Z" fill="url(#paint2_linear_622_1947)"/>
<path d="M111.578 51.9223C112.073 52.9296 113.03 53.6284 114.137 53.7897L131.14 56.2723C131.09 55.5189 130.552 54.8131 129.691 54.6871L112.537 52.1827C112.185 52.1312 111.857 52.0085 111.545 51.8555L111.578 51.9223Z" fill="#E26500"/>
<path d="M82.9955 91.5447L85.9254 74.3808C86.1141 73.2733 85.7494 72.1438 84.9483 71.3596L83.4978 69.939C84.1824 70.711 84.5011 71.7459 84.3258 72.7738L81.3959 89.9377C81.2129 91.0086 82.0313 91.8757 82.9853 91.9259C82.9789 91.8012 82.9731 91.6765 82.9955 91.5447Z" fill="#E26500"/>
<path d="M73.4773 56.2945L90.631 53.7901C91.7379 53.6288 92.6945 52.93 93.1897 51.9227L100.861 36.3068C101.218 35.5798 101.96 35.2841 102.647 35.3901L102.308 34.6997C101.685 33.4315 99.8845 33.4315 99.2612 34.6997L91.5901 50.3157C91.0949 51.323 90.1383 52.0217 89.0314 52.1831L71.8777 54.6875C70.4841 54.8906 69.928 56.6108 70.9364 57.5982L72.4119 59.0439C71.6032 58.0417 72.1541 56.4874 73.4773 56.2945Z" fill="#E26500"/>
<mask id="mask0_622_1947" style="mask-type:alpha" maskUnits="userSpaceOnUse" x="36" y="0" width="130" height="129">
<path d="M100.787 0C65.2856 0 36.5054 28.7796 36.5054 64.2817C36.5054 99.7832 65.2856 128.563 100.787 128.563C136.289 128.563 165.069 99.7832 165.069 64.2817C165.069 28.7796 136.289 0 100.787 0ZM100.787 115.707C72.3855 115.707 49.3617 92.6833 49.3617 64.2817C49.3617 35.8801 72.3855 12.8563 100.787 12.8563C129.189 12.8563 152.212 35.8801 152.212 64.2817C152.212 92.6833 129.189 115.707 100.787 115.707Z" fill="#231526"/>
<path d="M100.787 17.6777C75.0478 17.6777 54.1826 38.5429 54.1826 64.282C54.1826 90.021 75.0478 110.886 100.787 110.886C126.526 110.886 147.391 90.021 147.391 64.282C147.391 38.5429 126.526 17.6777 100.787 17.6777Z" fill="#231526"/>
</mask>
<g mask="url(#mask0_622_1947)">
<g opacity="0.5">
<path d="M102.217 173.78L69.1612 213.175L-54.9194 109.059L-21.8638 69.6645L102.217 173.78Z" fill="white"/>
</g>
</g>
</g>
<defs>
<filter id="filter0_d_622_1947" x="108.143" y="96.7793" width="65.4156" height="30.019" filterUnits="userSpaceOnUse" color-interpolation-filters="sRGB">
<feFlood flood-opacity="0" result="BackgroundImageFix"/>
<feColorMatrix in="SourceAlpha" type="matrix" values="0 0 0 0 0 0 0 0 0 0 0 0 0 0 0 0 0 0 127 0" result="hardAlpha"/>
<feOffset dx="2.16019"/>
<feComposite in2="hardAlpha" operator="out"/>
<feColorMatrix type="matrix" values="0 0 0 0 0.835294 0 0 0 0 0.411765 0 0 0 0 0.129412 0 0 0 1 0"/>
<feBlend mode="normal" in2="BackgroundImageFix" result="effect1_dropShadow_622_1947"/>
<feBlend mode="normal" in="SourceGraphic" in2="effect1_dropShadow_622_1947" result="shape"/>
</filter>
<filter id="filter1_d_622_1947" x="32.0234" y="96.7793" width="65.4151" height="30.019" filterUnits="userSpaceOnUse" color-interpolation-filters="sRGB">
<feFlood flood-opacity="0" result="BackgroundImageFix"/>
<feColorMatrix in="SourceAlpha" type="matrix" values="0 0 0 0 0 0 0 0 0 0 0 0 0 0 0 0 0 0 127 0" result="hardAlpha"/>
<feOffset dx="2.16019"/>
<feComposite in2="hardAlpha" operator="out"/>
<feColorMatrix type="matrix" values="0 0 0 0 0.835294 0 0 0 0 0.411765 0 0 0 0 0.129412 0 0 0 1 0"/>
<feBlend mode="normal" in2="BackgroundImageFix" result="effect1_dropShadow_622_1947"/>
<feBlend mode="normal" in="SourceGraphic" in2="effect1_dropShadow_622_1947" result="shape"/>
</filter>
<linearGradient id="paint0_linear_622_1947" x1="66.0281" y1="10.26" x2="143.36" y2="112.022" gradientUnits="userSpaceOnUse">
<stop stop-color="#FFEA00"/>
<stop offset="0.5" stop-color="#FFC700"/>
<stop offset="1" stop-color="#FFA500"/>
</linearGradient>
<linearGradient id="paint1_linear_622_1947" x1="74.9185" y1="24.7879" x2="132.157" y2="99.3536" gradientUnits="userSpaceOnUse">
<stop stop-color="#FFE900"/>
<stop offset="0.5" stop-color="#FFC700"/>
<stop offset="1" stop-color="#FFA600"/>
</linearGradient>
<linearGradient id="paint2_linear_622_1947" x1="100.625" y1="33.427" x2="100.625" y2="91.6167" gradientUnits="userSpaceOnUse">
<stop stop-color="#FFAD00"/>
<stop offset="0.5" stop-color="#FF8F00"/>
<stop offset="1" stop-color="#FF7100"/>
</linearGradient>
<clipPath id="clip0_622_1947">
<rect width="201" height="161" fill="white"/>
</clipPath>
</defs>
</svg>
