<svg width="943" height="551" viewBox="0 0 943 551" fill="none" xmlns="http://www.w3.org/2000/svg">
<mask id="mask0_2022_1885" style="mask-type:luminance" maskUnits="userSpaceOnUse" x="0" y="252" width="406" height="299">
<path d="M0.666667 252.728H404.813V549.367H0.666667V252.728Z" fill="white" stroke="white" stroke-width="1.33333"/>
</mask>
<g mask="url(#mask0_2022_1885)">
<path d="M261.887 520.005L226.493 540.438H5.32812V416.149L25.8076 395.673" stroke="#21106A" stroke-width="7.38884" stroke-miterlimit="22.926"/>
</g>
<mask id="mask1_2022_1885" style="mask-type:luminance" maskUnits="userSpaceOnUse" x="0" y="307" width="275" height="244">
<path d="M0.666667 307.672H273.426V549.367H0.666667V307.672Z" fill="white" stroke="white" stroke-width="1.33333"/>
</mask>
<g mask="url(#mask1_2022_1885)">
<path d="M230.919 516.975L198.57 549.324H13.1445V371.261L34.1963 350.206" stroke="#21106A" stroke-width="2.21145" stroke-miterlimit="22.926"/>
</g>
<mask id="mask2_2022_1885" style="mask-type:luminance" maskUnits="userSpaceOnUse" x="0" y="297" width="58" height="254">
<path d="M0.666667 298.117H56.8369V549.367H0.666667V298.117Z" fill="white" stroke="white" stroke-width="1.33333"/>
</mask>
<g mask="url(#mask2_2022_1885)">
<path d="M22.8563 524.26L0.463867 501.871V401.063L18.4114 383.116V336.969L27.5158 327.864" stroke="#21106A" stroke-width="1.53501" stroke-miterlimit="22.926"/>
</g>
<path d="M890.096 59.4786L890.096 59.4782C890.146 58.967 890.173 58.4571 890.173 57.9423C890.173 57.4308 890.146 56.921 890.096 56.4063C890.045 55.8958 889.97 55.3883 889.872 54.8836C889.77 54.3801 889.645 53.885 889.496 53.3921C889.347 52.9 889.174 52.4169 888.977 51.9427L888.975 51.9394C888.783 51.4683 888.563 51.0067 888.32 50.5511C888.08 50.1003 887.814 49.662 887.53 49.2332C887.243 48.8059 886.939 48.3945 886.614 47.9987C886.284 47.5993 885.941 47.2182 885.58 46.8602L885.576 46.8563L885.576 46.8563C885.217 46.4936 884.836 46.1482 884.439 45.8231C884.042 45.4982 883.63 45.1935 883.202 44.9061C882.778 44.6211 882.337 44.3588 881.885 44.1162C881.431 43.8745 880.966 43.6539 880.492 43.4573C880.016 43.2625 879.535 43.0895 879.044 42.9408C878.552 42.7916 878.054 42.6663 877.552 42.5647C877.048 42.4663 876.541 42.3917 876.03 42.341L890.096 59.4786ZM890.096 59.4786C890.045 59.9919 889.97 60.4993 889.872 61.0038C889.77 61.5051 889.645 62.0034 889.496 62.4956C889.347 62.9869 889.174 63.4669 888.977 63.9419L888.975 63.9452C888.783 64.4168 888.563 64.8812 888.321 65.3353C888.079 65.7851 887.814 66.2268 887.53 66.6544C887.243 67.0818 886.939 67.4932 886.614 67.8891M890.096 59.4786L886.614 67.8891M886.614 67.8891C886.284 68.2884 885.941 68.6695 885.58 69.0275L885.58 69.0275L885.576 69.0314C885.218 69.3924 884.837 69.735 884.438 70.0654C884.042 70.3897 883.631 70.6938 883.203 70.9807C882.776 71.2646 882.334 71.5302 881.885 71.7714C881.43 72.0135 880.966 72.2338 880.494 72.4266L880.491 72.428C880.016 72.6251 879.536 72.798 879.044 72.9469C878.551 73.0963 878.054 73.2214 877.554 73.3196L877.551 73.3202C877.048 73.4213 876.542 73.4959 876.031 73.5467C875.518 73.5973 875.008 73.6212 874.491 73.6212C873.977 73.6212 873.467 73.5973 872.955 73.5467C872.444 73.4959 871.937 73.4213 871.434 73.3202L871.431 73.3194C870.929 73.2215 870.434 73.0965 869.941 72.9469C869.449 72.7978 868.966 72.6248 868.492 72.428L868.488 72.4266C868.017 72.234 867.556 72.0138 867.1 71.7711C866.649 71.5307 866.211 71.2655 865.782 70.9806C865.355 70.6938 864.943 70.3897 864.548 70.0655C864.148 69.7351 863.767 69.3924 863.409 69.0314L863.409 69.0314L863.405 69.0275C863.042 68.6678 862.697 68.2867 862.372 67.8901C862.047 67.4936 861.742 67.0814 861.455 66.6533C861.17 66.2289 860.908 65.7878 860.665 65.3356C860.423 64.882 860.203 64.4169 860.006 63.9436C859.811 63.4669 859.638 62.9864 859.49 62.4956C859.34 62.0033 859.215 61.505 859.114 61.0036C859.015 60.4992 858.941 59.9919 858.89 59.4786L858.89 59.4782C858.839 58.967 858.812 58.4571 858.812 57.9423C858.812 57.4308 858.839 56.921 858.89 56.4063L886.614 67.8891ZM858.89 56.406C858.941 55.8956 859.015 55.3882 859.114 54.8836C859.215 54.3801 859.34 53.885 859.49 53.3921C859.639 52.9005 859.812 52.4168 860.006 51.941C860.202 51.4683 860.423 51.0061 860.665 50.5511L860.077 50.2376L860.665 50.5511C860.907 50.0979 861.169 49.66 861.455 49.2344C861.742 48.8062 862.047 48.3941 862.372 47.9976C862.697 47.601 863.042 47.2199 863.405 46.8602L863.405 46.8602L863.409 46.8563C863.769 46.4936 864.15 46.1482 864.546 45.8231C864.943 45.4982 865.355 45.1935 865.783 44.9061C866.209 44.6203 866.647 44.3582 867.1 44.1166C867.555 43.8742 868.017 43.6536 868.49 43.4573C868.966 43.2628 869.449 43.0897 869.941 42.9408C870.434 42.7914 870.929 42.6662 871.432 42.5648C871.937 42.4663 872.445 42.3917 872.955 42.3409C873.47 42.2901 873.98 42.2633 874.491 42.2633C875.006 42.2633 875.516 42.2901 876.03 42.3409L858.89 56.406Z" fill="#D6DF20" stroke="#21106A" stroke-width="1.33333"/>
<mask id="mask3_2022_1885" style="mask-type:luminance" maskUnits="userSpaceOnUse" x="535" y="103" width="406" height="299">
<path d="M535.667 103.667H939.67V400.579H535.667V103.667Z" fill="white" stroke="white" stroke-width="1.33333"/>
</mask>
<g mask="url(#mask3_2022_1885)">
<path d="M681.249 30.1935L716.646 9.76074H937.824V134.046L917.329 154.541" stroke="#21106A" stroke-width="7.38884" stroke-miterlimit="22.926"/>
</g>
<mask id="mask4_2022_1885" style="mask-type:luminance" maskUnits="userSpaceOnUse" x="669" y="0" width="274" height="244">
<path d="M669.715 0.666667H942.332V242.636H669.715V0.666667Z" fill="white" stroke="white" stroke-width="1.33333"/>
</mask>
<g mask="url(#mask4_2022_1885)">
<path d="M712.232 33.2387L744.581 0.889648H929.994V178.937L908.94 199.989" stroke="#21106A" stroke-width="2.21145" stroke-miterlimit="22.926"/>
</g>
<mask id="mask5_2022_1885" style="mask-type:luminance" maskUnits="userSpaceOnUse" x="885" y="0" width="58" height="253">
<path d="M886.306 0.666667H942.333V251.395H886.306V0.666667Z" fill="white" stroke="white" stroke-width="1.33333"/>
</mask>
<g mask="url(#mask5_2022_1885)">
<path d="M920.3 25.9355L942.69 48.3248V149.136L924.742 167.08V213.227L915.622 222.332" stroke="#21106A" stroke-width="1.53501" stroke-miterlimit="22.926"/>
</g>
<path d="M40.0709 505.538V506.205H40.7376H909.142H909.809V505.538V38.3647V37.698H909.142H40.7376H40.0709V38.3647V88.2413V88.2569V505.538ZM22.4645 19.2829H924.479V526.082H22.4645V19.2829Z" fill="#320033" stroke="#21106A" stroke-width="1.33333"/>
<path d="M498.511 19.2673H911.909V504.856H911.884H911.637H911.382H911.118H910.846H910.567H910.279H909.983H909.679H909.367H909.047H908.72H908.384H908.041H907.69H907.331H906.964H906.59H906.207H905.818H905.421H905.016H904.603H904.184H903.756H903.322H902.879H902.43H901.973H901.509H901.038H900.559H900.074H899.581H899.081H898.574H898.06H897.539H897.01H896.476H895.934H895.385H894.829H894.267H893.698H893.122H892.539H891.95H891.354H890.751H890.142H889.526H888.904H888.276H887.641H886.999H886.351H885.697H885.037H884.37H883.697H883.018H882.333H881.642H880.944H880.241H879.531H878.816H878.095H877.367H876.634H875.895H875.15H874.399H873.643H872.881H872.113H871.34H870.561H869.776H868.986H868.191H867.389H866.583H865.771H864.954H864.131H863.303H862.47H861.632H860.788H859.939H859.085H858.226H857.362H856.493H855.619H854.74H853.856H852.968H852.074H851.176H850.272H849.364H848.452H847.534H846.612H845.685H844.754H843.818H842.878H841.933H840.984H840.031H839.073H838.11H837.144H836.173H835.198H834.219H833.235H832.247H831.256H830.26H829.26H828.256H827.249H826.237H825.221H824.202H823.179H822.152H821.121H820.086H819.048H818.006H816.961H815.912H814.859H813.803H812.743H811.68H810.614H809.544H808.471H807.394H806.315H805.232H804.145H803.056H801.964H800.868H799.769H798.668H797.563H796.455H795.344H794.231H793.115H791.995H790.873H789.749H788.621H787.491H786.358H785.223H784.084H782.944H781.801H780.655H779.507H778.357H777.204H776.048H774.891H773.731H772.569H771.405H770.238H769.07H767.899H766.726H765.551H764.374H763.196H762.015H760.832H759.648H758.461H757.273H756.083H754.892H753.698H752.503H751.307H750.108H748.908H747.707H746.504H745.3H744.094H742.887H741.679H740.469H739.258H738.045H736.832H735.617H734.401H733.184H731.966H730.747H729.527H728.306H727.084H725.861H724.637H723.412H722.187H720.961H719.734H718.506H717.277H716.048H714.819H713.589H712.358H711.127H709.895H708.663H707.43H706.197H704.964H703.731H702.497H701.263H700.029H698.794H697.56H696.326H695.091H693.856H692.622H691.387H690.153H688.918H687.684H686.45H685.216H683.983H682.75H681.517H680.284H679.052H677.82H676.589H675.358H674.128H672.898H671.669H670.44H669.213H667.986H666.759H665.534H664.309H663.085H661.862H660.64H659.418H658.198H656.979H655.761H654.543H653.327H652.113H650.899H649.686H648.475H647.265H646.057H644.849H643.643H642.439H641.236H640.034H638.834H637.636H636.439H635.244H634.05H632.858H631.668H630.48H629.293H628.108H626.925H625.744H624.565H623.388H622.213H621.04H619.869H618.7H617.533H616.369H615.206H614.046H612.888H611.733H610.58H609.429H608.28H607.134H605.991H604.85H603.712H602.576H601.443H600.312H599.184H598.059H596.937H595.817H594.7H593.586H592.475H591.367H590.262H589.16H588.061H586.965H585.872H584.782H583.695H582.612H581.532H580.455H579.381H578.311H577.244H576.181H575.121H574.064H573.011H571.961H570.915H569.873H568.834H567.799H566.768H565.741H564.717H563.697H562.681H561.669H560.66H559.656H558.656H557.659H556.667H555.679H554.695H553.715H552.739H551.768H550.801H549.838H548.879H547.925H546.975H546.03H545.089H544.153H543.221H542.294H541.371H540.453H539.54H538.631H537.727H536.828H535.934H535.044H534.16H533.28H532.405H531.536H530.671H529.811H528.957H528.107H527.263H526.424H525.59H524.761H523.938H523.12H522.307H521.5H520.698H519.902H519.111H518.326H517.546H516.772H516.003H515.241H514.483H513.732H512.986H512.246H511.512H510.784H510.062H509.346H508.636H507.931H507.233H506.541H505.855H505.175H504.501H503.834H503.173H502.518H501.869H501.227H500.591H499.961H499.338H498.722H498.112H497.509H496.912H496.322H495.738H495.161H494.591H494.028H493.471H492.921H492.379H491.843H491.314H490.792H490.277H489.769H489.268H488.774H488.287H487.808H487.335H486.87H486.413H485.962H485.519H485.083H484.655H484.234H483.821H483.415H483.017H482.626H482.243H481.868H481.5H481.14H480.788H480.443H480.107H479.778H479.457H479.144H478.839H478.542H478.253H477.972H477.7H477.435H477.179H476.93H476.69H476.459H476.235H476.02H475.813H475.615H475.425H475.244H475.071H474.907H474.751H474.604H474.465H474.336H474.215H474.102H473.999H473.904H473.818H473.741H473.673H473.614H473.564H473.523H473.491H473.468H473.454C473.454 504.856 473.454 504.856 473.453 504.858C473.451 504.871 473.45 504.956 473.45 505.522V504.856H473.217L473.035 505.001L446.554 526.066H106.804H105.195L105.21 526.082H37.9548V39.0157H37.9756H38.2211H38.4749H38.7367H39.0067H39.2846H39.5707H39.8646H40.1666H40.4764H40.7942H41.1198H41.4532H41.7943H42.1432H42.4999H42.8642H43.2361H43.6157H44.0028H44.3975H44.7997H45.2094H45.6265H46.051H46.4828H46.922H47.3685H47.8223H48.2833H48.7516H49.2269H49.7094H50.1991H50.6957H51.1994H51.7101H52.2278H52.7524H53.2839H53.8222H54.3674H54.9194H55.4781H56.0436H56.6157H57.1945H57.7799H58.3719H58.9705H59.5756H60.1871H60.8051H61.4296H62.0604H62.6976H63.3411H63.9908H64.6468H65.3091H65.9775H66.652H67.3327H68.0194H68.7122H69.411H70.1158H70.8265H71.5431H72.2656H72.9939H73.7281H74.468H75.2136H75.965H76.722H77.4846H78.2529H79.0267H79.806H80.5909H81.3812H82.1769H82.9781H83.7846H84.5964H85.4136H86.2359H87.0636H87.8964H88.7343H89.5774H90.4256H91.2788H92.1371H93.0004H93.8686H94.7417H95.6197H96.5025H97.3902H98.2827H99.1799H100.082H100.988H101.9H102.816H103.736H104.661H105.591H106.525H107.463H108.406H109.353H110.305H111.26H112.221H113.185H114.154H115.126H116.103H117.084H118.069H119.058H120.051H121.049H122.05H123.054H124.063H125.076H126.092H127.112H128.136H129.164H130.195H131.23H132.268H133.31H134.356H135.405H136.458H137.513H138.573H139.635H140.701H141.771H142.843H143.919H144.998H146.08H147.165H148.253H149.345H150.439H151.536H152.637H153.74H154.846H155.955H157.066H158.181H159.298H160.418H161.541H162.666H163.794H164.924H166.057H167.193H168.331H169.471H170.614H171.759H172.906H174.056H175.208H176.362H177.519H178.677H179.838H181.001H182.166H183.333H184.502H185.673H186.846H188.02H189.197H190.375H191.555H192.737H193.921H195.106H196.293H197.482H198.672H199.864H201.057H202.252H203.448H204.646H205.845H207.045H208.247H209.45H210.654H211.859H213.066H214.273H215.482H216.692H217.903H219.115H220.328H221.542H222.756H223.972H225.189H226.406H227.624H228.843H230.062H231.282H232.503H233.724H234.946H236.169H237.391H238.615H239.839H241.063H242.288H243.512H244.738H245.963H247.189H248.415H249.641H250.867H252.093H253.319H254.546H255.772H256.998H258.224H259.45H260.676H261.902H263.127H264.353H265.578H266.802H268.026H269.25H270.474H271.697H272.919H274.141H275.363H276.583H277.804H279.023H280.242H281.46H282.678H283.894H285.11H286.325H287.539H288.752H289.964H291.175H292.385H293.594H294.801H296.008H297.214H298.418H299.621H300.823H302.023H303.223H304.42H305.617H306.812H308.005H309.197H310.387H311.576H312.763H313.949H315.133H316.315H317.495H318.674H319.851H321.026H322.199H323.37H324.539H325.706H326.871H328.034H329.195H330.354H331.511H332.666H333.818H334.968H336.116H337.261H338.404H339.545H340.683H341.819H342.952H344.083H345.211H346.337H347.46H348.58H349.697H350.812H351.924H353.033H354.14H355.243H356.344H357.442H358.536H359.628H360.717H361.802H362.885H363.964H365.04H366.113H367.183H368.249H369.312H370.372H371.428H372.481H373.531H374.577H375.619H376.658H377.693H378.725H379.753H380.777H381.798H382.815H383.828H384.837H385.842H386.844H387.841H388.835H389.825H390.81H391.792H392.769H393.742H394.711H395.676H396.637H397.593H398.545H399.493H400.436H401.375H402.31H403.24H404.166H405.087H406.003H406.915H407.822H408.724H409.622H410.515H411.404H412.287H413.166H414.039H414.908H415.772H416.631H417.485H418.333H419.177H420.016H420.849H421.677H422.5H423.318H424.131H424.938H425.74H426.536H427.327H428.113H428.893H429.667H430.436H431.199H431.957H432.709H433.455H434.196H434.931H435.66H436.383H437.1H437.812H438.517H439.217H439.91H440.598H441.279H441.954H442.624H443.287H443.943H444.594H445.238H445.876H446.508H447.133H447.752H448.364H448.97H449.569H450.162H450.748H451.328H451.901H452.467H453.027H453.579H454.125H454.665H455.197H455.722H456.241H456.752H457.257H457.754H458.245H458.728H459.205H459.674H460.136H460.59H461.038H461.478H461.91H462.336H462.754H463.164H463.567H463.963H464.351H464.732H465.104H465.47H465.827H466.177H466.519H466.854H467.18H467.499H467.81H468.113H468.407H468.694H468.973H469.244H469.507H469.762H470.008H470.247H470.477H470.699H470.913H471.118H471.315H471.503H471.684H471.855H472.018H472.173H472.319H472.457H472.586H472.706H472.817H472.92H473.014H473.1H473.176H473.244H473.302H473.352H473.393H473.424H473.447H473.461C473.464 39.0157 473.465 39.0157 473.465 38.3491V39.0157H473.698L473.881 38.8707L498.511 19.2673ZM909.809 88.1324H909.142V87.4813H843.726V41.7986V41.1319H843.06H40.7376H40.0709V41.7986V457.217V457.883H40.7376H106.153V502.088V502.755H106.82H909.142H909.809V502.088V88.8146V88.148V88.1324Z" fill="#4F09F8" stroke="#21106A" stroke-width="1.33333"/>
<mask id="path-16-inside-1_2022_1885" fill="white">
<path fill-rule="evenodd" clip-rule="evenodd" d="M865.557 524.123L884.419 509.112H871.476L852.614 524.123H865.557ZM455.673 509.812H106.026V519.009H444.096L455.673 509.812ZM842.25 34.0628V26.3239H500.98L491.254 34.0628H842.25ZM463.552 35.9104L482.414 20.9023H469.471L450.609 35.9104H463.552ZM75.139 35.9104L94.001 20.9023H81.0583L62.1963 35.9104H75.139ZM101.04 35.9104L119.902 20.9023H106.959L88.0973 35.9104H101.04ZM126.941 35.9104L145.803 20.9023H132.86L113.998 35.9104H126.941ZM152.842 35.9104L171.704 20.9023H158.761L139.899 35.9104H152.842ZM178.743 35.9104L197.605 20.9023H184.662L165.8 35.9104H178.743ZM204.644 35.9104L223.509 20.9023H210.566L191.701 35.9104H204.644ZM230.545 35.9104L249.41 20.9023H236.468L217.602 35.9104H230.545ZM256.449 35.9104L275.311 20.9023H262.369L243.507 35.9104H256.449ZM282.35 35.9104L301.212 20.9023H288.27L269.408 35.9104H282.35ZM308.251 35.9104L327.113 20.9023H314.171L295.309 35.9104H308.251ZM334.152 35.9104L353.014 20.9023H340.072L321.21 35.9104H334.152ZM360.053 35.9104L378.915 20.9023H365.973L347.111 35.9104H360.053ZM385.954 35.9104L404.816 20.9023H391.874L373.012 35.9104H385.954ZM411.855 35.9104L430.721 20.9023H417.778L398.913 35.9104H411.855ZM437.756 35.9104L456.622 20.9023H443.679L424.814 35.9104H437.756ZM477.253 524.108L496.118 509.096H483.176L464.311 524.108H477.253ZM503.158 524.108L522.02 509.096H509.077L490.212 524.108H503.158ZM529.059 524.108L547.921 509.096H534.978L516.116 524.108H529.059ZM554.96 524.108L573.822 509.096H560.879L542.017 524.108H554.96ZM580.861 524.108L599.723 509.096H586.78L567.918 524.108H580.861ZM606.762 524.108L625.624 509.096H612.681L593.819 524.108H606.762ZM632.663 524.108L651.525 509.096H638.582L619.72 524.108H632.663ZM658.564 524.108L677.429 509.096H664.483L645.621 524.108H658.564ZM684.465 524.108L703.33 509.096H690.387L671.522 524.108H684.465ZM710.369 524.108L729.231 509.096H716.288L697.423 524.108H710.369ZM736.27 524.108L755.132 509.096H742.189L723.327 524.108H736.27ZM762.171 524.108L781.033 509.096H768.09L749.228 524.108H762.171ZM788.072 524.108L806.934 509.096H793.991L775.129 524.108H788.072ZM813.973 524.108L832.835 509.096H819.892L801.03 524.108H813.973ZM839.874 524.108L858.736 509.096H845.793L826.931 524.108H839.874Z"/>
</mask>
<path fill-rule="evenodd" clip-rule="evenodd" d="M865.557 524.123L884.419 509.112H871.476L852.614 524.123H865.557ZM455.673 509.812H106.026V519.009H444.096L455.673 509.812ZM842.25 34.0628V26.3239H500.98L491.254 34.0628H842.25ZM463.552 35.9104L482.414 20.9023H469.471L450.609 35.9104H463.552ZM75.139 35.9104L94.001 20.9023H81.0583L62.1963 35.9104H75.139ZM101.04 35.9104L119.902 20.9023H106.959L88.0973 35.9104H101.04ZM126.941 35.9104L145.803 20.9023H132.86L113.998 35.9104H126.941ZM152.842 35.9104L171.704 20.9023H158.761L139.899 35.9104H152.842ZM178.743 35.9104L197.605 20.9023H184.662L165.8 35.9104H178.743ZM204.644 35.9104L223.509 20.9023H210.566L191.701 35.9104H204.644ZM230.545 35.9104L249.41 20.9023H236.468L217.602 35.9104H230.545ZM256.449 35.9104L275.311 20.9023H262.369L243.507 35.9104H256.449ZM282.35 35.9104L301.212 20.9023H288.27L269.408 35.9104H282.35ZM308.251 35.9104L327.113 20.9023H314.171L295.309 35.9104H308.251ZM334.152 35.9104L353.014 20.9023H340.072L321.21 35.9104H334.152ZM360.053 35.9104L378.915 20.9023H365.973L347.111 35.9104H360.053ZM385.954 35.9104L404.816 20.9023H391.874L373.012 35.9104H385.954ZM411.855 35.9104L430.721 20.9023H417.778L398.913 35.9104H411.855ZM437.756 35.9104L456.622 20.9023H443.679L424.814 35.9104H437.756ZM477.253 524.108L496.118 509.096H483.176L464.311 524.108H477.253ZM503.158 524.108L522.02 509.096H509.077L490.212 524.108H503.158ZM529.059 524.108L547.921 509.096H534.978L516.116 524.108H529.059ZM554.96 524.108L573.822 509.096H560.879L542.017 524.108H554.96ZM580.861 524.108L599.723 509.096H586.78L567.918 524.108H580.861ZM606.762 524.108L625.624 509.096H612.681L593.819 524.108H606.762ZM632.663 524.108L651.525 509.096H638.582L619.72 524.108H632.663ZM658.564 524.108L677.429 509.096H664.483L645.621 524.108H658.564ZM684.465 524.108L703.33 509.096H690.387L671.522 524.108H684.465ZM710.369 524.108L729.231 509.096H716.288L697.423 524.108H710.369ZM736.27 524.108L755.132 509.096H742.189L723.327 524.108H736.27ZM762.171 524.108L781.033 509.096H768.09L749.228 524.108H762.171ZM788.072 524.108L806.934 509.096H793.991L775.129 524.108H788.072ZM813.973 524.108L832.835 509.096H819.892L801.03 524.108H813.973ZM839.874 524.108L858.736 509.096H845.793L826.931 524.108H839.874Z" fill="#D6DF20" stroke="#21106A" stroke-width="2.66667" mask="url(#path-16-inside-1_2022_1885)"/>
<path d="M85.9961 495.048L85.9957 495.049C85.8466 495.541 85.6736 496.024 85.4768 496.499C85.2797 496.973 85.062 497.436 84.8207 497.889C84.5753 498.343 84.3128 498.782 84.0273 499.207L84.0255 499.21C83.7437 499.634 83.4366 500.045 83.1094 500.448C82.7848 500.844 82.4424 501.222 82.0791 501.585C81.7129 501.948 81.3338 502.294 80.9389 502.618C80.5407 502.944 80.1294 503.251 79.7048 503.533L79.7039 503.534C79.274 503.821 78.8355 504.083 78.3823 504.325C77.9268 504.567 77.464 504.788 76.9907 504.985C76.5169 505.181 76.0342 505.354 75.5425 505.503C75.0522 505.65 74.5536 505.775 74.0498 505.876C73.5432 505.975 73.0365 506.053 72.5291 506.103C72.0159 506.151 71.5024 506.178 70.9911 506.178C70.4799 506.178 69.9663 506.151 69.4531 506.103C68.9457 506.053 68.439 505.975 67.9324 505.876C67.4287 505.775 66.9301 505.65 66.4399 505.503C65.9481 505.354 65.4653 505.181 64.9915 504.985C64.5183 504.788 64.0555 504.567 63.6 504.325C63.1468 504.083 62.7083 503.821 62.2783 503.534L62.2774 503.533C61.8529 503.251 61.4415 502.944 61.0433 502.618C60.6484 502.294 60.2693 501.948 59.9031 501.585C59.5397 501.222 59.1973 500.844 58.8727 500.448C58.5455 500.045 58.2385 499.634 57.9567 499.21L57.9549 499.207C57.6695 498.782 57.407 498.343 57.1616 497.889C56.9203 497.436 56.7026 496.973 56.5054 496.499C56.3086 496.024 56.1356 495.541 55.9865 495.049L55.9862 495.048C55.8378 494.561 55.7153 494.063 55.6132 493.556L54.9597 493.687L55.6132 493.556C55.5121 493.053 55.4375 492.546 55.3867 492.035C55.3361 491.526 55.3122 491.013 55.3122 490.499C55.3122 489.985 55.3361 489.472 55.3867 488.963L55.3867 488.963C55.4375 488.448 55.5121 487.942 55.6131 487.443L55.6132 487.442C55.7153 486.935 55.8378 486.436 55.9864 485.946C56.1356 485.457 56.3087 484.973 56.5054 484.499C56.7031 484.023 56.9208 483.558 57.1612 483.11C57.4074 482.654 57.67 482.212 57.9549 481.788L57.9549 481.788L57.9567 481.785C58.2387 481.361 58.5456 480.949 58.8719 480.551C59.1971 480.154 59.54 479.776 59.904 479.412C60.2679 479.048 60.6466 478.705 61.0433 478.38L61.0433 478.38L61.0456 478.378C61.44 478.052 61.8505 477.748 62.2779 477.461C62.7108 477.176 63.1493 476.91 63.6 476.67C64.0534 476.429 64.5161 476.211 64.9915 476.013C65.4657 475.816 65.9488 475.643 66.441 475.494L66.442 475.494C66.9311 475.345 67.4283 475.22 67.9306 475.122L67.9306 475.122L67.9344 475.121C68.4372 475.02 68.944 474.945 69.4552 474.894C69.9638 474.844 70.4767 474.82 70.9911 474.82C71.5055 474.82 72.0184 474.844 72.5271 474.894C73.0382 474.945 73.545 475.02 74.0479 475.121L74.0516 475.122C74.554 475.22 75.0512 475.345 75.5402 475.494L75.5413 475.494C76.0334 475.643 76.5166 475.816 76.9907 476.013C77.4661 476.211 77.9289 476.429 78.3823 476.67C78.8329 476.91 79.2714 477.176 79.7043 477.461C80.1316 477.748 80.5422 478.052 80.9366 478.378L80.9389 478.38C81.3356 478.705 81.7143 479.048 82.0783 479.412C82.4422 479.776 82.7852 480.154 83.1103 480.551C83.4366 480.949 83.7435 481.361 84.0255 481.785L84.0273 481.788C84.3122 482.212 84.5748 482.654 84.821 483.11C85.0614 483.558 85.2791 484.023 85.4768 484.499C85.6735 484.973 85.8466 485.456 85.9958 485.946C86.1444 486.436 86.2669 486.935 86.369 487.442L86.3691 487.443C86.4702 487.942 86.5447 488.448 86.5955 488.963L86.5956 488.963C86.6461 489.472 86.6701 489.985 86.6701 490.499C86.6701 491.013 86.6461 491.526 86.5956 492.035C86.5448 492.546 86.4702 493.053 86.369 493.556C86.2669 494.063 86.1444 494.561 85.9961 495.048Z" fill="#D6DF20" stroke="#21106A" stroke-width="1.33333"/>
</svg>
